<?xml version="1.0" encoding="UTF-8" standalone="no"?>
<!-- Created with Inkscape (http://www.inkscape.org/) -->

<svg
   xmlns:dc="http://purl.org/dc/elements/1.1/"
   xmlns:cc="http://creativecommons.org/ns#"
   xmlns:rdf="http://www.w3.org/1999/02/22-rdf-syntax-ns#"
   xmlns:svg="http://www.w3.org/2000/svg"
   xmlns="http://www.w3.org/2000/svg"
   xmlns:sodipodi="http://sodipodi.sourceforge.net/DTD/sodipodi-0.dtd"
   xmlns:inkscape="http://www.inkscape.org/namespaces/inkscape"
   width="48pt"
   height="48pt"
   viewBox="0 0 16.933334 16.933333"
   version="1.1"
   id="svg979"
   inkscape:version="0.92.4 (5da689c313, 2019-01-14)"
   sodipodi:docname="29 - Diamond Ring.svg"
   inkscape:export-filename="E:\TR Design Studio Creative\Project Design\TR Creative Design\Icon Design\Project Hiring\Icon Icons\Project - 001\002 - Beauty And Fashion\Send\4 - Filled Line\29 - Diamond Ring.png"
   inkscape:export-xdpi="768"
   inkscape:export-ydpi="768">
  <defs
     id="defs973">
    <pattern
       y="0"
       x="0"
       height="6"
       width="6"
       patternUnits="userSpaceOnUse"
       id="EMFhbasepattern" />
    <pattern
       y="0"
       x="0"
       height="6"
       width="6"
       patternUnits="userSpaceOnUse"
       id="EMFhbasepattern-3" />
    <pattern
       y="0"
       x="0"
       height="6"
       width="6"
       patternUnits="userSpaceOnUse"
       id="EMFhbasepattern-8" />
    <pattern
       y="0"
       x="0"
       height="6"
       width="6"
       patternUnits="userSpaceOnUse"
       id="EMFhbasepattern-7" />
    <pattern
       y="0"
       x="0"
       height="6"
       width="6"
       patternUnits="userSpaceOnUse"
       id="EMFhbasepattern-4" />
  </defs>
  <sodipodi:namedview
     id="base"
     pagecolor="#ffffff"
     bordercolor="#666666"
     borderopacity="1.0"
     inkscape:pageopacity="0.0"
     inkscape:pageshadow="2"
     inkscape:zoom="4.2734375"
     inkscape:cx="32"
     inkscape:cy="32"
     inkscape:document-units="pt"
     inkscape:current-layer="layer1"
     showgrid="false"
     units="pt"
     inkscape:window-width="1366"
     inkscape:window-height="716"
     inkscape:window-x="-8"
     inkscape:window-y="-8"
     inkscape:window-maximized="1"
     inkscape:snap-bbox="true"
     inkscape:bbox-nodes="true"
     inkscape:snap-nodes="false"
     showguides="false"
     inkscape:snap-global="true">
    <inkscape:grid
       type="xygrid"
       id="grid1526" />
    <sodipodi:guide
       position="0.97013909,15.963209"
       orientation="56.666615,0"
       id="guide1528"
       inkscape:locked="false" />
    <sodipodi:guide
       position="0.97013909,0.97016731"
       orientation="0,56.666667"
       id="guide1530"
       inkscape:locked="false" />
    <sodipodi:guide
       position="15.963195,0.97016731"
       orientation="-56.666615,0"
       id="guide1532"
       inkscape:locked="false" />
    <sodipodi:guide
       position="15.963195,15.963209"
       orientation="0,-56.666667"
       id="guide1534"
       inkscape:locked="false" />
  </sodipodi:namedview>
  <metadata
     id="metadata976">
    <rdf:RDF>
      <cc:Work
         rdf:about="">
        <dc:format>image/svg+xml</dc:format>
        <dc:type
           rdf:resource="http://purl.org/dc/dcmitype/StillImage" />
        <dc:title></dc:title>
      </cc:Work>
    </rdf:RDF>
  </metadata>
  <g
     inkscape:label="Layer 1"
     inkscape:groupmode="layer"
     id="layer1"
     transform="translate(0,-280.06668)">
    <g
       id="g2165"
       transform="matrix(1.2333476,0,0,1.2333476,-2.8347355,-68.454886)"
       style="stroke-width:0.81080145">
      <g
         id="g1991"
         style="display:inline;stroke-width:0.81080145"
         transform="translate(-41.213822,-67.242825)">
        <path
           style="color:#000000;font-style:normal;font-variant:normal;font-weight:normal;font-stretch:normal;font-size:medium;line-height:normal;font-family:sans-serif;font-variant-ligatures:normal;font-variant-position:normal;font-variant-caps:normal;font-variant-numeric:normal;font-variant-alternates:normal;font-feature-settings:normal;text-indent:0;text-align:start;text-decoration:none;text-decoration-line:none;text-decoration-style:solid;text-decoration-color:#000000;letter-spacing:normal;word-spacing:normal;text-transform:none;writing-mode:lr-tb;direction:ltr;text-orientation:mixed;dominant-baseline:auto;baseline-shift:baseline;text-anchor:start;white-space:normal;shape-padding:0;clip-rule:nonzero;display:inline;overflow:visible;visibility:visible;opacity:1;isolation:auto;mix-blend-mode:normal;color-interpolation:sRGB;color-interpolation-filters:linearRGB;solid-color:#000000;solid-opacity:1;vector-effect:none;fill:#81d4fa;fill-opacity:1;fill-rule:nonzero;stroke:none;stroke-width:0.42904937;stroke-linecap:round;stroke-linejoin:round;stroke-miterlimit:4;stroke-dasharray:none;stroke-dashoffset:0;stroke-opacity:1;color-rendering:auto;image-rendering:auto;shape-rendering:auto;text-rendering:auto;enable-background:accumulate"
           d="m 49.366636,350.80837 c -0.126986,0 -0.286893,0.0761 -0.338918,0.14439 l -0.736626,0.82399 c -0.145404,0.16195 -0.135584,0.40855 0.02227,0.55947 l 1.719855,1.64951 c 0.165461,0.15882 0.440523,0.16014 0.607756,0.003 5.4e-4,-5.1e-4 0.0011,-7.7e-4 0.0016,-0.002 l 1.727817,-1.64494 c 0.158805,-0.1501 0.170023,-0.39676 0.02545,-0.55947 l -0.711171,-0.7951 -0.0032,-0.005 -0.0016,-0.002 c -0.0059,-0.008 -0.01224,-0.0146 -0.0191,-0.0212 -4.97e-4,-5.1e-4 -0.0011,-7.8e-4 -0.0016,-0.002 -0.08221,-0.0928 -0.203612,-0.14643 -0.330917,-0.14593 -0.68246,7.8e-4 -1.37688,0.009 -1.961607,-0.005 z"
           id="path1145"
           inkscape:connector-curvature="0"
           sodipodi:nodetypes="cccccccccccccccc" />
        <path
           inkscape:connector-curvature="0"
           id="path979"
           d="m 49.070183,353.92657 a 0.26460995,0.26460995 0 0 0 -0.265624,0.26367 v 1.10156 a 0.26460995,0.26460995 0 0 0 0.263671,0.26563 l 2.646485,0.0117 a 0.26460995,0.26460995 0 0 0 0.265625,-0.26367 v -1.11524 a 0.26460995,0.26460995 0 0 0 -0.263672,-0.26367 z"
           style="color:#000000;font-style:normal;font-variant:normal;font-weight:normal;font-stretch:normal;font-size:medium;line-height:normal;font-family:sans-serif;font-variant-ligatures:normal;font-variant-position:normal;font-variant-caps:normal;font-variant-numeric:normal;font-variant-alternates:normal;font-feature-settings:normal;text-indent:0;text-align:start;text-decoration:none;text-decoration-line:none;text-decoration-style:solid;text-decoration-color:#000000;letter-spacing:normal;word-spacing:normal;text-transform:none;writing-mode:lr-tb;direction:ltr;text-orientation:mixed;dominant-baseline:auto;baseline-shift:baseline;text-anchor:start;white-space:normal;shape-padding:0;clip-rule:nonzero;display:inline;overflow:visible;visibility:visible;isolation:auto;mix-blend-mode:normal;color-interpolation:sRGB;color-interpolation-filters:linearRGB;solid-color:#000000;solid-opacity:1;vector-effect:none;fill:#dbdbdb;fill-opacity:1;fill-rule:nonzero;stroke:none;stroke-width:0.42904937;stroke-linecap:round;stroke-linejoin:round;stroke-miterlimit:4;stroke-dasharray:none;stroke-dashoffset:0;stroke-opacity:1;color-rendering:auto;image-rendering:auto;shape-rendering:auto;text-rendering:auto;enable-background:accumulate" />
        <path
           style="color:#000000;font-style:normal;font-variant:normal;font-weight:normal;font-stretch:normal;font-size:medium;line-height:normal;font-family:sans-serif;font-variant-ligatures:normal;font-variant-position:normal;font-variant-caps:normal;font-variant-numeric:normal;font-variant-alternates:normal;font-feature-settings:normal;text-indent:0;text-align:start;text-decoration:none;text-decoration-line:none;text-decoration-style:solid;text-decoration-color:#000000;letter-spacing:normal;word-spacing:normal;text-transform:none;writing-mode:lr-tb;direction:ltr;text-orientation:mixed;dominant-baseline:auto;baseline-shift:baseline;text-anchor:start;white-space:normal;shape-padding:0;clip-rule:nonzero;display:inline;overflow:visible;visibility:visible;isolation:auto;mix-blend-mode:normal;color-interpolation:sRGB;color-interpolation-filters:linearRGB;solid-color:#000000;solid-opacity:1;vector-effect:none;fill:#c4c4c4;fill-opacity:1;fill-rule:nonzero;stroke:none;stroke-width:0.42904937;stroke-linecap:round;stroke-linejoin:round;stroke-miterlimit:4;stroke-dasharray:none;stroke-dashoffset:0;stroke-opacity:1;color-rendering:auto;image-rendering:auto;shape-rendering:auto;text-rendering:auto;enable-background:accumulate"
           d="m 49.070439,353.92664 a 0.26460995,0.26460995 0 0 0 -0.265618,0.26355 v 0.26562 h 2.382801 a 0.26460995,0.26460995 0 0 1 0.263551,0.26355 v 0.84853 l 0.263549,0.001 a 0.26460995,0.26460995 0 0 0 0.265618,-0.26355 v -1.11519 a 0.26460995,0.26460995 0 0 0 -0.263551,-0.26354 z"
           id="path1854"
           inkscape:connector-curvature="0" />
        <path
           style="color:#000000;font-style:normal;font-variant:normal;font-weight:normal;font-stretch:normal;font-size:medium;line-height:normal;font-family:sans-serif;font-variant-ligatures:normal;font-variant-position:normal;font-variant-caps:normal;font-variant-numeric:normal;font-variant-alternates:normal;font-feature-settings:normal;text-indent:0;text-align:start;text-decoration:none;text-decoration-line:none;text-decoration-style:solid;text-decoration-color:#000000;letter-spacing:normal;word-spacing:normal;text-transform:none;writing-mode:lr-tb;direction:ltr;text-orientation:mixed;dominant-baseline:auto;baseline-shift:baseline;text-anchor:start;white-space:normal;shape-padding:0;clip-rule:nonzero;display:inline;overflow:visible;visibility:visible;isolation:auto;mix-blend-mode:normal;color-interpolation:sRGB;color-interpolation-filters:linearRGB;solid-color:#000000;solid-opacity:1;vector-effect:none;fill:#fdd835;fill-opacity:1;fill-rule:nonzero;stroke:none;stroke-width:0.42904931;stroke-linecap:round;stroke-linejoin:round;stroke-miterlimit:4;stroke-dasharray:none;stroke-dashoffset:0;stroke-opacity:1;color-rendering:auto;image-rendering:auto;shape-rendering:auto;text-rendering:auto;enable-background:accumulate"
           d="m 50.238914,354.89914 c -0.130603,0.003 -0.262334,0.012 -0.394718,0.0283 -2.118132,0.25896 -3.635685,2.18475 -3.392306,4.30471 a 0.25388999,0.25388999 0 0 0 0.01487,0.058 0.25388999,0.25388999 0 0 0 0,0.0545 c 0.305653,2.11191 2.264024,3.5867 4.378111,3.2966 2.114088,-0.2901 3.603372,-2.23766 3.328833,-4.35381 -0.257377,-1.98392 -1.975732,-3.42883 -3.934796,-3.38834 z m 0.01934,0.94365 c 1.450397,-0.0309 2.719483,1.06756 2.908823,2.56668 0.201962,1.59906 -0.893488,3.0779 -2.459062,3.29857 -1.565577,0.22068 -3.013734,-0.90234 -3.238585,-2.49823 a 0.25388999,0.25388999 0 0 1 -0.002,-0.0431 0.25388999,0.25388999 0 0 1 0,-0.002 0.25388999,0.25388999 0 0 1 -0.0075,-0.0412 c -0.17903,-1.60189 0.937562,-3.0624 2.50617,-3.2594 v 5.1e-4 c 0.09804,-0.0123 0.19538,-0.0197 0.292075,-0.0218 z"
           id="path1211"
           inkscape:connector-curvature="0" />
      </g>
      <path
         sodipodi:nodetypes="ccccccccccssscccccccccccccccccccccccccsccssssssssssssscs"
         inkscape:connector-curvature="0"
         id="path1391-2-9"
         d="m 7.9464862,283.36838 v 5.3e-4 c -0.07041,0.005 -0.1358929,0.0379 -0.1819011,0.0915 l -0.9043359,1.05885 c -0.08985,0.10499 -0.08377,0.26144 0.01394,0.35915 l 1.665015,1.67173 H 7.8565583 c -0.0091,-5.3e-4 -0.01828,-5.3e-4 -0.02739,0 -0.1354141,0.0135 -0.238422,0.12746 -0.2382311,0.26355 v 0.92294 c -1.456328,0.61493 -2.480469,2.0576 -2.480469,3.73566 0,2.23535 1.817124,4.05247 4.0524671,4.05247 2.2353427,0 4.0529827,-1.81712 4.0529827,-4.05247 0,-1.66591 -1.009925,-3.09884 -2.449463,-3.72122 v -0.93741 c -5.29e-4,-0.14541 -0.118141,-0.26304 -0.263551,-0.26355 H 9.8099302 l 1.6732828,-1.66553 c 0.09803,-0.0978 0.104111,-0.2546 0.01394,-0.35967 l -0.88677,-1.03508 c -0.0568,-0.0871 -0.143441,-0.12058 -0.220652,-0.12058 -0.8527147,8e-4 -1.7070408,-7.9e-4 -2.4432628,-7.9e-4 z m 0.4056621,0.53227 c 0.553026,0.008 1.1040869,0.008 1.6541607,0.005 l -0.8299236,2.15698 z m -0.47439,0.24288 0.6133989,1.60817 -1.068152,-1.07435 z m 2.6013907,0.007 0.455268,0.53278 -1.0707338,1.06557 z m -2.3590297,2.9285 h 2.1171847 v 0.48886 c -0.3427386,-0.0944 -0.7019417,-0.14882 -1.0743536,-0.14882 -0.361093,0 -0.7094493,0.0521 -1.0428311,0.14107 z m 1.0428311,0.8692 c 1.9493596,0 3.5238156,1.57446 3.5238156,3.52382 0,1.94936 -1.574456,3.5233 -3.5238156,3.5233 -1.9493602,0 -3.5233002,-1.57394 -3.5233002,-3.5233 0,-1.94936 1.57394,-3.52382 3.5233002,-3.52382 z m 0,0.4532 c -1.6555772,0 -2.9956842,1.3817 -2.9956842,3.07062 0,1.68893 1.340107,3.07009 2.9956842,3.07009 1.6555766,0 2.9961996,-1.38116 2.9961996,-3.07009 0,-1.68892 -1.340623,-3.07062 -2.9961996,-3.07062 z m 0,0.52917 c 1.3618176,0 2.4670326,1.13094 2.4670326,2.54145 0,1.41051 -1.105215,2.54093 -2.4670326,2.54093 -1.3618181,0 -2.4665152,-1.13042 -2.4665172,-2.54093 0,-1.41051 1.1046991,-2.54145 2.4665172,-2.54145 z"
         style="color:#000000;font-style:normal;font-variant:normal;font-weight:normal;font-stretch:normal;font-size:medium;line-height:normal;font-family:sans-serif;font-variant-ligatures:normal;font-variant-position:normal;font-variant-caps:normal;font-variant-numeric:normal;font-variant-alternates:normal;font-feature-settings:normal;text-indent:0;text-align:start;text-decoration:none;text-decoration-line:none;text-decoration-style:solid;text-decoration-color:#000000;letter-spacing:normal;word-spacing:normal;text-transform:none;writing-mode:lr-tb;direction:ltr;text-orientation:mixed;dominant-baseline:auto;baseline-shift:baseline;text-anchor:start;white-space:normal;shape-padding:0;clip-rule:nonzero;display:inline;overflow:visible;visibility:visible;opacity:1;isolation:auto;mix-blend-mode:normal;color-interpolation:sRGB;color-interpolation-filters:linearRGB;solid-color:#000000;solid-opacity:1;vector-effect:none;fill:#1a1a1a;fill-opacity:1;fill-rule:nonzero;stroke:none;stroke-width:0.42904937;stroke-linecap:round;stroke-linejoin:round;stroke-miterlimit:4;stroke-dasharray:none;stroke-dashoffset:0;stroke-opacity:1;color-rendering:auto;image-rendering:auto;shape-rendering:auto;text-rendering:auto;enable-background:accumulate" />
    </g>
  </g>
</svg>
