<?xml version="1.0" ?><svg style="enable-background:new 0 0 32 32;" version="1.1" viewBox="0 0 32 32" xml:space="preserve" xmlns="http://www.w3.org/2000/svg" xmlns:xlink="http://www.w3.org/1999/xlink"><style type="text/css">
	.st0{fill:#B9F3F8;}
	.st1{fill:#55C1FA;}
	.st2{fill:#FBC34E;}
	.st3{opacity:0.05;}
	.st4{fill:#FFFFFF;}
	.st5{fill:#7A442A;}
	.st6{fill:#C77C58;}
	.st7{fill:#E4EDF2;}
	.st8{fill:#F25949;}
	.st9{fill:#FA9B55;}
	.st10{fill:#E5A533;}
	.st11{fill:#6FA7AB;}
	.st12{fill:#20A56C;}
	.st13{fill:#F2C09E;}
	.st14{fill:#F4E8D0;}
	.st15{fill:#F2AB38;}
	.st16{fill:#393B3D;}
	.st17{fill:#ACE4E5;}
	.st18{fill:#659899;}
	.st19{fill:#E3FAFC;}
	.st20{fill:#DDF1F2;}
	.st21{fill:#16F293;}
	.st22{fill:#5C3320;}
	.st23{fill:#AD410D;}
	.st24{fill:#8B9CA5;}
	.st25{fill:#B26C50;}
	.st26{fill:#DAE1E5;}
	.st27{fill:#425158;}
	.st28{fill:#829299;}
	.st29{fill:#A5795C;}
	.st30{fill:#7A7468;}
	.st31{fill:#7B3ABF;}
	.st32{fill:#B564FF;}
	.st33{fill:#2B617D;}
</style><g id="Magnifier"/><g id="Gear"/><g id="Home"/><g id="Shield"/><g id="Star"/><g id="Flash"/><g id="Heart"/><g id="Hearts"/><g id="Shopping_Bag"/><g id="Token"/><g id="Warning"/><g id="Warning_B"/><g id="Chat"/><g id="Diamond"/><g id="Hanger"/><g id="Warning_C"/><g id="Potion"/><g id="Hourglass"/><g id="Trophy"/><g id="Bomb"/><g id="Gem"/><g id="Spell_Book"/><g id="User"/><g id="Users"/><g id="Treasure_Chest"/><g id="Treasure_Chest_Open"/><g id="Sack"/><g id="Fishing_Pin"/><g id="Sword"/><g id="Sword_And_Shield"/><g id="Backpack"/><g id="Key"/><g id="Meat"/><g id="Skull"/><g id="Store"/><g id="Helmet"/><g id="Anvil"/><g id="Axe"/><g id="Spear"/><g id="Food"/><g id="Bow"/><g id="Scroll"/><g id="Armor"><g><path class="st6" d="M8.24,21.59l-1.9,7.15c-0.08,0.3-0.01,0.62,0.18,0.87S7,30,7.31,30h4.79v-8.41L8.24,21.59z"/><path class="st6" d="M19.9,21.59V30h4.79c0.31,0,0.6-0.14,0.79-0.39s0.26-0.57,0.18-0.87l-1.9-7.15L19.9,21.59z"/><rect class="st23" height="8.41" width="7.8" x="12.1" y="21.59"/><path class="st24" d="M21.7,12.39c-1.654,0-3-1.346-3-3V6.682c-1.832,1.338-3.568,1.338-5.4,0V9.39c0,1.654-1.346,3-3,3H7.652    L8.43,19.6c-0.006,0.054,0.088,0.833,0.094,0.905L8.24,21.59l3.86,0h7.8l3.86,0l-0.284-1.085c0.003-0.042,0.091-0.799,0.092-0.839    l0.781-7.276H21.7z"/><path class="st27" d="M10.3,12.39c1.654,0,3-1.346,3-3V6.682V3c0-0.553-0.448-1-1-1C9.789,2,7.429,2.978,5.65,4.755    c-1.767,1.78-2.74,4.136-2.74,6.635c0,0.553,0.448,1,1,1h3.742H10.3z"/><path class="st27" d="M26.347,4.753C24.571,2.978,22.211,2,19.7,2c-0.552,0-1,0.447-1,1v3.682V9.39c0,1.654,1.346,3,3,3h2.648    h3.741c0.552,0,1-0.447,1-1C29.09,8.891,28.117,6.535,26.347,4.753z"/></g></g><g id="Hat"/><g id="Wand"/><g id="Map"/><g id="Mushroom"/><g id="Feather"/><g id="Wings"/><g id="Fish"/></svg>