<?xml version="1.0" ?><svg viewBox="0 0 64 64" xmlns="http://www.w3.org/2000/svg"><defs><style>.cls-1{fill:#eaeaea;}.cls-2{fill:#4c241d;}.cls-3{fill:none;}.cls-3,.cls-4,.cls-5{stroke:#4c241d;stroke-linecap:round;stroke-linejoin:round;stroke-width:2px;}.cls-4{fill:#6b4f5b;}.cls-5{fill:#bf7e68;}</style></defs><g id="boots"><circle class="cls-1" cx="30" cy="31" r="23"/><circle class="cls-2" cx="38" cy="21" r="1"/><circle class="cls-2" cx="52" cy="23" r="1"/><line class="cls-3" x1="46.5858" x2="49.4142" y1="12.5858" y2="15.4142"/><line class="cls-3" x1="46.5858" x2="49.4142" y1="15.4142" y2="12.5858"/><circle class="cls-3" cx="43" cy="32" r="2"/><path class="cls-4" d="M49.0155,51.3274,12.3119,49.7235,9.708,52.9314V58H22V55.5354l4.2061,1.4809c2.0564.7241,7.1291,1.16,9.3052,1.2924C40.5972,58.6184,47.3606,58.0827,52,55Z"/><path class="cls-5" d="M50.6339,49.077a6.3214,6.3214,0,0,0-6.055-4.1655H39.4976C32.3522,44.9115,28,40.1453,28,33L31,8a34.0718,34.0718,0,0,0-9-1.8745V16a3,3,0,0,1-6,0V6.131A24.1368,24.1368,0,0,0,8,8v6c0,3.6549,2.1616,10.9849,3,19,.1191,1.14-2,7-2,11a72.4779,72.4779,0,0,0,.708,8.9314,64.7637,64.7637,0,0,1,19.5471,1.1614,37.1532,37.1532,0,0,0,21.3643-1.1614A5.9591,5.9591,0,0,0,50.6339,49.077Z"/><path class="cls-3" d="M25.651,14A10.6292,10.6292,0,0,0,19,12a10.6292,10.6292,0,0,0-6.651,2"/><circle class="cls-2" cx="19" cy="23" r="1"/><circle class="cls-2" cx="19" cy="26" r="1"/><circle class="cls-2" cx="19" cy="29" r="1"/><circle class="cls-2" cx="19" cy="32" r="1"/></g></svg>