<?xml version="1.0" encoding="utf-8"?>
<!-- Generator: Adobe Illustrator 27.5.0, SVG Export Plug-In . SVG Version: 6.00 Build 0)  -->
<svg version="1.1" id="Layer_1" xmlns="http://www.w3.org/2000/svg" xmlns:xlink="http://www.w3.org/1999/xlink" x="0px" y="0px"
	 viewBox="0 0 199.3 285.552" style="enable-background:new 0 0 199.3 285.552;" xml:space="preserve">
<g>
	<g>
		<g>
			<g>
				<path style="fill:#A35D37;" d="M151.372,270.304L99.217,163.648l-20.421,12.138l51.285,99.052c0,0,1.933,5.604,6.881,5.46
					c4.948-0.144,14.433-6.28,14.433-6.28S153.245,271.495,151.372,270.304z"/>
				<path style="fill:#7C4216;" d="M136.774,281.269c-5.18,0-7.316-5.32-7.584-6.044L77.514,175.42l22.113-13.145l52.507,107.38
					c0.534,0.413,0.875,0.964,0.996,1.61c0.296,1.567-0.824,3.149-0.953,3.325l-0.105,0.142l-0.15,0.097
					c-0.395,0.258-9.77,6.288-14.931,6.436L136.774,281.269z M80.077,176.153l50.898,98.302l0.022,0.066
					c0.017,0.047,1.73,4.808,5.776,4.808l0.159-0.002c4.283-0.125,12.508-5.223,13.77-6.021c0.233-0.37,0.625-1.137,0.521-1.686
					c-0.026-0.139-0.093-0.32-0.373-0.499l-0.23-0.146L98.808,165.019L80.077,176.153z"/>
			</g>
			<path style="fill:#A35D37;" d="M126.798,268.5c1.733,0.112,3.463,0.138,5.18,0.078c5.714-0.197,11.561-1.237,16.668-3.846
				l-48.347-98.872c-2.09,3.494-1.614,8.069-0.561,11.885c1.157,4.189,2.961,8.22,5.341,11.856c0.119,0.184,0.063,0.5-0.179,0.561
				c-6.653,1.705-13.43,0.066-19.915-2.421L126.798,268.5z"/>
			<path style="fill:#A05627;" d="M128.77,263.336c3.899,0.074,7.756-0.299,11.619-0.703c4.169-0.925,8.318-1.942,12.345-3.336
				c3.777-1.307,7.678-2.325,11.283-4.069c1.606-0.777,3.079-1.785,4.484-2.88c0.101,0.066,0.199,0.114,0.288,0.129
				c3.164,0.544,6.417,0.889,9.609,1.364c1.367,0.203,2.77,0.508,4.179,0.743c0.12,0.157,0.266,0.29,0.376,0.328
				c1.583,0.555,3.181,0.788,4.842,0.964c0.935,0.097,1.959-2.014,2.326-2.514c2.696-3.698,3.325-9.704,4.305-14.052
				c1.26-5.604,2.005-11.115,1.868-16.871c-0.085-3.625-0.272-8.099-2.391-11.197c0.013,0.002,0.026,0.004,0.043,0.006
				c0.398,0.057,0.01-0.624-0.265-0.675c-4.375-0.805-8.759-1.404-13.068-2.535c-2.898-0.762-6.197-1.396-9.196-1.455
				c-0.614-0.989-1.241-1.972-1.917-2.921c-1.937-2.713-4.356-5.001-6.631-7.419c-5.216-5.538-11.248-10.581-17.385-15.043
				c-5.13-3.73-11.678-7.375-17.994-8.489c-3.995-0.705-8.146-0.425-12.189-0.41c-3.293,0.014-6.657-0.111-9.935,0.305
				c-0.762-0.313-0.798-0.299-1.828-0.381c-0.445-0.036-0.592,0.358-0.55,0.727c0.373,3.357,2.603,7.262,4.105,10.206
				c2.103,4.126,4.337,10.315,8.435,12.93c-4.611,0.261-9.232,0.418-13.836,0.792c-3.33,0.269-6.722,0.632-10.065,0.563
				c-0.504-0.009-1.012-0.051-1.523-0.104c-0.024-0.066-0.053-0.135-0.095-0.212c-1.308-2.347-5.69-14.317-10.096-10.21
				c-2.446,2.281-3.795,6.515-5.369,9.417c-1.483,2.734-1.036,4.723,0.524,7.311c1.145,1.896,2.395,3.653,3.778,5.234
				c-2.926,1.9-0.568,8.126,0.39,10.561c1.185,3.016,3.154,5.492,5.671,7.333c-0.023,0.03-0.046,0.057-0.064,0.093
				c-1.675,3.246,0.367,6.964,1.953,9.836c2.148,3.895,5.407,6.138,9.393,7.895c0.173,0.076,0.349,0.148,0.521,0.222
				c-0.52,6.51,9.505,11.589,14.076,14.152c2.787,1.563,5.695,2.685,8.681,3.425C122.551,262.906,125.653,263.277,128.77,263.336z"
				/>
			<path style="fill:#F6C3A4;" d="M115.398,259.283c-6.534-2.482-14.509-7.038-17.098-13.792c8.135,3.293,16.957,5.211,25.738,5.542
				c1.416-0.195,2.821-0.46,4.214-0.804c-8.072-0.557-16.42-1.868-24.074-4.484c-7.83-2.675-20.057-7.065-17.716-17.754
				c0.014-0.059,0.01-0.125,0-0.191c0.508,0.294,1.033,0.57,1.575,0.818c4.85,2.211,10.609,2.749,15.826,3.496
				c4.252,0.606,9.136,1.605,13.707,1.612c1.33-0.207,2.656-0.506,3.843-1.084c-7.819,0.002-16.163-1.98-23.838-3.353
				c-4.825-0.862-10.271-1.76-13.851-5.397c-2.3-2.336-6.47-10.409-3.471-13.436c0.014-0.013,0.022-0.03,0.034-0.045
				c2.87,2.838,6.28,4.961,10.444,6.068c7.965,2.112,16.146,2.295,24.309,2.103c0.479-0.224,0.955-0.455,1.429-0.697
				c-5.452-0.237-10.928-0.532-16.325-1.322c-6.889-1.01-14.146-1.855-18.936-7.33c-1.671-1.91-3.307-3.906-4.74-5.998
				c-2.332-3.404,0.43-6.676,2.031-9.73c1.24-2.365,3.351-7.722,6.172-3.541c1.542,2.287,2.681,4.863,4.149,7.208
				c-2.136-0.331-4.291-0.887-6.355-1.231c-0.625-0.104,0.014,0.874,0.278,0.987c6.576,2.788,12.713,2.421,19.665,1.788
				c6.052-0.553,12.179-1.064,18.159-2.216c0.465-0.275,0.919-0.572,1.36-0.887c-1.879,0.172-3.759,0.316-5.64,0.43
				c0.011-0.239-0.11-0.559-0.313-0.72c-3.153-2.483-4.996-8.035-6.768-11.499c-1.467-2.869-3.404-6.341-4.16-9.592
				c0.381-0.04,0.742-0.085,1.167-0.151c0.186-0.028,0.263-0.12,0.273-0.239c5.85,0.51,11.863,0.352,17.72,0.521
				c7.881,0.226,15.491,4.507,21.741,9.052c9.768,7.099,17.991,15.609,25.26,25.106c1.065,1.031,2.128,2.059,3.261,3.013
				c-0.748-1.167-1.463-2.355-2.183-3.543c3.19,0.913,6.603,0.987,9.852,1.66c3.533,0.729,7.135,0.993,10.71,1.453
				c0.016,0.07,0.046,0.149,0.091,0.233c1.912,3.479,1.65,9.204,1.637,13.001c-0.013,4.272-0.678,8.512-1.671,12.657
				c-0.985,4.105-1.669,8.311-3.044,12.313c-0.485,1.41-1.106,2.598-1.967,3.815c-0.436,0.614-1.332,0.809-2.292,0.849
				c-5.159-0.172-10.28-2.313-15.462-2.95c0.683-0.57,1.353-1.15,2.023-1.722c0.066-0.057,0.085-0.133,0.091-0.212
				c-1.017,0.263-2.03,0.528-3.042,0.803c-10.575,6.724-23.61,9.815-35.773,12.447C127.235,262.286,121.288,261.517,115.398,259.283
				z"/>
			<path style="fill:#F6C3A4;" d="M120.449,232.04c0.46-0.059,0.929-0.108,1.4-0.159c-3.109-0.423-6.209-0.904-9.289-1.483
				c-4.793-0.902-10.19-1.766-14.499-4.198c-1.021-0.578-2.31-1.381-2.562-2.63c-0.272-1.353,0.889-2.58,2.046-3.073
				c3.187-1.354,6.65-0.82,9.972-1.395c0.926-0.159,1.853-0.313,2.779-0.464c-6.58-0.009-13.141-0.456-19.563-2.16
				c-4.164-1.106-7.574-3.23-10.444-6.068c-0.012,0.015-0.021,0.032-0.034,0.045c-2.999,3.027,1.171,11.1,3.471,13.436
				c3.579,3.637,9.025,4.535,13.851,5.397c6.312,1.129,13.074,2.668,19.628,3.179C118.284,232.316,119.367,232.174,120.449,232.04z"
				/>
			<path style="fill:#F6C3A4;" d="M133.442,262.336c12.162-2.632,25.197-5.724,35.773-12.447c1.012-0.275,2.025-0.54,3.042-0.803
				c-0.006,0.08-0.024,0.155-0.091,0.212c-0.671,0.572-1.341,1.152-2.023,1.722c5.182,0.637,10.303,2.778,15.462,2.95
				c0.96-0.04,1.856-0.235,2.292-0.849c0.86-1.218,1.481-2.406,1.967-3.815c0.613-1.789,1.089-3.619,1.516-5.462
				c-1.989-0.15-3.962-0.275-5.809-0.568c-1.904-0.301-4.276-0.549-5.972-1.548c-1.001-0.587-1.122-1.815-1.139-2.866
				c-0.093-6.01-0.193-12.03-1.683-17.896c-1.085-4.285-2.804-8.281-5.091-11.99c-0.157-0.152-0.318-0.301-0.475-0.455
				c-0.609-0.796-1.236-1.576-1.86-2.357c1.787,5.032,2.852,10.312,2.846,15.656c-0.006,4.454-0.73,8.851-1.909,13.144
				c-1.124,4.083-2.634,8.209-5.214,11.618c-5.064,6.684-13.812,9.798-21.918,10.56c-8.435,0.788-17.149-0.514-24.804-4.21
				c-0.265-0.127-0.297-0.604,0.031-0.682c4.257-1.029,8.701-1.267,12.914-2.423c-4.225-0.339-8.443-0.917-12.547-1.931
				c-4.6-1.137-12.101-3.171-13.898-8.29c-1.453-4.134,4.307-5.609,7.197-6.244c0.026-0.006,0.053-0.011,0.08-0.017
				c-2.846-0.347-5.673-0.86-8.265-1.23c-5.217-0.747-10.977-1.285-15.826-3.496c-0.542-0.248-1.067-0.524-1.575-0.818
				c0.01,0.066,0.014,0.133,0,0.191c-2.341,10.689,9.886,15.079,17.716,17.754c7.654,2.616,16.002,3.927,24.074,4.484
				c-1.393,0.343-2.798,0.608-4.214,0.804c-8.781-0.33-17.604-2.249-25.738-5.542c2.589,6.754,10.564,11.31,17.098,13.792
				C121.288,261.517,127.235,262.286,133.442,262.336z"/>
			<path style="fill:#F6C3A4;" d="M100.146,216.561c4.89,0.716,9.842,1.025,14.783,1.253c1.239-0.245,2.463-0.523,3.679-0.847
				c-4.799-0.367-9.582-1.027-14.29-2.025c-4.142-0.881-8.62-1.756-12.468-3.582c-2.219-1.056-5.18-3.183-3.674-6.023
				c1.568-2.954,5.424-3.156,8.378-3.382c7.161-0.549,14.391-0.788,21.495-1.883c7.15-1.099,15.482-2.985,20.191-8.97
				c-5.072-4.956-11.303-8.38-17.103-12.385c-0.234-0.163-0.129-0.543,0.114-0.631c3.832-1.398,7.813-1.964,11.803-1.902
				c-2.868-1.057-5.835-1.737-8.844-1.823c-5.856-0.168-11.869-0.011-17.72-0.521c-0.01,0.119-0.087,0.21-0.273,0.239
				c-0.425,0.066-0.786,0.112-1.167,0.151c0.756,3.251,2.693,6.724,4.16,9.592c1.771,3.465,3.614,9.016,6.768,11.499
				c0.202,0.161,0.323,0.481,0.313,0.72c1.881-0.114,3.761-0.258,5.64-0.43c-0.441,0.314-0.896,0.612-1.36,0.887
				c-5.98,1.152-12.107,1.663-18.159,2.216c-6.952,0.633-13.089,1-19.665-1.788c-0.265-0.114-0.903-1.091-0.278-0.987
				c2.064,0.345,4.219,0.9,6.355,1.231c-1.469-2.345-2.607-4.922-4.149-7.208c-2.821-4.181-4.932,1.176-6.172,3.541
				c-1.602,3.054-4.363,6.326-2.031,9.73c1.434,2.092,3.069,4.088,4.74,5.998C85.999,214.707,93.257,215.552,100.146,216.561z"/>
		</g>
		<g>
			<g>
				<path style="fill:#B6B8BA;" d="M100.153,163.814l-37.37,19.292c0,0-44.675-72.539-54.192-107.994
					C-0.93,39.66,8.359,6.839,8.359,6.839L100.153,163.814z"/>
				<path style="fill:#564F51;" d="M62.43,184.381l-0.473-0.765c-0.446-0.728-44.858-73.068-54.305-108.251
					C-1.825,40.062,7.332,6.905,7.426,6.576l0.621-2.194l93.459,159.825L62.43,184.381z M8.727,9.391
					c-1.843,8.024-7.115,35.991,0.8,65.47c8.851,32.967,48.813,99.093,53.613,106.971l35.659-18.411L8.727,9.391z"/>
			</g>
			<g>
				<path style="fill:#696A6D;" d="M68.083,180.37c-7.021-11.566-44.437-74.036-53.053-106.126
					c-6.546-24.375-4.2-47.504-2.096-59.58L8.359,6.839c0,0-9.289,32.821,0.231,68.273c9.518,35.455,54.192,107.994,54.192,107.994
					L68.083,180.37z"/>
			</g>
			<path style="opacity:0.5;fill:#7B7C80;" d="M98.192,160.46l-13.79-23.581c-9.847-5.051-19.836-9.827-30.021-14.045
				c-10.308-4.272-20.82-7.993-31.327-11.727c4.084,8.479,8.576,17.168,13.024,25.441C56.761,144.579,77.489,152.488,98.192,160.46z
				"/>
			<path style="opacity:0.5;fill:#7B7C80;" d="M53.108,83.363L45.702,70.7C32.094,64.515,18.489,58.321,4.741,52.452
				c0.314,3.923,0.814,7.981,1.534,12.117C21.988,70.581,37.624,76.793,53.108,83.363z"/>
		</g>
	</g>
	<g>
		<path style="fill:#B52126;" d="M31.342,50.431c-0.061-0.125-0.04-0.231,0.018-0.313c-1.065-2.933-2.815-6.353-5.479-7.715
			c-0.47,2.096,0.959,4.797,1.987,6.465c0.487,0.786,1.012,1.671,1.725,2.275c0.436,0.369,0.994,0.814,1.593,0.881
			C32.319,52.147,31.491,50.739,31.342,50.431z"/>
		<g>
			<g>
				<path style="fill:#B52126;" d="M53.449,130.746c-0.063-2.198-0.756-4.835,0.061-6.955c0.665-1.729,2.143-0.879,3.145-0.015
					c0.87,0.752,1.723,1.478,2.477,2.351c0.078,0.089,0.271,0.104,0.199-0.059c-0.292-0.669-0.616-1.324-0.9-1.997
					c-0.168-0.397-0.155-0.399-0.359-0.851c-0.546-1.206,0.659-1.307,1.385-1.262c0.119,0.008,0.087-0.131,0.053-0.193
					c-0.824-1.54,0.322-1.972,1.586-1.593c0.557,0.167,0.955,0.4,1.55,0.343c0.083-0.008,0.091-0.074,0.07-0.146
					c-0.127-0.409-0.441-0.65-0.783-0.893c-0.379-0.269-1.269-0.752-1.849-1.318c-0.212-0.515-0.457-0.993-0.26-1.606
					c0.147-0.464,1.199-0.923,1.548-1.101c0.735-0.377,1.546-0.564,2.287-0.926c0.119-0.059,0.002-0.22-0.072-0.261
					c-0.387-0.218-0.86-0.114-1.29-0.095c-0.756,0.032-1.309,0.128-2.02-0.404c-0.745-0.557-0.491-1.356-0.038-1.966
					c0.074-0.101-0.115-0.258-0.206-0.241c-1.13-0.284-1.48-0.782-1.05-1.493c0.184-0.245,0.373-0.485,0.563-0.722
					c0.161-0.201,0.32-0.506,0.367-0.76c0.068-0.341,0.097-0.89-0.274-1.101c-0.407-0.231-0.729,0.013-1.052,0.269
					c-1.108,0.885-3.594,2.421-4.509,0.351c-0.026-0.059-0.123-0.184-0.206-0.144c-0.639,0.313-1.315,0.866-1.933-0.066
					c-0.068-0.104-0.146-0.11-0.264-0.117c-0.163-0.008-0.286,0.401-0.326,0.492c-0.083,0.191-0.132,0.4-0.214,0.593
					c-0.415,0.995-1.657-0.481-1.929-0.783c-0.242-0.272-0.881-1.43-1.362-1.439c-0.694-0.012-0.492,1.277-0.428,1.699
					c0.068,0.485,0.264,0.959,0.419,1.419c0.133,0.398,0.22,0.816,0.316,1.226c0.168,0.722-0.229,0.745-0.699,0.953
					c-0.394,0.176-2.201,0.197-2.376,0.72c-0.167,0.497,0.604,1.021,0.921,1.241c0.235,0.161,1.059,0.57,1.459,1.016
					c-0.055,0.364-0.076,0.718-0.065,1.063c-0.316,0.426-0.788,0.762-1.177,1.08c-0.103,0.083,0.059,0.258,0.141,0.28
					c0.854,0.246,0.026,0.814-0.308,1.05c-0.568,0.403-1.235,0.633-1.893,0.849c-0.887,0.29-2.034,0.417-2.794,0.966
					c-0.108,0.081,0.07,0.254,0.142,0.28c1.755,0.633,7.709-1.72,7.669,1.597c-0.002,0.115,0.11,0.242,0.232,0.227
					c0.741-0.095,1.392,0.294,1.387,1.133c0,0.169-0.057,0.313,0.042,0.47c0.055,0.093,0.182,0.172,0.276,0.203
					c0.54,0.174,0.688,0.468,0.826,0.997c0.458,1.792,0.006,4.155,1.296,5.63C53.268,130.779,53.455,130.884,53.449,130.746z"/>
				<path style="fill:#B52126;" d="M64.478,120.678c-0.606,0.872,3.044,1.658,3.499,1.649c0.083-0.002,0.101-0.084,0.072-0.152
					c-0.228-0.538-0.878-0.752-1.376-0.968c-0.202-0.087-0.445-0.214-0.695-0.301c-0.097-0.041-0.189-0.078-0.286-0.101
					C65.457,120.746,64.676,120.388,64.478,120.678z"/>
				<path style="fill:#B52126;" d="M62.079,122.203c-0.084,0.166,0.222,0.517,0.323,0.618c0.229,0.222,0.469,0.419,0.745,0.572
					c0.341,0.193,1.218,0.368,1.101-0.328c-0.055-0.311-0.373-0.466-0.621-0.597c-0.177-0.095-0.393-0.201-0.604-0.22
					C62.626,122.04,62.223,121.919,62.079,122.203z"/>
				<path style="fill:#B52126;" d="M63.282,130.588c0.16,0.276,0.913,1.593,1.363,1.369c0.027-0.013,0.048-0.028,0.063-0.047
					c0.224-0.256-0.478-1.017-0.629-1.201c-0.117-0.142-0.377-0.493-0.549-0.559C63.184,130.014,63.123,130.317,63.282,130.588z"/>
				<path style="fill:#B52126;" d="M45.327,106.999c0.163-0.191-0.351-0.748-0.464-0.885c-0.085-0.104-0.274-0.362-0.399-0.411
					c-0.258-0.099-0.304,0.123-0.187,0.322c0.12,0.203,0.673,1.171,1.005,1.006C45.299,107.022,45.316,107.011,45.327,106.999z"/>
				<path style="fill:#B52126;" d="M60.914,131.273c-0.092-0.136-0.187-0.269-0.286-0.399c-0.08-0.1-0.189-0.24-0.328-0.151
					c-0.117,0.074,0.012,0.288,0.057,0.362c0.048,0.079,0.103,0.151,0.159,0.221c0.021,0.03,0.044,0.059,0.068,0.087
					c0.006,0.009,0.055,0.072,0.028,0.034c0.028,0.042,0.089,0.108,0.146,0.085c0.078-0.028,0.104-0.082,0.104-0.148
					c0.014,0.004,0.026,0.008,0.042,0.004C60.946,131.357,60.931,131.298,60.914,131.273z"/>
				<path style="fill:#B52126;" d="M48.531,105.493c-0.046-0.059-0.116-0.102-0.184-0.099c-0.004-0.002-0.01-0.003-0.016-0.007
					c0.042-0.006,0.063-0.063,0.014-0.127c-0.095-0.129-0.235-0.212-0.385-0.258c-0.046-0.011-0.095,0.017-0.078,0.068
					c0.04,0.146,0.143,0.254,0.248,0.358c0.036,0.034,0.078,0.068,0.122,0.103c0.026,0.047,0.085,0.087,0.127,0.085
					c0.035,0.017,0.071,0.032,0.107,0.042C48.608,105.687,48.576,105.552,48.531,105.493z"/>
				<path style="fill:#B52126;" d="M42.586,111.143c-0.008-0.017-0.019-0.034-0.032-0.051c-0.002-0.021-0.01-0.045-0.028-0.064
					c-0.288-0.29-0.648-0.449-1.044-0.527c-0.111-0.021-0.593-0.116-0.552,0.131c0.044,0.255,0.421,0.43,0.626,0.521
					c0.325,0.147,0.684,0.297,1.017,0.108C42.608,111.239,42.6,111.171,42.586,111.143z"/>
				<path style="fill:#B52126;" d="M39.16,121.291c0.052-0.08-0.059-0.185-0.113-0.225c-0.065-0.044-0.148-0.081-0.226-0.095
					c-0.075-0.089-0.212-0.148-0.318-0.165c-0.268-0.046-0.669-0.028-0.843,0.222c-0.188,0.267,0.411,0.426,0.559,0.453
					C38.486,121.53,38.992,121.561,39.16,121.291z"/>
				<path style="fill:#B52126;" d="M45.657,122.862c0.021-0.078-0.034-0.15-0.1-0.185c-0.023-0.036-0.053-0.065-0.097-0.072
					c-0.189-0.03-0.479,0.099-0.313,0.316C45.276,123.09,45.589,123.084,45.657,122.862z"/>
				<path style="fill:#B52126;" d="M46.758,125.009c0.008,0.004,0.019,0.009,0.026,0.011c0.106,0.017,0.248-0.009,0.305-0.11
					c0.044-0.078-0.065-0.193-0.132-0.212c-0.143-0.04-0.312-0.021-0.377,0.128c-0.032,0.072,0.063,0.199,0.138,0.189
					C46.733,125.016,46.746,125.013,46.758,125.009z"/>
				<path style="fill:#B52126;" d="M54.721,106.679c0.113,0.068,0.271,0.118,0.401,0.078c0.113-0.034,0.197-0.165,0.165-0.278
					c-0.008-0.03-0.023-0.061-0.038-0.087c0-0.038-0.006-0.078-0.022-0.117c-0.066-0.148-0.241-0.273-0.404-0.269
					c-0.147,0.002-0.38,0.093-0.396,0.265C54.413,106.44,54.594,106.6,54.721,106.679z"/>
				<path style="fill:#B52126;" d="M61.326,108.926c-0.13,0.199,0.237,0.572,0.415,0.367c0.042-0.049,0.02-0.123-0.026-0.178
					c0.032,0.024,0.057,0.053,0.08,0.08c0.079,0.104,0.233,0.047,0.144-0.078c-0.068-0.101-0.159-0.188-0.271-0.241
					C61.558,108.824,61.402,108.813,61.326,108.926z"/>
			</g>
			<g>
				<g>
					<path style="fill:#B52126;" d="M51.956,96.541c0.061-0.007,0.121-0.022,0.188-0.053c0.103-0.051,0.153-0.125,0.173-0.208
						c0.271-0.26,0.411-0.603,0.202-0.953c-0.388-0.65-1.278-1.019-1.945-0.555c-0.057,0.042-0.106,0.085-0.151,0.131
						c-0.282,0.082-0.53,0.244-0.625,0.528c-0.264,0.807,0.736,1.251,1.361,1.313C51.39,96.767,51.689,96.688,51.956,96.541z"/>
					<path style="fill:#B52126;" d="M54.021,100.259c0.212-0.01,0.284-0.199,0.238-0.385c-0.03-0.11-0.068-0.206-0.113-0.295
						c0.081,0.003,0.131-0.127,0.236-0.222c0.152-0.135,0.316-0.155,0.508-0.154c0.347,0.008,0.576-0.042,0.774-0.35
						c0.21-0.335-0.248-0.803-0.591-0.79c-0.159,0.007-0.316,0.011-0.473-0.008c-0.003-0.007-0.005-0.013-0.011-0.021
						c0.172-0.432-0.597-1.093-0.987-0.794c-0.087,0.066-0.18,0.11-0.28,0.155c-0.016,0.006-0.03,0.007-0.048,0.013
						c-0.274-0.233-0.623-0.36-0.843-0.026c-0.127,0.195-0.053,0.413,0.078,0.587c0.036,0.045,0.071,0.087,0.107,0.127
						c0,0.001-0.002,0.003-0.004,0.005c-0.064,0.106-0.147,0.203-0.218,0.305c-0.131,0.193-0.146,0.353-0.109,0.58
						c0.032,0.228,0.288,0.478,0.494,0.555c0.103,0.039,0.209,0.076,0.314,0.11c0.061,0.019,0.119,0.038,0.18,0.057l0,0
						c0.038,0.068,0.086,0.137,0.143,0.201C53.572,100.082,53.77,100.268,54.021,100.259z"/>
					<path style="fill:#B52126;" d="M57.063,102.04c0.142-0.11,0.063-0.311-0.034-0.464c-0.008-0.019-0.014-0.038-0.02-0.057
						c-0.146-0.37-0.559-0.667-0.955-0.676c-0.349-0.01-0.636,0.227-0.566,0.587c0.072,0.376,0.463,0.646,0.808,0.743
						C56.557,102.242,56.848,102.204,57.063,102.04z"/>
					<path style="fill:#B52126;" d="M51.464,101.7c0.168-0.163,0.2-0.358,0.153-0.547c0.006-0.03,0.008-0.063,0.01-0.091
						c0-0.008,0-0.015-0.002-0.023c-0.016-0.11-0.018-0.123-0.002-0.036c0.024-0.237-0.248-0.492-0.447-0.57
						c-0.131-0.051-0.258-0.063-0.389-0.046c-0.14-0.021-0.265,0.016-0.355,0.122c-0.049,0.04-0.057,0.04-0.02,0
						c-0.101,0.024-0.214,0.087-0.276,0.169c-0.095,0.123-0.099,0.252-0.068,0.4C50.17,101.596,51.015,102.136,51.464,101.7z"/>
					<path style="fill:#B52126;" d="M48.624,99.023c0.043-0.222-0.286-0.595-0.508-0.415c-0.018,0.013-0.03,0.03-0.04,0.047
						c-0.066-0.047-0.153-0.085-0.226-0.055c-0.085,0.034-0.075,0.125-0.043,0.201c0.024,0.155,0.182,0.318,0.307,0.373
						C48.275,99.249,48.582,99.239,48.624,99.023z"/>
					<path style="fill:#B52126;" d="M45.555,98.41c0.017-0.008,0.034-0.015,0.055-0.021c0.135-0.047,0.262-0.084,0.373-0.18
						c0.152-0.132,0.127-0.449,0.044-0.606c-0.076-0.142-0.176-0.254-0.299-0.351c-0.046-0.151-0.159-0.284-0.284-0.368
						c-0.118-0.081-0.445-0.203-0.501,0.027c-0.034,0.132-0.051,0.224-0.146,0.33c-0.055,0.059-0.057,0.142-0.028,0.224
						c-0.108-0.036-0.226-0.045-0.305,0.036c-0.146,0.154,0.007,0.413,0.13,0.535c0,0.003,0,0.005,0,0.009
						c0.004,0.068-0.005,0.138-0.013,0.207c-0.024,0.244,0.29,0.564,0.522,0.587c0.112,0.011,0.222,0.022,0.332,0.034
						C45.728,98.898,45.657,98.612,45.555,98.41z"/>
				</g>
				<path style="fill:#B52126;" d="M56.755,95.988c0.129-0.017,0.179-0.112,0.146-0.235c-0.014-0.051-0.04-0.099-0.068-0.142
					c-0.084-0.157-0.276-0.282-0.427-0.28c-0.068,0.002-0.105,0.039-0.125,0.091c-0.073,0.066-0.055,0.186-0.011,0.271
					c0.067,0.14,0.196,0.237,0.345,0.284C56.66,95.99,56.708,95.994,56.755,95.988z"/>
				<path style="fill:#B52126;" d="M54.808,94.656c0.045-0.525-1.099-1.247-1.159-0.523C53.603,94.656,54.747,95.378,54.808,94.656z
					"/>
				<path style="fill:#B52126;" d="M52.24,106.488c0.002-0.045-0.093-0.106-0.097-0.044C52.14,106.488,52.234,106.548,52.24,106.488
					z"/>
				<path style="fill:#B52126;" d="M51.484,104.294c0.014-0.176-0.365-0.417-0.389-0.176
					C51.083,104.294,51.464,104.535,51.484,104.294z"/>
			</g>
			<g>
				<g>
					<path style="fill:#B52126;" d="M34.272,74.777c0.091-0.012,0.184-0.034,0.284-0.082c0.159-0.078,0.239-0.189,0.266-0.316
						c0.415-0.4,0.629-0.921,0.309-1.459c-0.589-0.991-1.955-1.555-2.973-0.847c-0.091,0.063-0.165,0.129-0.23,0.197
						c-0.435,0.127-0.815,0.374-0.957,0.809c-0.401,1.233,1.129,1.914,2.084,2.008C33.405,75.124,33.863,75.003,34.272,74.777z"/>
					<path style="fill:#B52126;" d="M37.429,80.459c0.324-0.013,0.437-0.303,0.364-0.586c-0.044-0.168-0.104-0.316-0.173-0.451
						c0.123,0.002,0.199-0.195,0.362-0.341c0.229-0.205,0.483-0.239,0.776-0.233c0.53,0.009,0.879-0.064,1.181-0.538
						c0.322-0.512-0.377-1.226-0.902-1.207c-0.244,0.012-0.486,0.017-0.722-0.011c-0.006-0.011-0.013-0.021-0.018-0.032
						c0.263-0.661-0.909-1.673-1.506-1.214c-0.135,0.102-0.279,0.168-0.431,0.239c-0.023,0.007-0.047,0.011-0.072,0.021
						c-0.42-0.358-0.952-0.552-1.288-0.04c-0.193,0.295-0.085,0.629,0.119,0.898c0.054,0.068,0.108,0.133,0.163,0.191
						c0,0.004-0.002,0.008-0.004,0.009c-0.1,0.163-0.227,0.311-0.333,0.468c-0.203,0.293-0.222,0.538-0.171,0.885
						c0.052,0.349,0.441,0.729,0.756,0.849c0.157,0.061,0.32,0.116,0.483,0.167c0.091,0.031,0.182,0.059,0.272,0.087l0,0
						c0.062,0.104,0.133,0.209,0.219,0.307C36.741,80.194,37.044,80.474,37.429,80.459z"/>
					<path style="fill:#B52126;" d="M42.078,83.181c0.216-0.166,0.099-0.474-0.053-0.708c-0.008-0.03-0.019-0.059-0.03-0.087
						c-0.224-0.563-0.851-1.018-1.461-1.035c-0.53-0.015-0.972,0.349-0.864,0.898c0.11,0.576,0.705,0.991,1.235,1.135
						C41.306,83.492,41.75,83.437,42.078,83.181z"/>
					<path style="fill:#B52126;" d="M33.519,82.664c0.256-0.25,0.307-0.547,0.233-0.837c0.009-0.047,0.015-0.095,0.017-0.138
						c-0.002-0.011,0-0.025-0.002-0.036c-0.026-0.168-0.026-0.188-0.006-0.053c0.042-0.364-0.38-0.754-0.684-0.874
						c-0.199-0.078-0.391-0.095-0.593-0.068c-0.212-0.03-0.405,0.025-0.54,0.186c-0.076,0.059-0.087,0.059-0.032-0.002
						c-0.155,0.042-0.326,0.132-0.425,0.257c-0.144,0.189-0.149,0.387-0.104,0.612C31.543,82.505,32.831,83.331,33.519,82.664z"/>
					<path style="fill:#B52126;" d="M29.179,78.572c0.066-0.337-0.439-0.911-0.779-0.633c-0.024,0.019-0.043,0.045-0.061,0.07
						c-0.099-0.074-0.232-0.129-0.343-0.084c-0.131,0.051-0.115,0.191-0.066,0.307c0.038,0.239,0.28,0.487,0.468,0.57
						C28.646,78.916,29.114,78.901,29.179,78.572z"/>
					<path style="fill:#B52126;" d="M24.485,77.632c0.026-0.01,0.054-0.021,0.082-0.03c0.206-0.072,0.401-0.127,0.572-0.275
						c0.234-0.203,0.194-0.688,0.065-0.928c-0.115-0.216-0.269-0.387-0.458-0.536c-0.068-0.231-0.242-0.434-0.432-0.563
						c-0.181-0.122-0.683-0.307-0.766,0.041c-0.05,0.205-0.078,0.343-0.226,0.504c-0.079,0.093-0.083,0.218-0.042,0.345
						c-0.163-0.059-0.345-0.07-0.466,0.053c-0.224,0.235,0.012,0.629,0.201,0.816c0,0.006,0,0.009,0.002,0.015
						c0.002,0.104-0.012,0.21-0.025,0.314c-0.035,0.373,0.445,0.864,0.802,0.9c0.171,0.015,0.337,0.034,0.508,0.049
						C24.749,78.382,24.641,77.943,24.485,77.632z"/>
				</g>
				<path style="fill:#B52126;" d="M41.61,73.932c0.191-0.026,0.272-0.17,0.224-0.358c-0.022-0.08-0.063-0.152-0.108-0.218
					c-0.125-0.241-0.42-0.432-0.649-0.428c-0.103,0.002-0.165,0.061-0.195,0.138c-0.111,0.101-0.079,0.282-0.016,0.415
					c0.108,0.214,0.302,0.362,0.529,0.434C41.465,73.936,41.536,73.943,41.61,73.932z"/>
				<path style="fill:#B52126;" d="M38.63,71.897c0.07-0.803-1.679-1.906-1.772-0.801C36.791,71.897,38.539,73,38.63,71.897z"/>
				<path style="fill:#B52126;" d="M34.705,89.983c0.007-0.066-0.141-0.161-0.148-0.066C34.551,89.984,34.697,90.076,34.705,89.983z
					"/>
				<path style="fill:#B52126;" d="M33.551,86.628c0.022-0.267-0.561-0.635-0.591-0.267C32.938,86.629,33.519,86.997,33.551,86.628z
					"/>
			</g>
			<g>
				<g>
					<path style="fill:#B52126;" d="M41.544,115.587c0.059-0.008,0.119-0.021,0.186-0.055c0.104-0.051,0.155-0.123,0.173-0.207
						c0.271-0.261,0.413-0.603,0.204-0.953c-0.39-0.65-1.28-1.02-1.945-0.555c-0.06,0.039-0.108,0.083-0.151,0.129
						c-0.284,0.085-0.534,0.244-0.626,0.53c-0.263,0.807,0.737,1.25,1.362,1.313C40.978,115.813,41.275,115.735,41.544,115.587z"/>
					<path style="fill:#B52126;" d="M43.609,119.302c0.21-0.007,0.284-0.199,0.234-0.382c-0.026-0.11-0.066-0.206-0.111-0.296
						c0.081,0.002,0.131-0.127,0.236-0.223c0.151-0.133,0.314-0.154,0.508-0.152c0.347,0.006,0.576-0.042,0.771-0.351
						c0.212-0.335-0.247-0.803-0.59-0.79c-0.159,0.008-0.318,0.01-0.47-0.007c-0.006-0.008-0.009-0.015-0.013-0.021
						c0.172-0.432-0.596-1.095-0.985-0.795c-0.087,0.066-0.18,0.111-0.282,0.155c-0.016,0.007-0.03,0.009-0.046,0.013
						c-0.276-0.233-0.625-0.358-0.845-0.025c-0.125,0.193-0.055,0.413,0.079,0.587c0.034,0.045,0.07,0.087,0.106,0.127
						c0,0.002,0,0.004-0.002,0.006c-0.066,0.106-0.147,0.203-0.218,0.305c-0.133,0.193-0.146,0.352-0.111,0.578
						c0.032,0.229,0.289,0.479,0.492,0.557c0.106,0.039,0.212,0.076,0.316,0.11c0.061,0.018,0.119,0.036,0.18,0.057l0,0
						c0.04,0.066,0.088,0.136,0.145,0.199C43.158,119.128,43.355,119.314,43.609,119.302z"/>
					<path style="fill:#B52126;" d="M46.649,121.084c0.141-0.11,0.065-0.309-0.034-0.462c-0.007-0.019-0.013-0.04-0.021-0.057
						c-0.146-0.369-0.557-0.667-0.955-0.678c-0.347-0.009-0.637,0.229-0.566,0.589c0.072,0.375,0.461,0.648,0.808,0.741
						C46.142,121.286,46.434,121.25,46.649,121.084z"/>
					<path style="fill:#B52126;" d="M41.052,120.746c0.166-0.163,0.2-0.358,0.151-0.549c0.006-0.03,0.009-0.061,0.011-0.091
						c0-0.008-0.002-0.014-0.002-0.021c-0.017-0.112-0.017-0.123-0.003-0.038c0.026-0.237-0.247-0.493-0.447-0.568
						c-0.129-0.051-0.256-0.063-0.389-0.045c-0.139-0.021-0.266,0.015-0.354,0.123c-0.049,0.036-0.057,0.036-0.021-0.004
						c-0.101,0.026-0.212,0.087-0.275,0.169c-0.095,0.125-0.1,0.254-0.07,0.401C39.756,120.642,40.601,121.182,41.052,120.746z"/>
					<path style="fill:#B52126;" d="M38.21,118.067c0.043-0.22-0.286-0.595-0.508-0.413c-0.018,0.015-0.028,0.03-0.042,0.047
						c-0.063-0.049-0.151-0.085-0.222-0.055c-0.087,0.034-0.078,0.125-0.044,0.201c0.023,0.155,0.183,0.316,0.306,0.373
						C37.863,118.293,38.17,118.285,38.21,118.067z"/>
					<path style="fill:#B52126;" d="M35.141,117.454c0.019-0.006,0.036-0.014,0.053-0.019c0.135-0.049,0.266-0.084,0.377-0.18
						c0.149-0.132,0.127-0.451,0.042-0.606c-0.078-0.142-0.177-0.254-0.302-0.353c-0.043-0.15-0.157-0.282-0.282-0.368
						c-0.117-0.08-0.445-0.201-0.5,0.026c-0.032,0.135-0.049,0.224-0.146,0.33c-0.054,0.061-0.055,0.142-0.028,0.225
						c-0.106-0.036-0.228-0.045-0.306,0.036c-0.146,0.153,0.008,0.413,0.133,0.534c0,0.004-0.002,0.006,0,0.01
						c0.002,0.068-0.01,0.138-0.015,0.206c-0.025,0.243,0.289,0.563,0.524,0.587c0.11,0.012,0.222,0.021,0.332,0.032
						C35.313,117.944,35.244,117.658,35.141,117.454z"/>
				</g>
				<path style="fill:#B52126;" d="M46.343,115.034c0.127-0.019,0.178-0.112,0.146-0.235c-0.013-0.051-0.039-0.099-0.069-0.144
					c-0.082-0.155-0.275-0.28-0.427-0.277c-0.068,0-0.106,0.038-0.125,0.087c-0.074,0.066-0.055,0.186-0.012,0.271
					c0.07,0.142,0.197,0.238,0.346,0.284C46.246,115.036,46.296,115.04,46.343,115.034z"/>
				<path style="fill:#B52126;" d="M44.396,113.702c0.043-0.525-1.1-1.247-1.162-0.525C43.19,113.704,44.333,114.424,44.396,113.702
					z"/>
				<path style="fill:#B52126;" d="M41.826,125.534c0.004-0.045-0.093-0.106-0.097-0.045
					C41.726,125.534,41.82,125.594,41.826,125.534z"/>
				<path style="fill:#B52126;" d="M41.07,123.338c0.016-0.174-0.365-0.415-0.387-0.174C40.669,123.338,41.05,123.579,41.07,123.338
					z"/>
			</g>
			<g>
				<g>
					<path style="fill:#B52126;" d="M40.47,134.03c-0.036,0.049-0.066,0.104-0.089,0.174c-0.032,0.11-0.016,0.199,0.034,0.268
						c0.004,0.377,0.157,0.714,0.557,0.801c0.737,0.161,1.616-0.235,1.733-1.038c0.012-0.072,0.014-0.137,0.01-0.201
						c0.133-0.263,0.188-0.555,0.044-0.816c-0.41-0.745-1.418-0.32-1.892,0.095C40.693,133.463,40.546,133.736,40.47,134.03z"/>
					<path style="fill:#B52126;" d="M32.966,133.994c-0.014,0.176,0.186,0.256,0.363,0.29c0.018,0.01,0.036,0.017,0.053,0.025
						c0.37,0.146,0.87,0.049,1.148-0.233c0.246-0.247,0.27-0.62-0.042-0.815c-0.321-0.205-0.786-0.106-1.091,0.081
						C33.164,133.484,32.994,133.721,32.966,133.994z"/>
					<path style="fill:#B52126;" d="M37.044,130.143c0.006,0.233,0.126,0.39,0.296,0.485c0.02,0.025,0.04,0.049,0.06,0.07
						c0.004,0.005,0.012,0.009,0.018,0.015c0.091,0.063,0.1,0.07,0.028,0.022c0.153,0.18,0.528,0.153,0.722,0.063
						c0.127-0.058,0.22-0.144,0.299-0.252c0.108-0.087,0.169-0.203,0.152-0.341c0.005-0.063,0.011-0.068,0.017-0.015
						c0.048-0.091,0.08-0.214,0.064-0.314c-0.024-0.155-0.117-0.247-0.244-0.326C38.007,129.27,37.033,129.516,37.044,130.143z"/>
					<path style="fill:#B52126;" d="M40.941,129.904c0.131,0.182,0.629,0.199,0.649-0.089c0.002-0.021,0-0.04-0.005-0.061
						c0.077-0.013,0.163-0.051,0.191-0.125c0.035-0.085-0.038-0.142-0.116-0.168c-0.131-0.089-0.357-0.085-0.482-0.034
						C41.016,129.495,40.813,129.724,40.941,129.904z"/>
					<path style="fill:#B52126;" d="M43.489,128.085c-0.009,0.019-0.015,0.036-0.022,0.053c-0.057,0.13-0.117,0.25-0.125,0.396
						c-0.008,0.203,0.24,0.401,0.413,0.447c0.155,0.04,0.305,0.045,0.462,0.021c0.141,0.07,0.316,0.079,0.463,0.045
						c0.138-0.03,0.45-0.186,0.321-0.383c-0.075-0.113-0.128-0.189-0.142-0.331c-0.008-0.081-0.065-0.138-0.143-0.174
						c0.101-0.053,0.187-0.134,0.181-0.248c-0.012-0.212-0.306-0.274-0.478-0.269c-0.004-0.004-0.004-0.004-0.01-0.007
						c-0.051-0.044-0.093-0.101-0.138-0.15c-0.161-0.186-0.61-0.176-0.787-0.021c-0.083,0.074-0.168,0.146-0.252,0.22
						C43.014,127.877,43.27,128.021,43.489,128.085z"/>
				</g>
				<path style="fill:#B52126;" d="M37.588,137.91c-0.073,0.104-0.039,0.206,0.072,0.265c0.047,0.026,0.099,0.04,0.151,0.047
					c0.171,0.047,0.395-0.006,0.495-0.119c0.045-0.049,0.043-0.105,0.021-0.152c0.004-0.1-0.097-0.169-0.188-0.195
					c-0.153-0.046-0.311-0.019-0.445,0.059C37.65,137.838,37.616,137.87,37.588,137.91z"/>
				<path style="fill:#B52126;" d="M39.894,137.4c0.351,0.39,1.66,0.051,1.175-0.487C40.716,136.523,39.407,136.86,39.894,137.4z"/>
				<path style="fill:#B52126;" d="M33.022,127.432c0.03,0.034,0.14,0.006,0.099-0.042
					C33.093,127.358,32.982,127.386,33.022,127.432z"/>
				<path style="fill:#B52126;" d="M35.141,128.383c0.117,0.131,0.553,0.017,0.392-0.163
					C35.415,128.089,34.979,128.203,35.141,128.383z"/>
			</g>
		</g>
	</g>
	<path style="fill:#B52126;" d="M69.595,227.891c-1.612-10.117-1.59-20.341-3.253-30.432c-0.334-2.021-0.711-4.037-1.08-6.053
		c0.129-3.02-0.139-5.826-1.08-8.819c-0.095-0.303-0.195-0.652-0.309-1.008c-0.036-3.727,0.897-7.251-1.326-10.624
		c-1.643-2.49-3.859-4.257-5.517-6.635c-0.048-0.099-0.103-0.191-0.148-0.29c-0.071-0.557-0.292-1.108-0.557-1.587
		c-0.036-0.061-0.087-0.066-0.143-0.047c-1.688-4.378-2.351-9.274-3.654-13.707c-2.097-7.139-6.925-12.938-10.861-19.165
		c-1.561-2.472-2.255-5.585-4.19-7.813c-2.475-2.846-4.202-5.333-5.661-8.802c-3.259-7.752-4.642-16.185-7.58-24.011
		c-2.535-6.752,2.737-13.686,2.039-20.565c-0.368-3.617-0.556-7.343-1.304-10.907c-0.949-4.511-1.741-8.368-1.685-13.037
		c0.048-4.013-0.072-8.115-0.631-12.091c-0.464-3.308-1.651-6.045-2.872-9.128c-0.673-1.695-1.477-3.118-2.489-4.632
		c-1.149-1.716-1.828-3.755-3.05-5.373c-1.094-1.443-2.299-2.795-3.335-4.282C9.932,7.474,9.524,5.89,8.648,4.448
		c-0.26-0.426-0.826,0.08-0.974,0.349C7.158,5.732,7.06,6.378,7.013,7.489c-0.09,2.158-0.743,4.064-1.366,6.11
		c-0.055,0.182,0.008,0.246,0.104,0.246C2.89,26.093,2.71,39.021,3.202,51.505c0.306,7.728,1.567,15.435,3.365,22.948
		c1.852,7.735,5.481,14.95,8.47,22.289c6.104,14.984,12.533,29.763,19.777,44.229c6.881,13.733,16.309,26.605,19.249,41.896
		c0.083,5.07,0.646,9.912,2.466,9.259c2.007-0.72,2.565-4.161,3.065-5.824c0.177-0.587,1.447-5.932,2.027-5.13
		c0.262,0.362,0.493,0.822,0.697,1.326c0.121,2.762,0.58,5.477,1.08,8.25c0.138,0.766,0.265,1.527,0.392,2.289
		c-0.174,2.482-0.517,4.984-0.498,7.358c0.044,5.578-0.057,11.075-0.21,16.657c-0.127,4.549-0.241,9.063,0.167,13.604
		c0.317,3.539,1,8.347,3.834,10.805c1.189,1.034,2.645-0.839,2.931-1.747C71.212,235.931,70.202,231.724,69.595,227.891z"/>
	<path style="fill:#B52126;" d="M32.519,133.588c-5.011-10.527-10.081-21.036-14.606-31.786
		C13.529,91.385,9.231,80.601,7.106,69.459c-1.038-5.443-1.507-10.918-1.258-16.458c0.272-6.017,0.835-12.018,1.055-18.037
		C7.257,25.28,6.306,15.518,7.225,5.861C7.088,6.344,7.041,6.837,7.013,7.489c-0.09,2.158-0.743,4.064-1.366,6.11
		c-0.055,0.182,0.008,0.246,0.104,0.246C2.89,26.093,2.71,39.021,3.202,51.505c0.306,7.728,1.567,15.435,3.365,22.948
		c1.852,7.735,5.481,14.95,8.47,22.289c6.104,14.984,12.533,29.763,19.777,44.229c1.753,3.497,3.672,6.941,5.606,10.382
		C37.92,145.386,35.311,139.458,32.519,133.588z"/>
	<path style="fill:#B52126;" d="M69.295,233.415c-0.792,2.077-2.318,2.516-3.777,0.639c-1.054-1.36-1.796-2.9-2.354-4.518
		c0.026,0.375,0.052,0.746,0.086,1.121c0.317,3.539,1,8.347,3.834,10.805c1.189,1.034,2.645-0.839,2.931-1.747
		c0.94-2.968,0.52-6.199,0-9.304C69.859,231.439,69.661,232.455,69.295,233.415z"/>
</g>
</svg>
