<?xml version="1.0" ?><svg viewBox="0 0 48 48" xmlns="http://www.w3.org/2000/svg"><defs><style>.cls-1{fill:#7c7d7d;}.cls-2{fill:#919191;}.cls-3{fill:#dad7e5;}.cls-4{fill:#edebf2;}.cls-5{fill:#9dcc6b;}.cls-6{fill:#b5e08c;}.cls-7{fill:#231f20;}</style></defs><title/><g data-name="Shield of Virus" id="Shield_of_Virus"><path class="cls-1" d="M43,7V21.08A27.19,27.19,0,0,1,24,47,27.18,27.18,0,0,1,5,21.08V7L24,1Z"/><path class="cls-2" d="M43,7V21.08A27.16,27.16,0,0,1,29.2,44.73,27.17,27.17,0,0,1,11,19.08v-14L24,1Z"/><path class="cls-3" d="M39,9.93V21.08A23.1,23.1,0,0,1,24,42.77,23.09,23.09,0,0,1,9,21.08V9.93L24,5.19Z"/><path class="cls-4" d="M39,9.93V21.08a23.1,23.1,0,0,1-8.8,18.2c-.39.17-.79.34-1.2.49A23.09,23.09,0,0,1,14,18.08V8.35L24,5.19Z"/><path class="cls-5" d="M31,23a7,7,0,1,1-10.85-5.85A7,7,0,0,1,31,23Z"/><path class="cls-6" d="M31,23a6.92,6.92,0,0,1-1.15,3.85A6.92,6.92,0,0,1,26,28a7,7,0,0,1-5.85-10.85A7,7,0,0,1,31,23Z"/><path class="cls-7" d="M23,14c0,1.92.36.49-2.36,1.75l-.56-.91a1,1,0,0,0-1.7,1.06l.57.91c-1.84,1.5-.76,1.7-2.25.84a1,1,0,0,0-1,1.73c1.49.86.69,0,.37,2.62H15a1,1,0,0,0,0,2h1.07c.33,2.66,1.17,1.73-.37,2.62a1,1,0,0,0,.5,1.87c.34,0,.44-.1,1.43-.67,1.43,1.89,1.64.86.75,2.28a1,1,0,0,0,.85,1.53c.65,0,.81-.41,1.41-1.38C23.36,31.51,23,30.08,23,32a1,1,0,0,0,2,0c0-1.92-.36-.49,2.36-1.75.44.71.69,1.38,1.41,1.38a1,1,0,0,0,.85-1.53c-.89-1.42-.68-.39.75-2.28,1.05.6,1.1.67,1.43.67a1,1,0,0,0,.5-1.87c-1.49-.86-.69,0-.37-2.62H33a1,1,0,0,0,0-2H31.93c-.33-2.66-1.17-1.73.37-2.62a1,1,0,0,0-1-1.73c-1.49.86-.41.66-2.25-.84l.57-.91a1,1,0,0,0-1.7-1.06l-.56.91C24.64,14.49,25,15.92,25,14A1,1,0,0,0,23,14Zm5,4.52A6,6,0,0,1,29.91,22a1,1,0,0,0,0,2A6,6,0,0,1,28,27.48l-.13-.21a1,1,0,0,0-1.7,1.06l.14.21a5.91,5.91,0,0,1-4.58,0l.14-.21a1,1,0,0,0-1.7-1.06l-.13.21A6,6,0,0,1,18.09,24a1,1,0,0,0,0-2A6,6,0,0,1,20,18.52c.9,1.44,2.58.36,1.69-1.06a5.91,5.91,0,0,1,4.58,0C25.39,18.88,27.09,20,28,18.52Z"/><path class="cls-7" d="M22,21a1,1,0,0,0,0,2A1,1,0,0,0,22,21Z"/><path class="cls-7" d="M24,25a1,1,0,0,0,0,2A1,1,0,0,0,24,25Z"/><path class="cls-7" d="M25,22a1,1,0,0,0,2,0A1,1,0,0,0,25,22Z"/><path class="cls-7" d="M43.3,6.05C22.66-.47,24.14-.09,23.7.05l-19,6A1,1,0,0,0,4,7V21.08A28.08,28.08,0,0,0,23.7,48a1,1,0,0,0,.6,0A28.08,28.08,0,0,0,44,21.08V7A1,1,0,0,0,43.3,6.05Zm-1.3,15A26.09,26.09,0,0,1,24,46,26.09,26.09,0,0,1,6,21.08V7.73L24,2.05,42,7.73Z"/><path class="cls-7" d="M23.7,4.24,8.7,9a1,1,0,0,0-.7.95V21.08A24,24,0,0,0,23.65,43.71C25.4,44.36,40,37.12,40,21.08V9.93A1,1,0,0,0,39.3,9C22.9,3.8,24.13,4.11,23.7,4.24ZM38,10.66V21.08A22,22,0,0,1,24,41.7,22,22,0,0,1,10,21.08V10.66L24,6.24Z"/></g></svg>