<?xml version="1.0" encoding="utf-8"?>
<!-- Generator: Adobe Illustrator 27.5.0, SVG Export Plug-In . SVG Version: 6.00 Build 0)  -->
<svg version="1.1" id="Capa_2" xmlns="http://www.w3.org/2000/svg" xmlns:xlink="http://www.w3.org/1999/xlink" x="0px" y="0px"
	 viewBox="0 0 1898 2372" style="enable-background:new 0 0 1898 2372;" xml:space="preserve">
<path style="fill:#B0D7F3;" d="M949.766,943.63c56.489,1.803,117.787-16.001,161.299-38.894
	c13.554-7.14,25.658-15.172,36.479-23.929l1.339-14.781l12.494-137.272c-63.787,67.345-198.832,76.83-211.612,77.584V943.63z"/>
<path style="fill:#B0D7F3;" d="M1095.224,657.858c20.973-10.988,59.46-39.77,77.923-57.787l14.781-162.094l0.837-9.092
	L951.09,237.173l-1.325,1.068v456.947C1001.535,696.8,1055.338,678.798,1095.224,657.858z"/>
<path style="fill:#B0D7F3;" d="M949.766,1325.983h157.239l26.93-295.521l2.845-31.236c-75.013,45.029-175.778,46.203-187.013,46.191
	V1325.983z"/>
<path style="fill:#F0F8FB;" d="M949.766,943.63v101.787c11.236,0.012,112-1.162,187.013-46.191l1.952-21.475l7.865-86.402
	l0.948-10.542c-10.821,8.757-22.925,16.789-36.479,23.929C1067.553,927.629,1006.255,945.433,949.766,943.63z"/>
<path style="fill:#F0F8FB;" d="M949.766,695.188v111.149c12.78-0.754,147.825-10.239,211.612-77.584l1.06-11.435l10.71-117.248
	c-18.463,18.017-56.95,46.799-77.923,57.787C1055.338,678.798,1001.535,696.8,949.766,695.188z"/>
<path style="fill:#C84817;" d="M851.326,1810.587c15.973-13.312,34.044-23.508,53.383-31.066
	c20.622-8.059,42.041-14.185,61.996-23.889c19.755-9.608,37.762-22.769,50.183-41.159c13.933-20.629,21.078-44.735,21.642-69.556
	c0.384-16.934-1.746-33.674-5.494-50.096H839.409l-20.979,253.362C827.493,1834.215,838.324,1821.423,851.326,1810.587z"/>
<path style="fill:#B83818;" d="M951.065,1798.501c55.132,0,104.06,26.555,134.696,67.571l-23.196-271.251h-29.529
	c3.748,16.422,5.878,33.163,5.494,50.096c-0.563,24.821-7.709,48.928-21.642,69.556c-12.421,18.39-30.427,31.551-50.183,41.159
	c-19.955,9.704-41.375,15.83-61.996,23.889c-19.339,7.557-37.41,17.754-53.383,31.066c-13.002,10.836-23.833,23.628-32.896,37.596
	v0.001l-1.412,17.054C847.693,1824.703,896.313,1798.501,951.065,1798.501z"/>
<path style="fill:#F7A531;" d="M951.065,1798.501c-54.752,0-103.372,26.202-134.047,66.737
	c-21.313,28.164-33.971,63.24-33.971,101.281c0,92.794,75.224,168.018,168.018,168.018s168.018-75.225,168.018-168.018
	c0-37.662-12.393-72.428-33.322-100.447l0,0C1055.125,1825.056,1006.197,1798.501,951.065,1798.501z"/>
<path style="fill:#E4670F;" d="M1049.922,1954.947c0,50.44-40.89,91.33-91.33,91.33c-50.44,0-91.33-40.89-91.33-91.33
	c0-44.112,31.275-80.917,72.861-89.458c-58.576,3.772-104.953,52.344-104.953,111.872c0,61.989,50.252,112.24,112.24,112.24
	c61.988,0,112.24-50.251,112.24-112.24c0-23.32-7.12-44.973-19.293-62.921C1046.423,1926.66,1049.922,1940.38,1049.922,1954.947z"/>
<polygon style="fill:#86B9E0;" points="1102.158,1379.574 1107.04,1325.983 949.766,1325.983 949.766,238.23 713.39,428.885 
	778.569,1086.425 807.627,1379.574 "/>
<path style="fill:#F7A531;" d="M556.107,1594.821h785.154c19.283,0,34.914-15.632,34.914-34.914v-145.418
	c0-19.283-15.631-34.915-34.914-34.915H556.107c-19.283,0-34.915,15.632-34.915,34.915v145.418
	C521.192,1579.189,536.823,1594.821,556.107,1594.821z"/>
<path style="fill:#FFD911;" d="M867.262,1954.947c0,50.44,40.89,91.33,91.33,91.33c50.44,0,91.33-40.89,91.33-91.33
	c0-14.567-3.499-28.287-9.565-40.507c-14.938-30.091-45.892-50.823-81.765-50.823c-6.328,0-12.505,0.646-18.47,1.871
	C898.537,1874.03,867.262,1910.834,867.262,1954.947z"/>
<path style="fill:#FFFFFF;" d="M962,1922.155c11.46,9.477,18.027,23.689,21.89,38.05c2.318,8.618,4.076,17.985,10.356,24.326
	c4.977,5.024,12.671,7.373,19.476,5.45c6.02-1.701,10.867-6.477,13.637-12.086c2.77-5.608,3.647-11.986,3.616-18.241
	c-0.009-1.817-0.093-3.627-0.246-5.428c-1.55-18.144-10.251-35.387-22.256-49.198c-7.46-8.582-16.398-16.151-26.951-20.387
	c-10.865-4.362-32-6.961-38.171,6.332c-2.097,4.518-1.961,9.969,0.568,14.288C948.113,1912.426,955.817,1917.043,962,1922.155z"/>
<path style="fill:#ED6F17;" d="M1262.855,1585.059c54.047,0,97.861-43.814,97.861-97.862s-43.814-97.862-97.861-97.862
	c-54.048,0-97.862,43.814-97.862,97.862S1208.807,1585.059,1262.855,1585.059z"/>
<path style="fill:#CE5C16;" d="M1260.726,1558.886c36.105,0,65.374-29.27,65.374-65.374c0-13.583-4.147-26.194-11.237-36.647
	c3.534,7.117,5.571,15.108,5.571,23.593c0,29.378-23.817,53.194-53.195,53.194c-29.379,0-53.195-23.816-53.195-53.194
	c0-25.693,18.216-47.13,42.437-52.105c-34.117,2.198-61.129,30.488-61.129,65.16
	C1195.351,1529.617,1224.62,1558.886,1260.726,1558.886z"/>
<path style="fill:#FFD911;" d="M1214.043,1480.458c0,29.378,23.817,53.194,53.195,53.194c29.378,0,53.195-23.816,53.195-53.194
	c0-8.485-2.038-16.476-5.571-23.593c-8.7-17.526-26.73-29.603-47.624-29.603c-3.686,0-7.284,0.376-10.758,1.09
	C1232.259,1433.328,1214.043,1454.765,1214.043,1480.458z"/>
<path style="fill:#ED6F17;" d="M632.858,1585.059c54.047,0,97.862-43.814,97.862-97.862s-43.814-97.862-97.862-97.862
	c-54.048,0-97.862,43.814-97.862,97.862S578.81,1585.059,632.858,1585.059z"/>
<path style="fill:#CE5C16;" d="M630.729,1558.886c36.105,0,65.374-29.27,65.374-65.374c0-13.583-4.147-26.195-11.237-36.648
	c3.534,7.117,5.571,15.108,5.571,23.593c0,29.378-23.816,53.194-53.195,53.194c-29.379,0-53.195-23.816-53.195-53.194
	c0-25.693,18.216-47.13,42.437-52.105c-34.117,2.198-61.129,30.488-61.129,65.16
	C565.355,1529.617,594.624,1558.886,630.729,1558.886z"/>
<path style="fill:#FFD911;" d="M584.047,1480.458c0,29.378,23.816,53.194,53.195,53.194c29.378,0,53.195-23.816,53.195-53.194
	c0-8.485-2.038-16.477-5.571-23.593c-8.701-17.526-26.73-29.602-47.624-29.602c-3.686,0-7.284,0.376-10.758,1.09
	C602.263,1433.328,584.047,1454.765,584.047,1480.458z"/>
<path style="fill:#ED6F17;" d="M799.74,1522.271h297.888c19.29,0,35.073-15.784,35.073-35.074c0-19.291-15.783-35.074-35.073-35.074
	H799.74c-19.291,0-35.074,15.783-35.074,35.074C764.665,1506.488,780.448,1522.271,799.74,1522.271z"/>
<path style="fill:#FFFFFF;" d="M1266.344,1459.562c7.841,4.636,13.177,12.606,16.891,20.924c2.228,4.992,4.189,10.491,8.597,13.726
	c3.492,2.563,8.374,3.246,12.307,1.431c3.479-1.606,5.954-4.96,7.093-8.619c1.138-3.659,1.058-7.602,0.44-11.384
	c-0.18-1.098-0.403-2.185-0.669-3.261c-2.676-10.829-9.593-20.428-18.18-27.633c-5.336-4.477-11.469-8.201-18.26-9.752
	c-6.992-1.598-20.029-1.145-22.488,7.489c-0.836,2.935-0.232,6.219,1.713,8.591
	C1257.01,1455.006,1262.114,1457.061,1266.344,1459.562z"/>
<path style="fill:#FFFFFF;" d="M636.871,1459.562c7.841,4.636,13.177,12.606,16.89,20.924c2.228,4.992,4.19,10.491,8.597,13.726
	c3.492,2.563,8.374,3.246,12.307,1.431c3.479-1.606,5.955-4.96,7.093-8.619c1.138-3.659,1.058-7.602,0.44-11.384
	c-0.18-1.098-0.403-2.185-0.669-3.261c-2.676-10.829-9.593-20.428-18.18-27.633c-5.336-4.477-11.469-8.201-18.26-9.752
	c-6.992-1.598-20.028-1.145-22.488,7.489c-0.836,2.935-0.232,6.219,1.712,8.591C627.537,1455.006,632.641,1457.061,636.871,1459.562
	z"/>
</svg>
