<svg xmlns="http://www.w3.org/2000/svg" viewBox="0 0 145.56 225.33"><defs><style>.a{fill:#25272d;opacity:0.12;}.b{fill:#f2ec18;}.c{fill:#8e8e8e;}.d{fill:#ce9d13;}.e{fill:#d6bc50;}.f{fill:#f2e8bb;}.g{fill:#474644;}.h{fill:#aa264f;}.i{fill:#f9f5c0;}</style></defs><title>Element 15</title><path class="a" d="M143.44,33.69,105.17,46.11,49.87,170.88l-14.1-8.3-4.9,3,3.31,7.93,15,9.56-.66,2.39c-2.73,6.59-7.94,19.48-7.94,19.48l-9.89,2.43L27,214.14,30.91,223l11.25,2.35,8.29-3.2V212l11.94-20.58L80,202.64l6.14-2.81-.55-7.92-12-7.07L143,75.18Z"/><polygon class="b" points="145.56 0 103.13 8.88 28.14 138.47 50.84 156.89 140.3 44.4 145.56 0"/><path class="c" d="M28.51,147.78c-.67,1-12.91,23.79-12.91,23.79L4.72,173,0,179.86l3.12,9.92L14.9,193.6l9.25-2.47,1.17-10.84L45.21,152l-9.42-7.07Z"/><polygon class="d" points="38.01 145.05 118.92 30.26 140.3 4.93 121.88 33.22 40.64 147.35 38.01 145.05"/><polygon class="e" points="145.56 0 140.3 44.4 50.84 156.89 46.89 154.26 135.37 41.44 145.56 0"/><polygon class="e" points="145.56 0 103.13 8.88 25.84 142.42 29.46 145.05 106.75 13.81 145.56 0"/><polygon class="c" points="15.31 125.64 65.31 162.81 64.98 171.36 58.07 173.66 12.36 137.16 9.72 128.28 15.31 125.64"/><polygon class="f" points="88 45.39 106.75 13.81 136.35 3.62 109.05 17.1 88 45.39"/><polygon class="g" points="64.98 171.36 57.41 169.39 14.99 136.17 9.72 128.28 12.36 137.16 37.92 157.57 22.88 177.94 21.23 189.12 15.31 190.77 3.12 189.78 14.9 193.6 24.15 191.13 25.32 180.29 40.5 159.63 58.07 173.66 64.98 171.36"/><path class="c" d="M29.46,143.73c-.33,1-4.28,10.85-4.28,10.85l9.54,5.92L42,153.6Z"/><polygon class="h" points="14 175.64 6.43 175.97 4.13 179.91 5.45 185.5 13.67 187.81 17.62 185.5 18.93 177.28 14 175.64"/><polygon class="i" points="143.66 2.11 135.37 41.44 65.95 129.41 128.84 38.4 143.66 2.11"/></svg>