<?xml version="1.0" encoding="utf-8"?>
<!-- Generator: Adobe Illustrator 27.5.0, SVG Export Plug-In . SVG Version: 6.00 Build 0)  -->
<svg version="1.1" id="Layer_1" xmlns="http://www.w3.org/2000/svg" xmlns:xlink="http://www.w3.org/1999/xlink" x="0px" y="0px"
	 viewBox="0 0 185.43 160.342" style="enable-background:new 0 0 185.43 160.342;" xml:space="preserve">
<g>
	<g>
		<path style="fill:#213A07;" d="M159.331,125.089c-0.025-3.524-0.249-7.047-0.621-10.551c-0.346-3.257-0.872-6.494-1.875-9.621
			c-0.512-1.596-1.128-3.174-1.916-4.657c-0.564-1.062-1.27-2.223-2.345-2.833c-2.053-1.164-3.215,1.056-3.871,2.799
			c-0.456,0.834-0.904,1.671-1.366,2.502c-0.911,1.638-1.909,3.23-2.866,4.841c-1.942,3.269-3.852,6.556-5.768,9.84
			c-3.651,6.257-7.634,12.383-12.118,18.08c-2.323,2.951-4.904,5.761-8.08,7.811c-0.139,0.09-0.372,0.365-0.156,0.52
			c1.181,0.846,2.61,1.129,4.006,1.419c1.726,0.359,3.459,0.695,5.212,0.899c3.364,0.391,6.823,0.435,10.207,0.413
			c3.455-0.023,6.896-0.384,10.333-0.717c1.698-0.164,3.391-0.38,5.057-0.756c1.223-0.277,2.292-0.723,3.072-1.746
			c0.785-1.029,1.163-2.34,1.52-3.564c0.457-1.565,0.772-3.169,1.005-4.782C159.231,131.712,159.354,128.393,159.331,125.089z"/>
		<path style="fill:#004442;" d="M156.276,141.921c-0.469,1.113-1.195,2.009-2.385,2.369c-1.538,0.465-3.194,0.65-4.787,0.822
			c-3.119,0.338-6.274,0.668-9.41,0.768c-3.585,0.115-7.232,0.025-10.807-0.281c-1.712-0.146-3.407-0.436-5.091-0.772
			c-1.516-0.302-3.199-0.519-4.542-1.343c5.498-3.738,9.432-9.522,13.124-14.931c4.242-6.213,7.894-12.778,11.653-19.287
			c1.074-1.861,2.201-3.698,3.233-5.582c0.439-0.801,0.85-1.616,1.263-2.429c0.08-0.003,0.169-0.045,0.196-0.124
			c0.3-0.894,0.82-1.94,1.408-2.673c0.299-0.373,0.676-0.746,1.188-0.714c0.596,0.038,1.113,0.513,1.492,0.933
			c1.694,1.878,2.633,4.603,3.359,6.971c0.875,2.857,1.367,5.803,1.695,8.768c0.348,3.154,0.576,6.322,0.649,9.495
			c0.072,3.114,0.01,6.241-0.316,9.34C157.892,136.159,157.418,139.21,156.276,141.921z"/>
		<path style="opacity:0.64;fill:#005D5B;" d="M126.44,142.623c7.65-0.21,15.359-0.751,22.712-2.995
			c-3.377-1.306-7.277-0.737-10.536-2.442c-0.229-0.12-0.2-0.548,0.077-0.587c2.371-0.338,4.682-1.038,6.866-2.018
			c3.985-1.788,7.563-4.416,10.679-7.46c0.79-0.772,1.552-1.574,2.285-2.401c-0.004-0.269-0.003-0.539-0.009-0.808
			c-0.073-3.173-0.301-6.341-0.649-9.495c-0.327-2.965-0.82-5.911-1.695-8.769c-0.725-2.368-1.665-5.094-3.359-6.971
			c-0.379-0.42-0.895-0.895-1.492-0.933c-0.513-0.033-0.889,0.341-1.188,0.714c-0.588,0.733-1.108,1.779-1.408,2.673
			c-0.026,0.079-0.116,0.12-0.196,0.123c-0.413,0.814-0.824,1.629-1.263,2.43c-1.033,1.884-2.159,3.721-3.233,5.582
			c-3.758,6.509-7.411,13.075-11.653,19.287c-3.46,5.068-7.132,10.466-12.105,14.202C122.329,142.715,124.385,142.68,126.44,142.623
			z"/>
		<path style="opacity:0.64;fill:#005D5B;" d="M119.51,143.4c-0.03-0.01-0.053-0.027-0.076-0.043
			c-0.06,0.042-0.118,0.087-0.179,0.128c1.343,0.824,3.026,1.041,4.542,1.343c0.374,0.075,0.749,0.146,1.124,0.215
			C123.145,144.424,121.273,144.023,119.51,143.4z"/>
	</g>
	<path d="M53.071,6.874c-7.719-2.03-16.356-1.818-23.303,2.471c-0.263,0.162-0.515,0.339-0.769,0.513
		c-5.101,2.764-5.794,10.124-5.019,15.367c0.422,2.854,1.119,6.492,3.969,7.866c3.49,1.681,7.819,0.534,11.318-0.469
		c4.923-1.411,9.619-3.506,14.253-5.661c4.304-2.001,8.688-4.145,11.956-7.694C71.444,12.786,57.316,7.99,53.071,6.874z"/>
	<path style="fill:#004442;" d="M62.34,21.299c-1.847,1.462-3.897,2.643-6.004,3.687c-4.258,2.109-8.631,4.095-13.098,5.72
		c-2.258,0.821-4.56,1.538-6.908,2.055c-1.726,0.38-3.474,0.63-5.243,0.447c-1.597-0.166-3.292-0.692-4.332-1.991
		c-0.866-1.081-1.245-2.634-1.569-3.955c-1.297-5.285-1.236-12.436,3.118-16.362c2.986-2.163,6.355-3.64,9.997-4.309
		c3.741-0.688,7.597-0.591,11.334,0.075c3.724,0.664,7.356,1.931,10.718,3.662c1.32,0.68,2.622,1.441,3.758,2.404
		c1.124,0.953,2.309,2.304,2.122,3.891C65.999,18.613,63.794,20.148,62.34,21.299z"/>
	<g>
		<path style="fill:#B07150;" d="M9.102,94.375c0.255,1.29,0.505,2.579,0.795,3.861c0.571,2.522,1.25,5.021,2.075,7.472
			c1.649,4.902,3.941,9.599,7.047,13.749c2.952,3.945,6.588,7.556,11.059,9.731c2.393,1.164,4.92,2.151,7.432,3.024
			c2.604,0.905,5.318,1.629,8.077,1.824c1.927,0.136,3.917,0.186,5.833-0.082c1.803-0.252,3.802-0.789,5.031-2.229
			c0.289-0.339,0.49-0.715,0.645-1.107c-0.009-0.721-0.021-1.438-0.042-2.156c0.024-0.715,0.047-1.431,0.026-2.145
			c-0.064-2.183-0.498-4.353-1.114-6.444c-0.611-2.074-1.417-4.087-2.246-6.081c-0.389-0.936-0.787-1.845-1.256-2.713
			c-0.626-1.393-1.324-2.752-2.152-4.036c-2.582-4.003-6.635-6.773-10.889-8.758c-4.747-2.215-9.801-3.672-14.947-4.606
			c-2.843-0.516-5.71-0.89-8.581-1.212c-1.451-0.162-2.906-0.344-4.367-0.368c-0.682-0.011-1.934-0.177-2.437,0.443
			C8.697,93.029,8.997,93.84,9.102,94.375z"/>
		<path style="fill:#FBC19F;" d="M9.668,92.93c0.266-0.327,1.031-0.263,1.388-0.27c0.704-0.012,1.407,0.022,2.108,0.078
			c5.333,0.422,10.738,1.173,15.932,2.467c4.59,1.143,9.199,2.786,13.28,5.205c1.971,1.168,3.829,2.563,5.393,4.245
			c1.678,1.806,2.934,3.922,3.978,6.145c1.132,2.413,2.004,4.935,2.88,7.449c0.429,1.231,0.868,2.474,1.21,3.736
			c0.001,0.01,0.003,0.02,0.004,0.031c0.163,1.185,0.303,2.374,0.509,3.552c0.025,0.145,0.048,0.29,0.072,0.436
			c-0.001,0.244,0.002,0.488-0.016,0.735c-0.004,0.053,0.076,0.083,0.108,0.05c0.062,0.948,0.072,1.902-0.056,2.837
			c-0.425,1.543-1.62,2.547-3.21,3.093c-1.795,0.616-3.774,0.716-5.658,0.712c-2.331-0.005-4.617-0.251-6.878-0.836
			c-2.543-0.658-5.002-1.602-7.428-2.603c-2.292-0.946-4.493-1.954-6.5-3.429c-3.824-2.812-6.976-6.603-9.451-10.629
			c-2.579-4.196-4.422-8.817-5.753-13.549c-0.666-2.368-1.212-4.768-1.68-7.182C9.808,94.717,9.3,93.381,9.668,92.93z"/>
		<path style="fill:#FBC19F;" d="M26.393,124.962c-3.341-3.477-6.346-7.302-8.768-11.477c-1.201-2.071-2.254-4.227-3.139-6.452
			c-0.863-2.17-1.528-4.414-2.155-6.661c-0.438-1.57-0.968-3.507-0.19-5.058c0.913-1.821,3.295-1.936,5.058-2.184
			c0.008-0.001,0.016-0.002,0.023-0.003c-1.355-0.153-2.709-0.281-4.059-0.388c-0.701-0.055-1.404-0.09-2.108-0.078
			c-0.357,0.006-1.122-0.057-1.388,0.269c-0.368,0.451,0.14,1.788,0.234,2.272c0.468,2.414,1.014,4.815,1.68,7.182
			c1.331,4.732,3.174,9.353,5.753,13.549c2.475,4.026,5.627,7.817,9.451,10.629c1.071,0.788,2.199,1.44,3.365,2.022
			C28.863,127.414,27.599,126.217,26.393,124.962z"/>
		<path style="opacity:0.67;fill:#FBC19F;" d="M56.514,126.789c-0.032,0.033-0.112,0.003-0.108-0.05
			c0.018-0.246,0.015-0.49,0.016-0.735c-0.024-0.145-0.047-0.291-0.072-0.436c-0.206-1.178-0.346-2.368-0.509-3.552
			c-0.001-0.01-0.003-0.021-0.004-0.031c-0.341-1.262-0.781-2.505-1.21-3.736c-0.876-2.514-1.748-5.036-2.88-7.449
			c-1.043-2.224-2.3-4.34-3.978-6.145c-1.564-1.682-3.421-3.077-5.393-4.245c-3.857-2.286-8.184-3.873-12.522-5.006
			c1.629,2.061,2.818,4.504,3.587,6.962c0.08,0.255-0.168,0.433-0.395,0.395c-5.884-0.971-11.418-3.448-17.326-4.288
			c2.023,2.441,3.627,5.195,5.079,8.006c1.461,2.83,2.784,5.73,4.271,8.547c1.503,2.849,3.231,5.501,5.239,8.02
			c2.305,2.892,4.784,5.654,7.108,8.531c1.086,0.379,2.181,0.729,3.295,1.017c2.261,0.585,4.547,0.832,6.878,0.836
			c1.883,0.003,3.863-0.097,5.658-0.712c1.59-0.546,2.785-1.55,3.21-3.093C56.586,128.691,56.576,127.737,56.514,126.789z"/>
		<path style="opacity:0.67;fill:#FBC19F;" d="M56.514,126.789c-0.032,0.033-0.112,0.003-0.108-0.05
			c0.018-0.246,0.015-0.49,0.016-0.735c-0.024-0.145-0.047-0.291-0.072-0.436c-0.206-1.178-0.346-2.368-0.509-3.552
			c-0.001-0.01-0.003-0.021-0.004-0.031c-0.341-1.262-0.781-2.505-1.21-3.736c-0.876-2.514-1.748-5.036-2.88-7.449
			c-1.043-2.224-2.3-4.34-3.978-6.145c-1.564-1.682-3.421-3.077-5.393-4.245c-2.852-1.69-5.964-2.995-9.144-4.022
			c0.332,0.869,0.578,1.776,0.781,2.669c0.366,1.609,0.581,3.245,0.85,4.872c0.039,0.237-0.14,0.462-0.395,0.395
			c-3.146-0.82-6.301-1.608-9.476-2.309c0.398,2.728,0.86,5.449,1.533,8.123c0.64,2.544,1.462,5.06,2.653,7.403
			c0.532,1.045,1.092,2.029,1.926,2.861c0.799,0.797,1.67,1.52,2.446,2.34c0.66,0.696,1.437,1.579,1.387,2.602
			c-0.033,0.674-0.334,1.285-0.579,1.902c-0.27,0.681-0.504,1.38-0.761,2.067c-0.087,0.233-0.172,0.467-0.258,0.7
			c2.408,0.993,4.85,1.929,7.375,2.582c2.261,0.585,4.547,0.832,6.878,0.836c1.883,0.003,3.863-0.097,5.658-0.712
			c1.59-0.546,2.785-1.55,3.21-3.093C56.586,128.691,56.576,127.737,56.514,126.789z"/>
		<path style="fill:#B07150;" d="M14.136,97.631c1.775,0.186,3.403,0.813,5.027,1.526c1.715,0.753,3.45,1.46,5.161,2.224
			c3.283,1.466,6.521,3.059,9.675,4.786c5.278,2.891,10.204,6.61,12.49,12.379c0.789,1.99,1.465,4.079,1.788,6.199
			c0.231,1.517,0.6,3.336-0.054,4.794c-0.073,0.164-0.385-0.003-0.356-0.157c0.273-1.451,0.036-2.959-0.201-4.402
			c-1.647,1.083-3.883,1.141-5.786,1.197c-2.251,0.066-4.504-0.235-6.606-1.068c-1.861-0.738-3.553-1.862-5.007-3.234
			c-1.495-1.412-2.643-3.047-3.811-4.725c-0.104-0.149,0.12-0.188,0.205-0.082c2.313,2.886,5.016,5.898,8.512,7.323
			c1.953,0.795,4.044,1.114,6.145,1.066c1.026-0.023,2.05-0.112,3.069-0.229c1.133-0.13,2.193-0.314,3.133-0.997
			c-0.331-1.67-0.862-3.281-1.463-4.876c-1.063-2.819-2.729-5.324-4.911-7.401c-2.065-1.965-4.47-3.52-6.95-4.906
			c-2.812-1.571-5.711-3.01-8.626-4.377c-1.868-0.876-3.778-1.659-5.644-2.536c-1.835-0.863-3.715-1.949-5.748-2.243
			C14.019,97.867,13.921,97.609,14.136,97.631z"/>
	</g>
	<path style="fill:#B07150;" d="M132.385,84.765c-0.662-3.869-1.58-7.691-2.666-11.462c-0.952-3.308-2.011-6.582-3.371-9.747
		c-4.996-11.627-13.626-21.663-25.116-27.216c-6.359-3.073-13.463-4.891-20.492-5.464C73.68,30.3,66.524,31.083,59.791,33.3
		c-6.732,2.217-13.17,5.764-18.285,10.707c-4.897,4.732-8.86,10.706-10.595,17.338c-0.421,1.607-0.639,3.257-0.723,4.914
		c-0.002,0.035,0.052,0.02,0.056-0.006c0.027-0.168,0.07-0.332,0.1-0.499c-0.651,3.565-0.87,7.214-0.574,10.828
		c0.306,3.726,1.207,7.389,2.274,10.963c1.057,3.541,2.304,7.022,3.476,10.526c1.168,3.494,2.344,7.02,2.714,10.703
		c0.702,6.998-0.773,14.146,1.44,20.97c3.584,11.055,13.759,19.056,23.859,23.959c3.162,1.535,6.43,2.909,9.876,3.656
		c3.497,0.758,7.086,0.758,10.595,0.079c5.622-1.088,11.099-2.906,16.265-5.377c4.656-2.227,9.121-5.054,13.046-8.461
		c0.053-0.021,0.104-0.049,0.156-0.072c1.686-1.693,3.41-3.347,5.063-5.073c2.47-2.58,4.488-5.538,6.493-8.482
		c0.326-0.543,0.654-1.085,0.965-1.64c3.554-6.359,5.817-13.298,6.853-20.502C133.947,100.168,133.689,92.384,132.385,84.765z"/>
	<path style="fill:#FBC19F;" d="M127.585,123.53c-1.333,2.977-2.931,5.807-4.718,8.515c0.047-0.085,0.088-0.174,0.135-0.26
		c-0.315,0.463-0.642,0.916-0.984,1.358c-0.913,1.38-1.896,2.712-2.996,3.957c-0.815,0.922-1.684,1.785-2.576,2.623
		c-3.751,3.967-8.179,7.281-12.938,9.94c-4.979,2.781-10.337,4.879-15.859,6.299c-3.158,0.813-6.372,1.448-9.65,1.313
		c-3.414-0.14-6.721-1.032-9.88-2.3c-5.591-2.243-10.915-5.289-15.594-9.09c-4.444-3.61-8.397-7.997-10.874-13.2
		c-1.238-2.601-2.049-5.375-2.369-8.239c-0.401-3.595-0.23-7.222-0.271-10.831c-0.041-3.617-0.42-7.096-1.391-10.585
		c-0.948-3.406-2.105-6.748-3.23-10.099c-2.329-6.934-4.446-14-4.154-21.395c0.128-3.232,0.641-6.448,1.477-9.572
		c0.755-2.82,1.712-5.689,3.275-8.175c0.722-1.148,1.55-2.196,2.59-3.073c0.035-0.029-0.01-0.057-0.04-0.033
		c-1.055,0.849-1.96,1.852-2.742,2.957c1.197-2.084,2.571-4.07,4.112-5.916c4.547-5.445,10.429-9.497,16.936-12.265
		c13.168-5.603,28.092-5.15,41.339-0.031c11.716,4.528,20.949,13.647,26.637,24.741c3.161,6.166,5.177,12.879,6.72,19.614
		c1.686,7.359,2.536,14.921,2.074,22.471C132.167,109.576,130.588,116.822,127.585,123.53z"/>
	<path style="fill:#FBC19F;" d="M56.646,117.881c0.422,0.113,0.86,0.164,1.301,0.159c2.265-0.028,5.244-1.532,5.563-3.84
		C62.032,116.376,59.234,117.434,56.646,117.881z"/>
	<path style="fill:#FBC19F;" d="M66.694,133.194c-2.356,0.114-4.756-0.015-7.056-0.567c1.029,0.414,2.118,0.677,3.216,0.839
		c2.936,0.431,5.977,0.172,8.877-0.391c2.439-0.474,4.855-1.189,7.133-2.195c-0.96,0.295-1.924,0.576-2.897,0.826
		C72.934,132.483,69.825,133.043,66.694,133.194z"/>
	<path style="fill:#FBC19F;" d="M64.845,136.296c1.068,0.674,2.393,0.91,3.658,0.865c0.783-0.028,1.582-0.166,2.344-0.413
		C68.841,136.839,66.835,136.658,64.845,136.296z"/>
	<path style="opacity:0.75;fill:#FBC19F;" d="M43.652,89.655c3.775,0.338,7.56,1.545,10.656,3.767
		c-1.093-2.653-2.611-5.149-4.557-7.259c-1.911-2.071-4.263-3.774-6.946-4.686c-2.131-0.724-4.521-0.991-6.765-0.925
		c-1.599,0.047-3.611,0.346-4.774,1.543c0.602,2.804,1.41,5.572,2.294,8.315c1.521-0.474,3.12-0.71,4.704-0.821
		C40.056,89.465,41.862,89.495,43.652,89.655z"/>
	<path style="opacity:0.75;fill:#FBC19F;" d="M108.848,75.431c-0.857-1.541-2.081-2.86-3.507-3.89
		c-2.625-1.898-5.854-2.911-9.068-3.141c-3.738-0.268-7.496,0.633-10.951,2.011c-2.008,0.801-3.94,1.814-5.722,3.038
		c-1.626,1.117-3.214,2.432-4.42,4.005c-1.065,1.389-1.931,2.976-2.488,4.64c-0.286,1.373-0.443,2.792-0.41,4.198
		c0.101,0.422,0.258,0.832,0.488,1.22c0.007,0.012,0.007,0.024,0.013,0.037c1.463-1.273,3.167-2.3,4.84-3.212
		c2.604-1.418,5.312-2.706,8.062-3.811c3.16-1.27,6.449-2.248,9.837-2.662c2.691-0.329,5.503-0.438,8.199-0.117
		c2.316,0.276,4.653,0.934,6.498,2.39C110.096,78.49,109.655,76.882,108.848,75.431z"/>
	<path style="fill:#FBC19F;" d="M50.526,142.536c-4.039-4.098-7.586-8.94-9.208-14.531c-1.911-6.586-0.665-13.549-1.46-20.272
		c-0.211-1.782-0.643-3.508-1.053-5.251c-0.414-1.757-0.824-3.515-1.276-5.263c-0.939-3.638-2.195-7.154-3.447-10.693
		c-0.62-1.755-1.228-3.515-1.765-5.297c-0.527-1.751-1.08-3.504-1.421-5.303c-0.3-1.586-0.467-3.199-0.552-4.81
		c-0.013-0.24-0.021-0.481-0.03-0.721c-0.026,0.38-0.064,0.76-0.079,1.14c-0.292,7.395,1.825,14.461,4.154,21.395
		c1.125,3.351,2.282,6.693,3.23,10.099c0.971,3.49,1.351,6.969,1.391,10.586c0.04,3.609-0.13,7.236,0.271,10.831
		c0.319,2.864,1.131,5.638,2.369,8.239c2.477,5.203,6.431,9.59,10.874,13.2c2.29,1.86,4.736,3.537,7.291,5.03
		C56.668,148.178,53.457,145.51,50.526,142.536z"/>
	<path style="opacity:0.67;fill:#FBC19F;" d="M59.995,125.719c3.275,0.834,6.763,0.032,9.829-1.224
		c-0.989-1.136-2.097-2.164-3.345-3.013c-1.176-0.799-2.454-1.447-3.792-1.927c-1.18-0.423-2.398-0.689-3.621-0.951
		c-1.025-0.219-2.16-0.467-3.207-0.257c-0.454,0.091-0.846,0.279-1.098,0.679c-0.17,0.269-0.369,0.593-0.332,0.927
		c0.039,0.343,0.325,0.542,0.606,0.692c0.365,0.195,0.04,0.749-0.324,0.555c-0.291-0.155-0.527-0.365-0.689-0.611
		c0.051,0.335,0.154,0.671,0.317,1.001C55.371,123.678,57.797,125.159,59.995,125.719z"/>
	<path style="opacity:0.67;fill:#FBC19F;" d="M37.771,98.752c0.046,2.76,0.662,5.532,1.632,8.11
		c0.452,1.202,0.999,2.378,1.689,3.463c0.51,0.803,1.121,1.622,1.918,2.163c1.114,0.756,2.495,1.149,3.795,1.436
		c1.613,0.357,3.267,0.521,4.917,0.564c1.652,0.043,3.316-0.032,4.951-0.277c1.016-0.152,2.049-0.356,3.028-0.698
		c0.083-1.157-0.109-2.354-0.339-3.465c-0.357-1.722-0.896-3.408-1.532-5.046c-1.117-2.876-2.656-5.594-4.703-7.915
		c-2.112-2.395-4.955-4.413-8.195-4.817c-2.292-0.286-4.878,0.283-6.445,1.972C37.864,95.632,37.748,97.341,37.771,98.752z"/>
	<path style="opacity:0.67;fill:#FBC19F;" d="M102.851,86.929c-3.424-3.526-8.277-6.153-13.294-6.001
		c-4.115,0.124-7.978,2.281-10.071,5.842c-1.962,3.339-2.426,7.379-2.373,11.184c0.048,3.431,0.537,6.846,1.255,10.2
		c2.709,0.517,5.48,0.663,8.236,0.555c4.981-0.195,9.978-1.154,14.746-2.595c1.895-0.573,3.779-1.269,5.482-2.289
		c0.754-0.452,1.502-0.991,2.118-1.639c-0.003-0.058-0.003-0.115-0.006-0.173C108.622,96.528,106.725,90.919,102.851,86.929z"/>
	<path style="opacity:0.67;fill:#FBC19F;" d="M37.266,96.43c-0.372,1.26-0.397,2.605-0.431,3.91c0,0.009,0,0.018-0.001,0.028
		c0.267,0.866,0.527,1.735,0.771,2.609c-0.372-1.779-0.553-3.603-0.455-5.399C37.171,97.203,37.213,96.817,37.266,96.43z"/>
	<path style="opacity:0.67;fill:#FBC19F;" d="M75.782,141.618c-1.607,0.264-3.439,0.342-5.011-0.24
		c0.327,0.805,0.856,1.523,1.564,2.08c2.161,1.701,5.34,1.645,7.366-0.234c1.108-1.027,1.806-2.396,2.219-3.856
		C80.062,140.508,77.92,141.267,75.782,141.618z"/>
	<path style="opacity:0.67;fill:#FBC19F;" d="M69.668,133.308c-4.856,0.383-9.834-0.042-14.454-1.614
		c2.133,1.367,4.471,2.408,6.908,3.107c5.906,1.693,12.35,1.434,18.118-0.669c4.586-1.672,8.663-4.573,11.585-8.434
		c-1.576,1.063-3.221,2.026-4.928,2.866C81.527,131.204,75.634,132.838,69.668,133.308z"/>
	<path style="opacity:0.67;fill:#FBC19F;" d="M130.54,79.783c-1.543-6.735-3.559-13.449-6.72-19.614
		c-5.688-11.094-14.921-20.213-26.637-24.741c-13.246-5.119-28.171-5.572-41.339,0.031c-6.506,2.768-12.389,6.82-16.936,12.265
		c-1.541,1.846-2.915,3.832-4.112,5.916c0.782-1.105,1.686-2.108,2.742-2.957c0.03-0.024,0.074,0.004,0.04,0.033
		c-1.04,0.877-1.869,1.925-2.59,3.073c-1.563,2.486-2.52,5.355-3.275,8.175c-0.836,3.123-1.349,6.34-1.477,9.572
		c-0.292,7.395,1.825,14.461,4.154,21.395c0.101,0.301,0.202,0.602,0.304,0.902c0.278-0.197,0.551-0.4,0.815-0.612
		c2.792-2.247,5.014-5.162,7.064-8.075c0.964-1.37,1.924-2.752,2.828-4.162c1.19-1.857,2.222-3.877,2.472-6.098
		c0.033-0.294,0.43-0.465,0.599-0.162c0.989,1.778,2.061,3.51,3.221,5.181c2.242,3.232,4.823,6.283,7.876,8.779
		c2.717,2.221,5.92,3.992,9.417,4.521c-0.06-0.071-0.124-0.138-0.183-0.21c-2.038-2.479-3.491-5.392-4.488-8.432
		c-1.086-3.307-1.642-6.785-1.784-10.259c-0.145-3.555,0.153-7.134,0.89-10.615c0.714-3.37,1.854-6.673,3.513-9.698
		c1.53-2.79,3.53-5.353,6.041-7.325c0.175-0.137,0.481-0.119,0.537,0.142c0.155,0.719,0.304,1.438,0.454,2.158
		c0.56,2.688,1.136,5.4,2.248,7.924c1.207,2.74,3.02,5.116,5.08,7.27c2.061,2.155,4.368,4.059,6.778,5.808
		c2.407,1.746,4.938,3.305,7.4,4.97c4.878,3.298,9.62,7.024,13.025,11.892c3.203,4.579,4.632,10.076,5.098,15.585
		c0.184,2.173,0.224,4.349,0.181,6.525c0.016,0.635,0.026,1.27,0.024,1.903c-0.016,3.777-0.34,7.573-0.928,11.303
		c-1.174,7.438-5.041,14.383-10.133,19.854c-5.335,5.731-12.364,10.011-19.914,12.099c-2.071,0.573-4.193,0.964-6.334,1.15
		c-1.833,0.159-3.659,0.117-5.494,0.041c-0.789-0.033-1.577-0.072-2.365-0.119c3.004,1.16,6.137,1.97,9.367,2.103
		c3.277,0.135,6.491-0.5,9.65-1.313c5.522-1.42,10.879-3.518,15.859-6.3c4.759-2.659,9.186-5.973,12.938-9.94
		c0.893-0.838,1.762-1.701,2.576-2.623c1.101-1.245,2.084-2.577,2.996-3.957c0.342-0.442,0.669-0.895,0.984-1.358
		c-0.047,0.085-0.088,0.175-0.135,0.26c1.787-2.707,3.386-5.538,4.718-8.515c3.003-6.708,4.583-13.953,5.03-21.276
		C133.076,94.703,132.226,87.142,130.54,79.783z"/>
	<path style="fill:#9B3F23;" d="M106.888,76.692c-1.367-3.582-2.453-7.287-5.241-10.071c-2.477-2.473-5.889-3.364-9.315-3.087
		c-3.522,0.284-6.954,1.613-9.987,3.382c-3.053,1.782-6.135,4.164-8.164,7.088c-1.073,1.547-1.664,3.271-2.106,5.086
		c-0.009,0.036-0.017,0.074-0.026,0.11c0.037,0.609,0.084,1.217,0.128,1.815c0.06,0.819,0.065,1.641,0.148,2.458
		c0.027,0.27,0.05,0.641,0.107,1.012c0.087-0.038,0.166-0.092,0.213-0.169c2.563-4.157,6.534-7.375,10.886-9.521
		c4.799-2.365,10.369-3.323,15.618-2.068c1.44,0.344,2.874,0.777,4.184,1.479c0.68,0.365,1.31,0.796,1.816,1.383
		c0.401,0.466,0.757,0.964,1.166,1.423c0,0,0,0.001,0.001,0.001c0,0,0,0,0,0c0.014,0.016,0.027,0.034,0.041,0.05
		C106.558,77.287,106.984,76.943,106.888,76.692z"/>
	<path style="fill:#9B3F23;" d="M52.417,87.021c-0.706-1.336-1.574-2.592-2.533-3.754c-1.643-1.99-3.548-3.894-5.802-5.182
		c-2.206-1.26-4.731-1.672-7.085-0.553c-2.04,0.969-3.307,2.729-3.879,4.884c-0.61,2.298-0.419,4.814,0.388,7.037
		c0.054,0.147,0.345-0.003,0.317-0.141c-0.001-0.006-0.002-0.012-0.004-0.018c0.009-0.009,0.025-0.02,0.03-0.028
		c0.459-0.84,0.479-1.829,0.942-2.668c0.488-0.883,1.333-1.464,2.269-1.793c1.979-0.696,4.155-0.52,6.136,0.062
		c1.984,0.583,3.847,1.522,5.642,2.535c1.597,0.902,3.497,1.904,4.517,3.501C53.118,89.589,52.823,88.287,52.417,87.021z"/>
	<path style="fill:#B07150;" d="M78.909,103.706c0.028,0.292,0.044,0.585,0.079,0.875c0.088,0.712,0.198,1.423,0.352,2.124
		c0.062,0.28,0.12,0.589,0.199,0.89c2.096,0.541,4.295,0.552,6.446,0.357c2.043-0.186,4.073-0.541,6.104-0.823
		c1.756-0.244,3.511-0.509,5.244-0.887c2.751-0.798,5.393-1.902,7.921-3.4c0.81-0.479,3.603-2.072,2.56-3.315
		c-0.019-0.023-0.047-0.02-0.071-0.03c-1.123-6.624-5.836-13.514-12.436-15.563c-3.305-1.026-7.132-0.724-10.081,1.16
		c-2.992,1.913-5.088,5.116-5.972,8.523c-0.642,2.478-0.847,5.116-0.604,7.664C78.727,102.088,78.811,102.899,78.909,103.706z"/>
	<path style="fill:#FFFFFF;" d="M79.728,94.417c0.749-3.16,2.253-6.084,4.848-8.156c2.742-2.19,6.489-2.761,9.844-1.854
		c3.219,0.87,5.97,2.992,8.052,5.549c2.327,2.858,3.92,6.303,4.73,9.891c0.128,1.232-1.731,2.131-2.606,2.638
		c-1.674,0.971-3.376,1.847-5.198,2.512c-4.567,1.667-9.453,2.247-14.284,2.437c-1.276,0.05-2.615,0.262-3.867-0.081
		c-0.417-0.114-0.722-0.294-0.964-0.52c-0.057-0.183-0.112-0.365-0.153-0.546c-0.151-0.657-0.266-1.323-0.358-1.991
		c-0.175-1.258-0.258-2.525-0.304-3.793c-0.049-1.358-0.136-2.739-0.024-4.095C79.498,95.742,79.607,95.079,79.728,94.417z"/>
	<path style="fill:#B07150;" d="M57.375,106.241c-0.473-1.324-1.023-2.617-1.681-3.837c-1.494-2.769-3.487-5.45-6.263-7.039
		c-2.467-1.412-5.751-1.692-8.052,0.23c-1.955,1.634-2.053,4.377-1.975,6.728c0.076,2.294,0.381,4.972,1.507,7.102
		c1.022,2.72,4.502,3.469,7.152,3.882c2.158,0.337,4.312,0.4,6.487,0.245c1.482-0.106,3.125-0.133,4.476-0.832
		C58.515,110.551,57.959,108.392,57.375,106.241z"/>
	<path style="fill:#FFFFFF;" d="M54.558,113.035c-2.06,0.16-4.1,0.099-6.146-0.192c-1.561-0.222-3.175-0.504-4.61-1.187
		c-1.045-0.498-1.852-1.224-2.475-2.132c-0.886-1.803-1.223-3.861-1.374-5.849c-0.173-2.282-0.35-5.219,1.146-7.13
		c1.918-2.449,5.511-2.12,7.937-0.716c2.634,1.525,4.527,4.074,5.962,6.702c0.57,1.043,1.054,2.114,1.486,3.203
		c0.134,0.442,0.259,0.885,0.375,1.324c0.465,1.767,1.213,3.572,1.39,5.404C57.113,112.933,55.738,112.944,54.558,113.035z"/>
	<path style="fill:#B07150;" d="M66.262,126.099c-3.416,0.792-7.209-0.674-9.595-3.165c-0.604-0.63-1.131-1.364-1.466-2.174
		c-0.31-0.752-0.546-1.956,0.043-2.644c0.445-0.519,1.272-0.615,1.9-0.736c0.745-0.144,1.488-0.316,2.209-0.553
		c0.894-0.294,1.798-0.705,2.462-1.391c0.656-0.678,0.914-1.576,1.223-2.442c0.065-0.182-0.198-0.146-0.261-0.03
		c-0.562,1.036-1.051,1.969-2.097,2.591c-0.898,0.534-1.945,0.771-2.953,1c-1.26,0.286-2.906,0.439-3.438,1.838
		c-0.632,1.662,0.474,3.546,1.542,4.748c1.189,1.338,2.804,2.365,4.455,3.035c1.902,0.772,4.099,1.136,6.029,0.28
		C66.555,126.35,66.579,126.026,66.262,126.099z"/>
	<path style="fill:#B07150;" d="M94.307,123.662c-0.036-0.102-0.081-0.199-0.146-0.285c-0.138-0.183-0.331-0.3-0.563-0.312
		c-0.486-0.025-0.933,0.288-1.283,0.594c-0.155,0.073-0.304,0.156-0.45,0.246c-0.005,0.002-0.01,0.002-0.014,0.004
		c0.001,0.001,0.001,0.002,0.002,0.003c-0.07,0.044-0.149,0.071-0.218,0.119c-0.122,0.086-0.229,0.313-0.137,0.455
		c0.098,0.151,0.301,0.171,0.461,0.117c0.1-0.034,0.2-0.063,0.302-0.09c0.009-0.002,0.007-0.002,0.012-0.003
		c0.011-0.002,0.022-0.005,0.033-0.007c0.04-0.008,0.081-0.014,0.121-0.02c0.027-0.004,0.053-0.004,0.08-0.007
		c-0.708,1.016-1.475,1.958-2.406,2.809c-1.143,1.044-2.396,1.961-3.693,2.803c-2.271,1.473-4.764,2.643-7.362,3.407
		c-5.283,1.554-10.921,1.795-16.316,0.692c-2.783-0.569-5.608-1.511-8.004-3.079c0.108-0.119,0.147-0.255-0.02-0.355
		c-0.306-0.183-0.547-0.253-0.908-0.275c-0.234-0.014-0.633,0.187-0.565,0.482c0.11,0.475,0.326,1.57,1.027,1.342
		c0.267-0.087,0.398-0.559,0.005-0.501c0.012-0.002,0.002-0.077-0.018-0.183c2.358,1.231,4.783,2.271,7.379,2.907
		c2.711,0.664,5.498,0.919,8.285,0.85c5.628-0.139,11.394-1.646,16.24-4.547c2.635-1.577,5.512-3.599,7.111-6.321
		c0.027,0.004,0.055,0.005,0.082,0.01c0.181,0.033,0.359,0.09,0.543,0.092c0.148,0.002,0.281-0.034,0.396-0.133
		c0.079-0.069,0.19-0.216,0.151-0.332C94.381,123.987,94.363,123.82,94.307,123.662z"/>
	<path style="fill:#B07150;" d="M80.695,139.323c-1.343,0.567-2.625,1.234-4.022,1.673c-1.42,0.446-2.872,0.652-4.359,0.667
		c-0.186,0.002-0.348,0.292-0.107,0.348c1.464,0.341,3.074-0.009,4.492-0.41c1.454-0.41,3.005-0.972,4.201-1.917
		C81.111,139.517,80.953,139.214,80.695,139.323z"/>
	<path style="fill:#B07150;" d="M90.939,80.932c-7.172,0.116-12.147,6.31-13.379,12.944c-0.353,1.9-0.382,3.8-0.171,5.717
		c0.007,0.063,0.115,0.017,0.112-0.037c-0.285-6.268,2.304-13.419,7.922-16.712c1.675-0.982,3.554-1.504,5.48-1.688
		C91.044,81.144,91.125,80.929,90.939,80.932z"/>
	<path style="fill:#B07150;" d="M57.477,103.323c-1.471-3.631-3.844-7.054-6.997-9.417c-2.732-2.047-6.312-3.491-9.597-1.88
		c-1.541,0.755-2.655,2.144-2.827,3.873c-0.012,0.115,0.166,0.064,0.184-0.021c0.443-2.088,2.225-3.495,4.259-3.918
		c2.056-0.427,4.103,0.31,5.879,1.318c3.973,2.255,6.759,6.228,8.831,10.196C57.279,103.609,57.533,103.459,57.477,103.323z"/>
	<g>
		<path style="opacity:0.33;fill:#F3735A;" d="M89,113.771c0.006,0.014,0.012,0.028,0.019,0.042c0.164,0.372,0.717,0.03,0.838-0.19
			c0.01-0.018,0.02-0.035,0.029-0.053C90.231,112.945,88.661,113,89,113.771z"/>
		<path style="opacity:0.33;fill:#F3735A;" d="M93.461,113.376c0.001-0.007,0.001-0.014,0.003-0.021
			c0.003-0.015-0.005-0.027-0.004-0.042c0.001,0.003,0.002,0.005,0.003,0.008c-0.002-0.008-0.003-0.016-0.003-0.024
			c0,0.003,0,0.006,0,0.008c0-0.031,0.004-0.063-0.01-0.092c-0.01-0.048-0.036-0.087-0.076-0.117
			c-0.039-0.034-0.084-0.054-0.133-0.061c-0.052-0.017-0.106-0.021-0.161-0.012l-0.117,0.026c-0.082,0.027-0.156,0.069-0.222,0.126
			c-0.028,0.029-0.055,0.058-0.082,0.087c-0.045,0.058-0.074,0.122-0.088,0.194c-0.011,0.09-0.006,0.164,0.036,0.245
			c0.008,0.016,0.028,0.035,0.036,0.046c0.008,0.01,0.024,0.033,0.038,0.044c0.075,0.058,0.113,0.062,0.203,0.083
			c0.036,0,0.073,0,0.109,0c0.061-0.005,0.119-0.022,0.172-0.051c0.04-0.013,0.077-0.034,0.109-0.062
			c0.052-0.032,0.096-0.072,0.132-0.122c0.019-0.031,0.037-0.062,0.056-0.093C93.499,113.486,93.491,113.43,93.461,113.376z"/>
		<path style="opacity:0.33;fill:#F3735A;" d="M94.253,115.99c-0.003-0.014-0.016-0.023-0.023-0.035
			c-0.002-0.005-0.003-0.009-0.005-0.014c0-0.001,0-0.002,0-0.003c0.003,0.003,0.005,0.006,0.008,0.01
			c-0.003-0.004-0.005-0.009-0.007-0.013c0.001-0.002,0-0.004,0.001-0.006c-0.001,0.002-0.001,0.004-0.002,0.006
			c-0.001-0.002-0.003-0.005-0.004-0.007c0.003-0.018,0.013-0.035,0.011-0.053c0.005-0.039-0.004-0.076-0.025-0.111
			c-0.019-0.036-0.047-0.063-0.083-0.079c-0.034-0.024-0.072-0.037-0.115-0.04c-0.03,0-0.06,0-0.09,0
			c-0.068,0.008-0.131,0.029-0.19,0.063c-0.028,0.02-0.057,0.04-0.085,0.06c-0.049,0.041-0.087,0.091-0.114,0.148
			c-0.021,0.046-0.037,0.095-0.047,0.144c-0.002,0.009-0.003,0.019-0.003,0.029c-0.001,0.024-0.005,0.072,0.002,0.104
			c0.007,0.033,0.018,0.065,0.033,0.095c0.028,0.056,0.079,0.088,0.134,0.113c0.033,0.015,0.071,0.021,0.105,0.027
			c0.011,0.002,0.021,0.003,0.032,0.003c0.028,0,0.057,0,0.086,0c0.048-0.004,0.093-0.018,0.135-0.04
			c0.032-0.011,0.06-0.027,0.085-0.048c0.041-0.025,0.075-0.057,0.104-0.095c0.015-0.024,0.029-0.049,0.044-0.073
			c0.008-0.025,0.016-0.05,0.023-0.076C94.272,116.061,94.269,116.024,94.253,115.99z"/>
		<path style="opacity:0.33;fill:#F3735A;" d="M98.955,111.581c-0.024-0.014-0.047-0.028-0.071-0.042
			c-0.059-0.022-0.119-0.029-0.181-0.021c-0.053,0.005-0.104,0.02-0.151,0.045c-0.052,0.019-0.099,0.048-0.14,0.085
			c-0.051,0.044-0.091,0.096-0.12,0.156c-0.025,0.053-0.034,0.109-0.027,0.167c0.008,0.027,0.015,0.053,0.023,0.08
			c0.008,0.023,0.016,0.047,0.024,0.07c0.019,0.035,0.045,0.06,0.08,0.076c0.021,0.017,0.045,0.026,0.072,0.029
			c0.041,0.013,0.083,0.016,0.127,0.009c0.031-0.007,0.061-0.013,0.092-0.02c0.031-0.014,0.061-0.027,0.092-0.041
			c0.045-0.023,0.083-0.054,0.115-0.092c0.033-0.03,0.059-0.067,0.077-0.109c0.013-0.029,0.026-0.058,0.039-0.087
			c0.025-0.053,0.034-0.109,0.027-0.167C99.024,111.664,98.998,111.618,98.955,111.581z"/>
		<path style="opacity:0.33;fill:#F3735A;" d="M106.293,106.537c-0.321-0.031-0.677,0.512-0.251,0.553
			C106.364,107.12,106.72,106.578,106.293,106.537z"/>
		<path style="opacity:0.33;fill:#F3735A;" d="M105.959,111.427l-0.026-0.028c-0.009-0.01-0.019-0.018-0.03-0.026
			c-0.023-0.016-0.046-0.031-0.069-0.047c-0.047-0.037-0.1-0.058-0.159-0.063c-0.032,0-0.064,0-0.096,0
			c-0.072,0.009-0.14,0.031-0.203,0.067c-0.049,0.026-0.091,0.06-0.126,0.102c-0.037,0.034-0.065,0.074-0.086,0.12
			c-0.021,0.04-0.03,0.083-0.027,0.127c-0.005,0.042,0.004,0.082,0.026,0.119c0.029,0.049,0.071,0.084,0.125,0.105
			c0.015,0.009,0.03,0.018,0.045,0.026c0.014,0.008,0.028,0.018,0.043,0.025c0.015,0.007,0.032,0.011,0.047,0.016
			c0.004,0.001,0.008,0.003,0.012,0.004c0.028,0.009,0.057,0.017,0.086,0.022l0.092,0c0.068-0.008,0.132-0.03,0.192-0.064
			c0.016-0.009,0.03-0.019,0.044-0.031c0.043-0.026,0.079-0.06,0.109-0.101c0.018-0.025,0.034-0.052,0.048-0.079
			c0.024-0.051,0.033-0.104,0.026-0.16C106.025,111.507,106,111.463,105.959,111.427z"/>
		<g style="opacity:0.33;">
			<path style="fill:#F3735A;" d="M106.873,112.523c0.001-0.004,0.002-0.089,0.001-0.092c0-0.001,0-0.002,0-0.002
				c0-0.001-0.001-0.002-0.001-0.003c-0.002-0.01-0.022-0.069-0.027-0.078c-0.008-0.014,0.04,0.048-0.026-0.031
				c-0.001-0.002-0.004-0.002-0.005-0.004l0.028,0.033c-0.02-0.037-0.05-0.061-0.085-0.08c0.001,0.001,0.002,0.001,0.003,0.002
				c0,0,0,0,0,0c-0.001-0.001-0.002-0.001-0.003-0.002c-0.005-0.003-0.007-0.009-0.012-0.012c-0.005-0.004-0.013-0.003-0.018-0.006
				c0,0-0.001,0-0.001-0.001c-0.001,0-0.001-0.001-0.002-0.001c0.001,0.001,0.002,0.001,0.003,0.002
				c-0.036-0.022-0.074-0.038-0.118-0.041c-0.019-0.001-0.037-0.001-0.056,0c-0.003-0.001-0.006,0.001-0.01,0
				c-0.008-0.001-0.016-0.001-0.024-0.003c0.004,0.001,0.008,0.002,0.013,0.003c-0.012,0-0.024-0.002-0.036,0.001
				c-0.01,0.002-0.021,0.002-0.031,0.003c-0.02,0-0.039-0.009-0.06-0.007c-0.083,0.01-0.161,0.036-0.234,0.078
				c-0.035,0.025-0.07,0.049-0.105,0.074c-0.06,0.051-0.106,0.112-0.14,0.183c-0.025,0.047-0.035,0.096-0.031,0.147
				c-0.006,0.049,0.004,0.094,0.03,0.138c0.034,0.057,0.082,0.097,0.144,0.121c0.069,0.025,0.139,0.033,0.212,0.024
				c0.009,0,0.019-0.001,0.029-0.002c0.004-0.001,0.009-0.001,0.013-0.002c0.041-0.008,0.083-0.018,0.125-0.027
				c0.009-0.002,0.017-0.005,0.025-0.008c0.004-0.001,0.008-0.003,0.011-0.005c0.038-0.016,0.079-0.034,0.116-0.051
				c0.021-0.01,0.03-0.02,0.056-0.038c0.065-0.046,0.039-0.023,0.092-0.079c0.029-0.024,0.051-0.054,0.067-0.088
				c0.022-0.028,0.036-0.059,0.042-0.093C106.883,112.493,106.87,112.544,106.873,112.523z"/>
			<path style="fill:#F3735A;" d="M106.793,112.286c-0.01-0.006-0.021-0.012-0.031-0.018c0.023,0.009,0.04,0.025,0.054,0.045
				C106.808,112.304,106.8,112.296,106.793,112.286z"/>
			<polygon style="fill:#F3735A;" points="106.789,112.283 106.793,112.286 106.795,112.288 			"/>
		</g>
		<path style="opacity:0.33;fill:#F3735A;" d="M109.243,111.52c-0.48-0.046-1.012,0.764-0.375,0.826
			C109.349,112.392,109.88,111.581,109.243,111.52z"/>
		<path style="opacity:0.33;fill:#F3735A;" d="M100.448,114.237c-0.002-0.007-0.009-0.01-0.011-0.017
			c-0.001-0.013,0.002-0.026-0.001-0.039l-0.02-0.057c-0.015-0.028-0.037-0.049-0.065-0.061c-0.017-0.013-0.036-0.021-0.058-0.023
			c-0.033-0.011-0.067-0.013-0.102-0.008c-0.025,0.006-0.049,0.011-0.074,0.017c-0.025,0.011-0.049,0.022-0.074,0.033
			c-0.036,0.019-0.067,0.044-0.092,0.074c-0.004,0.004-0.005,0.009-0.009,0.013c-0.001,0-0.002,0.001-0.003,0.002
			c-0.005,0.003-0.009,0.006-0.014,0.01c-0.002,0.001-0.003,0.002-0.004,0.002c-0.017,0.008-0.035,0.016-0.039,0.018
			c-0.003,0.002-0.012,0.008-0.018,0.012c-0.009,0.006-0.018,0.012-0.028,0.016c-0.008,0.005-0.013,0.013-0.021,0.018
			c-0.005,0.004-0.014,0.01-0.016,0.012c-0.002,0.002-0.005,0.004-0.007,0.005c0.006-0.004,0.012-0.008,0.018-0.013
			c-0.038,0.025-0.074,0.052-0.102,0.088c-0.025,0.03-0.042,0.063-0.05,0.1c-0.013,0.032-0.017,0.065-0.011,0.1
			c0.007,0.045,0.028,0.082,0.063,0.111c0.008,0.009,0.016,0.017,0.025,0.023c0.001,0.001,0.002,0.001,0.003,0.002
			c0.012,0.008,0.053,0.033,0.066,0.038c0.026,0.006,0.052,0.013,0.078,0.019c0.029,0,0.059,0,0.088,0c0.002,0,0.003,0,0.005,0
			c0.007,0,0.015-0.001,0.022-0.002c0.033-0.006,0.068-0.014,0.101-0.022c0.003-0.001,0.007-0.002,0.01-0.003
			c0.003-0.001,0.006-0.002,0.009-0.003c0.002-0.001,0.003-0.001,0.005-0.002c0.031-0.014,0.063-0.028,0.094-0.042
			c0.028-0.02,0.056-0.039,0.084-0.059c0.003-0.002,0.006-0.005,0.008-0.007c0.024-0.024,0.049-0.05,0.071-0.075
			c0.005-0.005,0.008-0.011,0.012-0.017c0.015-0.025,0.03-0.05,0.045-0.075c0.019-0.037,0.027-0.075,0.024-0.115
			C100.464,114.284,100.46,114.26,100.448,114.237z"/>
		<path style="opacity:0.33;fill:#F3735A;" d="M101.502,115.659c-0.015-0.018-0.03-0.036-0.046-0.054
			c-0.04-0.032-0.086-0.05-0.137-0.055c-0.029-0.006-0.057-0.012-0.086-0.019c-0.061-0.006-0.12,0.001-0.177,0.02
			c-0.03,0.013-0.061,0.027-0.091,0.04c-0.057,0.032-0.105,0.074-0.145,0.125c-0.028,0.033-0.047,0.071-0.056,0.112
			c-0.015,0.036-0.019,0.074-0.013,0.113c0.004,0.039,0.02,0.072,0.048,0.097c0.021,0.032,0.051,0.054,0.088,0.066
			c0.053,0.02,0.108,0.026,0.164,0.019c0.031,0,0.062-0.001,0.092-0.002c0.047-0.004,0.091-0.017,0.132-0.039
			c0.045-0.017,0.086-0.042,0.122-0.075c0.021-0.022,0.041-0.043,0.062-0.065c0.027-0.032,0.045-0.068,0.055-0.108
			c0.011-0.023,0.015-0.048,0.012-0.073C101.529,115.726,101.522,115.691,101.502,115.659z"/>
		<path style="opacity:0.33;fill:#F3735A;" d="M114.962,107.144c-0.007-0.02-0.015-0.041-0.023-0.061
			c-0.002-0.006-0.004-0.011-0.006-0.016c-0.011-0.027-0.034-0.047-0.053-0.067c-0.007-0.007-0.014-0.015-0.021-0.022
			c-0.016-0.017-0.032-0.034-0.049-0.05c-0.03-0.025-0.063-0.041-0.101-0.046c-0.04-0.013-0.08-0.016-0.122-0.009
			c-0.03,0.006-0.059,0.013-0.089,0.02c-0.048,0.014-0.09,0.037-0.129,0.068c-0.028,0.016-0.051,0.036-0.071,0.061
			c-0.032,0.03-0.057,0.065-0.075,0.105c-0.008,0.025-0.015,0.05-0.023,0.075c-0.009,0.05-0.001,0.097,0.023,0.141
			c0.013,0.019,0.026,0.038,0.039,0.057c0.006,0.008,0.012,0.016,0.017,0.025c0.017,0.024,0.033,0.049,0.057,0.065
			c0.005,0.003,0.01,0.007,0.015,0.01c0.019,0.012,0.039,0.024,0.058,0.036c0.047,0.03,0.092,0.063,0.151,0.065
			c0.011,0,0.023,0,0.034,0c0.049,0.005,0.096-0.001,0.143-0.016c0.039-0.012,0.075-0.03,0.106-0.055
			c0.033-0.02,0.061-0.046,0.084-0.078c0.028-0.036,0.047-0.076,0.055-0.121c0.003-0.01,0.006-0.02,0.009-0.03
			C115.006,107.242,114.981,107.194,114.962,107.144z"/>
		<path style="opacity:0.33;fill:#F3735A;" d="M114.102,112.836c-0.349-0.034-0.736,0.556-0.272,0.6
			C114.178,113.47,114.565,112.88,114.102,112.836z"/>
		<path style="opacity:0.33;fill:#F3735A;" d="M112.729,118.624c-0.369-0.035-0.778,0.587-0.288,0.635
			C112.81,119.294,113.219,118.672,112.729,118.624z"/>
		<path style="opacity:0.33;fill:#F3735A;" d="M82.083,112.459c-0.393-0.038-0.828,0.625-0.307,0.676
			C82.169,113.173,82.604,112.509,82.083,112.459z"/>
		<path style="opacity:0.33;fill:#F3735A;" d="M83.895,116.173c-0.317-0.03-0.669,0.506-0.248,0.546
			C83.965,116.749,84.317,116.213,83.895,116.173z"/>
		<path style="opacity:0.33;fill:#F3735A;" d="M85.745,111.724c-0.484-0.047-1.02,0.771-0.378,0.832
			C85.851,112.603,86.387,111.786,85.745,111.724z"/>
		<path style="opacity:0.33;fill:#F3735A;" d="M86.678,115.079c-0.409-0.039-0.861,0.651-0.319,0.703
			C86.768,115.822,87.22,115.132,86.678,115.079z"/>
		<path style="opacity:0.33;fill:#F3735A;" d="M103.568,109.08c-0.03-0.068-0.084-0.128-0.135-0.179
			c-0.015-0.016-0.032-0.03-0.05-0.042c-0.046-0.03-0.093-0.059-0.144-0.081c-0.053-0.022-0.112-0.034-0.167-0.046
			c-0.025-0.005-0.05-0.009-0.076-0.01c-0.027-0.001-0.051,0.009-0.077,0.01c-0.014-0.017-0.027-0.036-0.042-0.052
			c-0.036-0.041-0.076-0.06-0.126-0.088c-0.032-0.008-0.063-0.016-0.095-0.023c-0.055-0.007-0.108-0.003-0.161,0.012
			c-0.095,0.021-0.193,0.064-0.265,0.131c-0.233,0.214-0.385,0.501-0.356,0.823c0.009,0.106,0.047,0.218,0.104,0.307
			c0.076,0.119,0.169,0.195,0.292,0.26c0.129,0.068,0.274,0.082,0.417,0.078c0.082-0.002,0.164-0.023,0.242-0.045
			c0.09-0.026,0.179-0.065,0.258-0.114c0.186-0.117,0.343-0.273,0.409-0.487c0.027-0.088,0.036-0.161,0.029-0.256
			C103.621,109.209,103.595,109.141,103.568,109.08z"/>
		<path style="opacity:0.33;fill:#F3735A;" d="M111.771,104.949c-0.015-0.045-0.017-0.062-0.064-0.098
			c-0.001-0.001-0.003-0.002-0.004-0.003c-0.003-0.003-0.007-0.005-0.01-0.007c-0.007-0.005-0.013-0.009-0.02-0.014
			c-0.034-0.023-0.07-0.044-0.106-0.064c-0.016-0.009-0.024-0.008-0.049-0.014c-0.069-0.017-0.028-0.008-0.044-0.01
			c-0.006-0.001-0.091,0-0.097,0c-0.001,0-0.003,0-0.004,0l-0.003,0.001c-0.001,0-0.001,0-0.001,0c-0.001,0-0.098,0.021-0.099,0.022
			c-0.001,0-0.002,0-0.002,0.001c-0.007,0.002-0.094,0.041-0.1,0.045c-0.004,0.002-0.085,0.059-0.089,0.063
			c-0.026,0.021-0.05,0.046-0.07,0.074c0,0-0.048,0.08-0.048,0.081c0,0-0.026,0.083-0.026,0.083c0,0.002-0.001,0.08-0.001,0.082
			c0,0.001,0.026,0.075,0.026,0.076c0.006,0.01,0.076,0.091,0.026,0.031c0.017,0.02,0.017,0.024,0.03,0.034
			c0.015,0.011,0.054,0.033,0.071,0.042c0.002,0.001,0.003,0.002,0.005,0.002c0.004,0.002,0.008,0.003,0.012,0.005
			c0.014,0.006,0.029,0.01,0.044,0.015l0.077,0.019c0.011,0.002,0.021-0.003,0.031-0.002c0.036,0.007,0.071,0.022,0.108,0.015
			c0.069-0.008,0.133-0.03,0.194-0.064c0.047-0.024,0.087-0.057,0.121-0.097c0.035-0.032,0.063-0.071,0.082-0.115
			c0.024-0.051,0.033-0.105,0.026-0.161C111.782,104.974,111.779,104.974,111.771,104.949z"/>
		<path style="opacity:0.33;fill:#F3735A;" d="M92.505,110.006c-0.012-0.021-0.031-0.037-0.044-0.058l-0.005-0.012
			c-0.001,0.001-0.002,0.002-0.003,0.003c-0.018-0.025-0.031-0.053-0.055-0.072c-0.484-0.377-1.005,0.496-0.601,0.636l-0.005,0.004
			c0.025,0.012,0.054,0.013,0.082,0.019c0.006,0.001,0.008,0.004,0.014,0.004c0.002,0,0.004,0,0.006,0
			c0.031,0.006,0.06,0.017,0.089,0.021C92.236,110.59,92.667,110.294,92.505,110.006z"/>
		<path style="opacity:0.33;fill:#F3735A;" d="M84.766,118.611c-0.041-0.029-0.085-0.059-0.133-0.073
			c-0.037-0.011-0.074-0.006-0.11-0.01c-0.009,0-0.016-0.007-0.025-0.006c-0.006,0-0.012,0.001-0.018,0.002
			c-0.03-0.001-0.058-0.013-0.089-0.008c-0.01,0.002-0.018,0.01-0.028,0.011c-0.027-0.001-0.054-0.002-0.081-0.001
			c-0.053,0.001-0.104,0.014-0.155,0.028c-0.108,0.031-0.195,0.108-0.267,0.19c-0.035,0.039-0.064,0.086-0.084,0.135
			c-0.039,0.095-0.06,0.215-0.029,0.315c0.033,0.108,0.078,0.201,0.145,0.292c0.027,0.046,0.066,0.078,0.116,0.098
			c0.041,0.017,0.082,0.023,0.126,0.02c0.117,0,0.23-0.045,0.318-0.122c0.038-0.034,0.074-0.068,0.111-0.103
			c0.045-0.043,0.092-0.087,0.126-0.14c0.033-0.052,0.063-0.101,0.084-0.159c0.017-0.046,0.032-0.092,0.049-0.137
			c0.027-0.057,0.037-0.117,0.029-0.18C84.841,118.701,84.812,118.651,84.766,118.611z"/>
		<g style="opacity:0.33;">
			<path style="fill:#F3735A;" d="M74.89,114.9c-0.031-0.051-0.077-0.085-0.13-0.11c-0.045-0.026-0.089-0.052-0.142-0.057
				c-0.038,0-0.076,0-0.113,0c-0.085,0.01-0.164,0.037-0.238,0.079c-0.058,0.03-0.107,0.07-0.148,0.119
				c-0.043,0.04-0.077,0.087-0.101,0.141c-0.025,0.047-0.036,0.097-0.031,0.149c-0.006,0.049,0.004,0.096,0.031,0.14
				c0.035,0.058,0.083,0.099,0.146,0.123c0.01,0.005,0.019,0.01,0.03,0.013c0.051,0.021,0.103,0.029,0.157,0.025
				c0.059,0.004,0.118-0.005,0.174-0.026c0.063-0.019,0.12-0.049,0.171-0.09c0.053-0.032,0.099-0.074,0.136-0.125
				c0.019-0.032,0.039-0.064,0.058-0.096c0.03-0.063,0.04-0.128,0.032-0.197C74.911,114.96,74.9,114.93,74.89,114.9z"/>
			<path style="fill:#F3735A;" d="M74.804,114.808c-0.007-0.006-0.017-0.005-0.024-0.01c0.015,0.009,0.031,0.018,0.046,0.027
				C74.818,114.82,74.811,114.814,74.804,114.808z"/>
			<path style="fill:#F3735A;" d="M74.745,114.778c0.006,0.002,0.009,0.01,0.015,0.012c0.006,0.004,0.014,0.004,0.02,0.008
				C74.768,114.791,74.757,114.785,74.745,114.778z"/>
			<polygon style="fill:#F3735A;" points="74.742,114.776 74.745,114.778 74.745,114.777 			"/>
		</g>
		<path style="opacity:0.33;fill:#F3735A;" d="M77.643,112.765c-0.001-0.003-0.003-0.005-0.004-0.008
			c0-0.036,0.005-0.074-0.011-0.107c-0.013-0.057-0.043-0.103-0.091-0.14c-0.019-0.014-0.043-0.014-0.063-0.025
			c-0.02-0.012-0.039-0.023-0.056-0.033c-0.004-0.002-0.007-0.004-0.011-0.007c0.002,0.001,0.003,0.001,0.005,0.001
			c-0.002-0.001-0.004-0.001-0.007-0.002c-0.001-0.001-0.002-0.001-0.002-0.002c-0.026-0.012-0.056-0.016-0.084-0.021
			c0,0,0,0-0.001,0c0,0-0.001,0-0.002,0c-0.01-0.001-0.019-0.006-0.028-0.007c-0.043-0.001-0.085-0.001-0.128,0.001
			c-0.045,0.01-0.09,0.02-0.135,0.03c-0.047,0.014-0.092,0.036-0.135,0.06c-0.043,0.024-0.085,0.052-0.121,0.085
			c-0.032,0.033-0.063,0.067-0.095,0.1c-0.028,0.034-0.05,0.071-0.066,0.11c0.022-0.037,0.044-0.073,0.066-0.11
			c-0.028,0.033-0.051,0.07-0.066,0.11c0,0.001-0.035,0.113-0.035,0.114c0,0.001,0,0.002,0,0.002
			c-0.002,0.012-0.002,0.102-0.001,0.114c0,0.001,0,0.003,0,0.004c0,0.007,0.001,0.014,0.003,0.021
			c0.013,0.078,0.049,0.142,0.11,0.193c0.047,0.04,0.1,0.064,0.159,0.073c0.063,0.02,0.127,0.025,0.193,0.014
			c0.003,0,0.005-0.002,0.007-0.003c0.015,0.004,0.03,0.007,0.046,0.011c0.054,0.007,0.107,0.003,0.159-0.012
			c0.039-0.005,0.076-0.017,0.11-0.037c0.057-0.021,0.108-0.052,0.153-0.093c0.026-0.027,0.052-0.054,0.077-0.082l0.054-0.089
			c0.023-0.044,0.033-0.09,0.029-0.138C77.677,112.849,77.668,112.806,77.643,112.765z"/>
		<path style="opacity:0.33;fill:#F3735A;" d="M77.713,115.169c-0.054-0.07-0.106-0.126-0.194-0.152
			c-0.092-0.027-0.178-0.048-0.274-0.035c-0.091,0.012-0.178,0.043-0.26,0.084c-0.091,0-0.184,0.012-0.264,0.044
			c-0.185,0.073-0.326,0.194-0.456,0.342c-0.016,0.027-0.032,0.054-0.049,0.081c-0.021,0.039-0.03,0.081-0.026,0.124
			c-0.005,0.028-0.001,0.054,0.013,0.079c0.009,0.04,0.03,0.073,0.064,0.099c0.041,0.045,0.085,0.087,0.135,0.121
			c0.063,0.043,0.131,0.084,0.204,0.106c0.176,0.053,0.362,0.05,0.535-0.018c0.208-0.082,0.373-0.212,0.517-0.381
			c0.076-0.09,0.143-0.209,0.12-0.331C77.767,115.276,77.748,115.215,77.713,115.169z"/>
		<path style="opacity:0.33;fill:#F3735A;" d="M67.137,111.951c-0.094-0.04-0.196-0.048-0.297-0.034
			c-0.026-0.018-0.05-0.04-0.077-0.05c-0.087-0.034-0.197-0.025-0.289-0.008c-0.187,0.036-0.368,0.107-0.513,0.234
			c-0.228,0.198-0.37,0.482-0.41,0.779c-0.01,0.06-0.001,0.116,0.027,0.17c0.031,0.052,0.075,0.089,0.132,0.111
			c0.229,0.132,0.487,0.212,0.754,0.191c0.282-0.022,0.533-0.167,0.713-0.381c0.058-0.069,0.106-0.151,0.139-0.235
			c0.031-0.077,0.059-0.162,0.067-0.245C67.405,112.27,67.356,112.044,67.137,111.951z"/>
		<path style="opacity:0.33;fill:#F3735A;" d="M53.731,115.646c-0.041-0.241-0.31-0.406-0.652-0.19
			c-0.115,0.073-0.193,0.157-0.277,0.262c-0.467,0.584,0.634,0.843,0.901,0.221c0.045-0.104,0.081-0.192,0.072-0.308
			C53.76,115.636,53.746,115.641,53.731,115.646z"/>
		<path style="opacity:0.33;fill:#F3735A;" d="M50.228,117.788c-0.02,0.004-0.039,0.008-0.059,0.012
			c-0.266,0.053-0.715,0.466-0.302,0.667c0.015,0.007,0.029,0.014,0.044,0.021C50.5,118.775,50.869,117.661,50.228,117.788z"/>
		<path style="opacity:0.33;fill:#F3735A;" d="M47.515,116.148c-0.01-0.045-0.034-0.083-0.073-0.112
			c-0.052-0.041-0.11-0.064-0.176-0.07c-0.036-0.006-0.072-0.006-0.109,0c-0.07,0.009-0.135,0.034-0.198,0.066
			c0.021-0.009,0.043-0.019,0.064-0.028c-0.001,0.001-0.003,0.001-0.005,0.002c-0.01,0.004-0.039,0.017-0.068,0.029
			c-0.006,0.003-0.014,0.003-0.02,0.007c-0.002,0.002-0.004,0.003-0.006,0.004c-0.004,0.003-0.008,0.005-0.012,0.007
			c-0.001,0.001-0.006,0.003-0.007,0.003c-0.122,0.072-0.238,0.188-0.26,0.335c-0.011,0.062-0.001,0.12,0.028,0.175
			c0.032,0.054,0.077,0.092,0.136,0.115c0.009,0.004,0.088,0.022,0.097,0.024c0.001,0,0.002,0,0.003,0
			c0.006,0,0.079,0.003,0.115-0.001c0.004-0.001,0.007-0.001,0.011-0.002c0.038-0.008,0.076-0.016,0.114-0.025
			c0.038-0.017,0.075-0.033,0.113-0.05c0.034-0.024,0.067-0.047,0.101-0.071c0.031-0.025,0.058-0.053,0.08-0.086
			c0.043-0.055,0.072-0.117,0.085-0.186C47.54,116.236,47.535,116.19,47.515,116.148z"/>
		<g style="opacity:0.33;">
			<polygon style="fill:#F3735A;" points="42.166,118.791 42.166,118.791 42.166,118.791 42.166,118.791 42.166,118.791 			"/>
			<path style="fill:#F3735A;" d="M43.07,118.128c-0.075-0.243-0.211-0.465-0.461-0.561c-0.006-0.002-0.012-0.001-0.018-0.004
				c-0.005-0.003-0.005-0.01-0.01-0.013c-0.051-0.034-0.106-0.068-0.165-0.09c-0.093-0.035-0.183-0.036-0.281-0.032
				c-0.245,0.01-0.498,0.138-0.67,0.309c-0.185,0.183-0.301,0.396-0.373,0.645c-0.049,0.169-0.063,0.365-0.021,0.537
				c0.055,0.224,0.181,0.394,0.387,0.5c0.246,0.126,0.564,0.101,0.821,0.032c0.317-0.085,0.608-0.323,0.739-0.626
				C43.111,118.611,43.139,118.352,43.07,118.128z"/>
		</g>
		<path style="opacity:0.33;fill:#F3735A;" d="M42.668,115.135c-0.009-0.039-0.029-0.071-0.063-0.096l-0.068-0.04
			c-0.027-0.007-0.055-0.014-0.082-0.02c-0.03,0-0.061,0-0.091,0c-0.051,0.004-0.099,0.019-0.144,0.042
			c-0.05,0.019-0.095,0.046-0.134,0.082l-0.02,0.015c-0.02,0.021-0.041,0.043-0.061,0.064c-0.027,0.032-0.045,0.067-0.054,0.107
			c-0.011,0.023-0.015,0.047-0.012,0.072c-0.004,0.036,0.003,0.07,0.022,0.101c0.003,0.008,0.006,0.016,0.008,0.024
			c0.017,0.02,0.033,0.039,0.05,0.059c0.032,0.028,0.069,0.044,0.109,0.05c0.028,0.01,0.057,0.014,0.087,0.01
			c0.032,0.003,0.063,0,0.094-0.011c0.051-0.008,0.099-0.026,0.144-0.053c0.029-0.02,0.057-0.04,0.086-0.061
			c0.022-0.024,0.045-0.048,0.068-0.071c0.03-0.035,0.05-0.075,0.06-0.119c0.012-0.025,0.016-0.052,0.013-0.08
			C42.685,115.184,42.681,115.159,42.668,115.135z"/>
		<path style="opacity:0.33;fill:#F3735A;" d="M47.39,119.526c-0.306-0.029-0.644,0.486-0.238,0.525
			C47.457,120.081,47.795,119.565,47.39,119.526z"/>
		<path style="opacity:0.33;fill:#F3735A;" d="M41.364,122.197c-0.021-0.096-0.059-0.166-0.132-0.234
			c-0.14-0.129-0.351-0.145-0.531-0.133c-0.038,0.002-0.077,0.018-0.116,0.032c-0.041,0.001-0.083-0.004-0.123,0.002
			c-0.189,0.031-0.383,0.108-0.522,0.244c-0.144,0.14-0.252,0.329-0.213,0.537c0.016,0.087,0.054,0.174,0.107,0.245
			c0.055,0.074,0.121,0.151,0.198,0.204c0.517,0.357,1.238-0.142,1.333-0.699C41.374,122.332,41.377,122.261,41.364,122.197z"/>
		<path style="opacity:0.33;fill:#F3735A;" d="M40.217,116.091c-0.033-0.029-0.067-0.058-0.1-0.087
			c-0.394-0.344-0.901,0.429-0.524,0.556c-0.002,0.002-0.004,0.003-0.007,0.005c0.04,0.022,0.079,0.045,0.118,0.067
			C39.972,116.784,40.504,116.341,40.217,116.091z"/>
		<path style="opacity:0.33;fill:#F3735A;" d="M51.983,122.218c-0.057-0.022-0.111-0.05-0.165-0.078
			c-0.019-0.01-0.039-0.02-0.06-0.026c-0.049-0.015-0.102-0.03-0.154-0.033c-0.065-0.004-0.13-0.004-0.194,0.008
			c-0.079,0.015-0.158,0.033-0.236,0.055c-0.172,0.048-0.308,0.171-0.386,0.328c-0.001,0.001-0.001,0.003-0.002,0.005
			c-0.004,0.009-0.026,0.08-0.028,0.09c-0.004,0.025-0.004,0.066-0.002,0.091c0.006,0.061,0.023,0.076,0.055,0.115
			c0.036,0.043,0.016,0.026,0.065,0.055c0.012,0.008,0.025,0.016,0.038,0.022c0.006,0.001,0.011,0.003,0.017,0.004
			c-0.002,0.016-0.011,0.031-0.01,0.047c-0.005,0.026-0.001,0.05,0.012,0.073c0.008,0.037,0.028,0.068,0.06,0.092
			c0.066,0.05,0.15,0.068,0.232,0.057c0.326-0.043,0.624-0.223,0.833-0.473c0.031-0.037,0.052-0.079,0.063-0.125
			c0.017-0.04,0.021-0.082,0.014-0.126C52.115,122.317,52.065,122.249,51.983,122.218z"/>
		<path style="opacity:0.33;fill:#F3735A;" d="M52.569,120.052c-0.377-0.036-0.794,0.6-0.294,0.648
			C52.652,120.736,53.069,120.1,52.569,120.052z"/>
		<path style="opacity:0.33;fill:#F3735A;" d="M60.59,114.202c-0.01-0.028-0.019-0.056-0.029-0.084
			c-0.022-0.042-0.054-0.072-0.096-0.091c-0.025-0.02-0.054-0.031-0.086-0.034c-0.032-0.012-0.065-0.016-0.099-0.011
			c-0.037-0.004-0.072,0-0.107,0.012c-0.007,0.001-0.012,0.006-0.019,0.007c-0.001,0-0.002,0-0.002,0
			c-0.012,0.003-0.023,0.005-0.035,0.008c-0.008,0-0.016-0.004-0.025-0.003c-0.056,0.005-0.108,0.02-0.157,0.046
			c-0.054,0.02-0.103,0.049-0.146,0.089c-0.053,0.045-0.095,0.1-0.125,0.163c-0.012,0.035-0.024,0.07-0.033,0.105
			c-0.001,0.005-0.002,0.011-0.002,0.016c-0.006,0.087-0.005,0.119,0.033,0.199c-0.01-0.03-0.021-0.059-0.031-0.089
			c0,0.006,0.028,0.089,0.032,0.094c0.021,0.024,0.041,0.049,0.062,0.074c0.04,0.034,0.085,0.055,0.136,0.062
			c0.035,0.013,0.071,0.017,0.108,0.012c0.06,0.004,0.119-0.005,0.176-0.026c0.021-0.008,0.046-0.02,0.063-0.028
			c0,0,0.044-0.017,0.063-0.028c0.037-0.021,0.115-0.081,0.112-0.079c0.003-0.002,0.005-0.004,0.008-0.006
			c0.001-0.001,0.003-0.003,0.004-0.004c0.026-0.026,0.06-0.061,0.084-0.089c0.005-0.006,0.01-0.013,0.014-0.02
			c0.023-0.036,0.048-0.074,0.067-0.113c0.009-0.031,0.019-0.062,0.028-0.092C60.589,114.262,60.589,114.232,60.59,114.202z"/>
		<path style="opacity:0.33;fill:#F3735A;" d="M69.177,114.529c-0.369-0.035-0.778,0.587-0.288,0.634
			C69.258,115.199,69.667,114.576,69.177,114.529z"/>
		<path style="opacity:0.33;fill:#F3735A;" d="M73.443,108.927c-0.007-0.017-0.014-0.034-0.021-0.051
			c-0.002-0.004-0.003-0.008-0.005-0.012c-0.019-0.045-0.063-0.079-0.108-0.097c-0.013-0.005-0.027-0.01-0.04-0.014
			c-0.051-0.019-0.104-0.025-0.159-0.018c-0.062,0.008-0.121,0.027-0.176,0.058c-0.026,0.019-0.052,0.037-0.079,0.055
			c-0.045,0.038-0.08,0.084-0.105,0.137c-0.018,0.035-0.026,0.072-0.023,0.11c-0.005,0.036,0.003,0.071,0.023,0.103
			c0.052,0.093,0.168,0.12,0.267,0.109c0.016-0.002,0.033-0.003,0.049-0.006c0.045-0.004,0.087-0.016,0.127-0.037
			c0.017-0.004,0.032-0.011,0.045-0.021c0.002-0.002,0.005-0.004,0.007-0.005c0.005-0.004,0.011-0.007,0.016-0.011
			c0.021-0.015,0.043-0.03,0.064-0.045c0.027-0.014,0.05-0.033,0.069-0.056c0.02-0.019,0.036-0.04,0.047-0.066l0.014-0.047
			C73.463,108.984,73.458,108.954,73.443,108.927z"/>
		<path style="opacity:0.33;fill:#F3735A;" d="M73.59,110.59c-0.016-0.019-0.032-0.038-0.048-0.057
			c-0.042-0.033-0.09-0.052-0.144-0.057c-0.046-0.006-0.09-0.003-0.134,0.01c-0.049,0.008-0.095,0.025-0.138,0.051
			c-0.045,0.023-0.083,0.054-0.115,0.092c-0.034,0.031-0.059,0.067-0.078,0.109c-0.008,0.026-0.016,0.052-0.024,0.077
			c-0.009,0.051-0.001,0.1,0.023,0.146c0.016,0.019,0.032,0.038,0.048,0.057c0.042,0.033,0.09,0.052,0.144,0.058
			c0.046,0.006,0.09,0.003,0.133-0.01c0.049-0.008,0.095-0.025,0.138-0.051c0.045-0.023,0.083-0.054,0.115-0.092
			c0.033-0.031,0.059-0.067,0.078-0.109c0.008-0.026,0.016-0.052,0.024-0.077C73.622,110.685,73.614,110.636,73.59,110.59z"/>
		<path style="opacity:0.33;fill:#F3735A;" d="M79.199,109.174c-0.385-0.037-0.811,0.613-0.3,0.662
			C79.283,109.873,79.709,109.223,79.199,109.174z"/>
		<g style="opacity:0.33;">
			<path style="fill:#F3735A;" d="M90.069,117.037c-0.008-0.07-0.035-0.138-0.06-0.203c-0.03-0.08-0.076-0.154-0.129-0.22
				c-0.076-0.093-0.153-0.184-0.253-0.253c-0.017-0.012-0.036-0.022-0.054-0.032c-0.105-0.068-0.195-0.098-0.319-0.124
				c-0.077-0.016-0.161-0.018-0.239-0.005c-0.176,0.028-0.33,0.095-0.469,0.207c-0.018,0.015-0.032,0.034-0.048,0.05
				c-0.015,0.001-0.03-0.002-0.044,0c0.015,0,0.029,0,0.044,0c-0.003,0.003-0.005,0.005-0.007,0.008
				c-0.052,0.002-0.104,0.001-0.154,0.021c-0.041,0.017-0.084,0.034-0.123,0.056c-0.047,0.027-0.092,0.058-0.132,0.094
				c-0.08,0.072-0.136,0.148-0.186,0.243c-0.023,0.044-0.037,0.094-0.049,0.141c-0.005,0.02-0.009,0.041-0.012,0.062
				c-0.007,0.069-0.008,0.142,0.005,0.211c0.03,0.155,0.106,0.284,0.218,0.394c0.134,0.132,0.316,0.194,0.495,0.234
				c0.085,0.019,0.172,0.025,0.259,0.028c0.111,0.003,0.223,0.003,0.334-0.008c0.098-0.009,0.197-0.029,0.291-0.059
				c0.083-0.026,0.165-0.061,0.238-0.109c0.1-0.067,0.197-0.138,0.266-0.24c0.063-0.095,0.104-0.177,0.127-0.29
				c0.003-0.017,0.005-0.035,0.006-0.052C90.073,117.139,90.076,117.087,90.069,117.037z"/>
			<path style="fill:#F3735A;" d="M89.486,116.277c0.029,0.017,0.058,0.035,0.087,0.052c0.002,0.002,0.004,0.001,0.007,0.003
				C89.549,116.313,89.517,116.295,89.486,116.277z"/>
		</g>
	</g>
	<path style="fill:#3A0100;" d="M171.588,90.798c-0.789-1.627-1.843-3.102-2.653-4.717c-0.938-1.87-1.358-3.942-1.803-5.972
		c-0.936-4.27-1.403-8.585-1.978-12.912c-1.118-8.41-2.933-16.72-5.547-24.794c-2.057-6.355-4.935-12.323-9.445-17.316
		c-4.424-4.898-10.032-8.451-16.07-11.028c-3.881-1.657-7.94-3.003-12.173-3.318c-2.036-0.151-4.078-0.077-6.077,0.357
		c-0.341,0.074-0.675,0.173-1.012,0.264c-0.371,0.078-0.742,0.16-1.105,0.268c-0.281,0.084-0.56,0.179-0.838,0.274
		c-0.158,0.054-0.332,0.117-0.507,0.163c-0.65-0.193-1.301-0.383-1.954-0.561c-9.72-2.642-19.904-4.001-29.968-3.064
		c-9.315,0.868-18.493,3.345-27.233,6.62c-8.771,3.287-17.093,7.505-25.311,11.971c-4.255,2.312-8.741,4.466-13.523,5.414
		c-1.674,0.332-3.412,0.549-5.12,0.575c-1.587,0.024-3.362-0.132-4.697-1.076c-0.686-0.485-1.148-1.143-1.414-1.936
		c-0.067-0.199-0.426-0.056-0.375,0.123c0.611,2.153,0.892,4.405,1.643,6.517c0.765,2.15,2.135,4.013,3.867,5.489
		c2.466,2.101,5.603,3.262,8.813,3.412c-0.621,0.671-1.214,1.357-1.764,2.057c-5.767,7.339-8.043,17.45-6.311,26.593
		c0.515,2.72,1.374,5.368,2.403,7.933c0.941,2.344,1.852,4.931,3.475,6.901c0.173,0.21,0.573,0.023,0.55-0.244
		c-0.194-2.179-0.97-4.268-1.207-6.45c-0.24-2.215-0.213-4.472,0.114-6.676c0.337-2.272,1.008-4.472,1.911-6.576
		c-0.87,6.234-0.291,12.762,1.814,18.66c0.699,1.96,1.568,3.873,2.432,5.765c0.523,1.146,0.93,2.924,2.145,3.534
		c0.183,0.092,0.394-0.089,0.444-0.252c0.67-2.174,0.537-4.468,1.273-6.638c0.714-2.105,1.655-4.12,2.627-6.116
		c-0.056,0.582-0.103,1.165-0.131,1.751c-0.029,0.604-0.028,1.205-0.012,1.805c0.023,0.07,0.036,0.144,0.037,0.221
		c0.018,1.719,0.158,3.474,0.5,5.178c0.356,0.132,0.852-0.027,1.175-0.116c1.943-0.534,3.6-1.937,5.136-3.178
		c1.809-1.462,3.5-3.052,5.032-4.805c3.135-3.589,5.605-7.898,7.601-12.211c0.507-1.095,0.979-2.218,1.412-3.358
		c1.272,2.242,2.804,4.334,4.528,6.25c1.321,1.468,2.753,2.83,4.199,4.173c1.251,1.163,2.421,2.643,3.931,3.472
		c0.12,0.066,0.347-0.063,0.352-0.199c0.034-0.915-0.214-1.775-0.481-2.641c-0.313-1.016-0.544-2.05-0.758-3.091
		c-0.463-2.256-0.809-4.54-0.956-6.839c-0.268-4.201,0.083-8.494,1.295-12.536c1.179-3.932,3.213-7.52,6.111-10.439
		c2.642-2.66,6.016-4.925,9.807-5.419c1.212-0.158,2.447-0.125,3.617,0.157c0.123,1.227,0.391,2.435,0.702,3.505
		c1.101,3.785,3.449,7.249,6.007,10.198c3.013,3.474,6.609,6.31,10.444,8.82c4.486,2.936,9.371,5.603,14.754,6.339
		c0.107,0.015,0.331-0.151,0.196-0.256c-3.057-2.379-6.079-5.116-8.284-8.319c-1.187-1.725-2.18-3.575-3.069-5.469
		c-0.145-0.309-0.286-0.623-0.428-0.935c0.29,0.249,0.579,0.499,0.869,0.747c1.901,1.626,3.868,3.175,5.694,4.888
		c1.801,1.69,3.495,3.497,5.046,5.42c5.886,7.296,9.438,16.381,10.516,25.674c0.593,5.111,0.477,10.635-1.282,15.527
		c-0.073,0.202,0.06,0.322,0.259,0.314c1.03-0.044,1.977-0.475,2.824-1.064c0.827-0.761,1.708-1.47,2.51-2.253
		c0.015-0.063,0.035-0.125,0.05-0.189c0.98-1.171,1.833-2.448,2.613-3.758c0.529-0.89,0.99-1.805,1.412-2.736
		c0.034,1.86,0.249,3.708,0.271,5.571c0.027,2.349-0.328,4.685-0.644,7.007c-0.319,2.344-0.673,4.711-1.453,6.953
		c-0.418,1.202-0.863,2.395-1.308,3.588c-0.5,1.104-1.028,2.196-1.569,3.272c-2.433,4.835-4.876,9.69-8.106,14.053
		c-1.8,2.432-3.802,4.75-6.089,6.737c-0.184,0.16-0.212,0.481,0.088,0.518c2.35,0.286,4.792-0.759,6.855-1.763
		c2.204-1.073,4.308-2.387,6.277-3.844c2.502-1.852,4.837-4.035,6.895-6.445c-0.546,1.029-1.105,2.05-1.703,3.05
		c-0.699,1.169-1.428,2.347-2.273,3.417c-0.617,0.782-1.154,1.455-0.925,2.503c0.024,0.11,0.119,0.2,0.237,0.203
		c2.831,0.05,5.098-2.382,7.186-3.972c3.001-2.287,5.95-4.57,8.641-7.227c4.61-4.552,8.615-9.815,10.932-15.911
		c0.15-0.394,0.266-0.797,0.4-1.195c-0.244,3.194-0.951,6.364-0.91,9.581c0.003,0.247,0.362,0.185,0.486,0.123
		c2.075-1.035,3.159-3.543,4.016-5.559c1.109-2.605,2.253-5.224,3.231-7.879c2.591-7.03,3.823-14.387,3.67-21.875
		c-0.019-0.944-0.064-1.885-0.118-2.825c0.226,0.304,0.444,0.616,0.687,0.907c1.527,1.832,3.57,3.607,6.08,3.654
		C171.342,91.317,171.731,91.093,171.588,90.798z"/>
	<path style="fill:#963920;" d="M165.391,86.86c-0.312-0.395-0.597-0.811-0.884-1.227c-0.264-0.214-0.509-0.45-0.743-0.696
		c-0.023,0.117-0.055,0.231-0.076,0.348c-0.011,0.167-0.03,0.333-0.038,0.501c0.031,0.047,0.055,0.099,0.087,0.146
		c0.181,4.369,0.135,8.739-0.487,13.086c-0.518,3.621-1.395,7.193-2.574,10.654c-0.945,2.774-2.205,5.406-3.272,8.131
		c-0.492,1.257-0.99,2.516-1.627,3.708c-0.506,0.947-1.14,1.921-2.022,2.565c-0.008-3.63,0.914-7.192,0.969-10.813
		c-0.498,1.233-1.182,2.346-1.94,3.416c-0.938,2.232-2.06,4.391-3.402,6.434c-3.711,5.65-8.639,10.431-13.981,14.529
		c-1.318,1.011-2.625,2.03-3.933,3.055c-1.169,0.916-2.603,2.031-4.157,2.117c-0.097-1.072,0.889-1.915,1.47-2.755
		c0.684-0.989,1.322-2.009,1.931-3.046c1.023-1.744,1.946-3.543,2.84-5.356c0.879-1.229,1.685-2.502,2.396-3.815
		c0.272-0.503,0.527-1.018,0.772-1.539c0.502-1.614,0.866-3.26,1.024-4.953c-0.726,3.109-2.143,6.033-3.921,8.71
		c-0.117,0.037-0.228,0.106-0.279,0.207c-0.128,0.252-0.256,0.504-0.384,0.756c-0.665,0.936-1.361,1.847-2.089,2.715
		c-3.269,3.892-7.206,7.16-11.662,9.605c-2.108,1.157-4.589,2.389-7.069,2.387c3.694-3.523,6.765-7.616,9.284-12.056
		c1.391-2.451,2.614-5,3.872-7.52c0.215-0.431,0.425-0.866,0.636-1.3c0.079,0.005,0.177-0.036,0.21-0.114
		c0.935-2.236,2.138-4.397,2.902-6.699c0.727-2.191,1.088-4.476,1.396-6.758c0.304-2.252,0.613-4.508,0.612-6.785
		c-0.001-2.318-0.378-4.608-0.543-6.915c1.305-3.231,2.018-6.665,2.216-10.192c0.03-0.53,0.036-1.058,0.044-1.587
		c-0.109-1.335-0.354-2.771-0.951-3.982c0.279,3.931,0.099,7.909-0.807,11.743c-0.79,3.347-2.222,6.547-4.165,9.392
		c-0.368,0.624-0.81,1.196-1.3,1.721c-0.007,0.025-0.012,0.051-0.019,0.076c-1.133,1.403-2.6,2.934-4.436,3.285
		c1.228-4.34,1.671-8.749,1.364-13.259c-0.316-4.64-1.327-9.228-2.856-13.616c-1.565-4.492-3.685-8.752-6.51-12.587
		c-2.894-3.93-6.393-7.276-10.152-10.365c-1.09-0.895-2.184-1.792-3.268-2.701c-0.169-0.076-0.344-0.143-0.511-0.222
		c-0.348-0.166-0.69-0.35-1.032-0.531c0.019,0.073,0.035,0.146,0.055,0.218c0.237,0.558,0.478,1.114,0.728,1.665
		c1.714,3.776,3.913,7.297,6.968,10.133c1.491,1.384,3.133,2.576,4.691,3.875c-4.288-0.876-8.332-2.935-12.023-5.217
		c-3.635-2.247-7.122-4.762-10.153-7.786c-2.986-2.98-5.569-6.44-7.22-10.341c-0.451-1.066-0.81-2.234-1.045-3.429
		c-0.285-0.707-0.355-1.505-0.264-2.278c-0.006-0.002-0.011-0.004-0.017-0.006c-0.038-0.91,0.005-1.813,0.173-2.678
		c0.318-1.641,1.261-3.182,3.024-3.493c2.174-0.384,4.074,1.492,6.161,1.803c0.201,0.03,0.425-0.287,0.158-0.348
		c-1.951-0.443-3.506-2.07-5.575-2.083c-1.516-0.009-2.914,0.825-3.686,2.113c-0.791,1.319-1.017,2.916-0.948,4.524
		c-0.46-0.087-0.933-0.139-1.417-0.155c-3.879-0.133-7.536,1.639-10.491,4.035c-3.125,2.534-5.631,5.843-7.205,9.545
		c-1.709,4.02-2.379,8.432-2.375,12.781c0.002,2.667,0.281,5.328,0.773,7.948c0.249,1.326,0.535,2.653,0.891,3.954
		c0.274,1.002,0.765,2.02,0.817,3.072c-1.08-0.791-1.952-1.911-2.906-2.832c-1.202-1.162-2.419-2.31-3.582-3.511
		c-1.998-2.066-3.788-4.334-5.248-6.813c-0.189-0.321-0.357-0.653-0.534-0.981c0.001-0.003,0.002-0.006,0.003-0.009
		c-0.13-0.187-0.243-0.387-0.339-0.583c-0.044-0.09-0.079-0.185-0.119-0.277c-0.002,0.006-0.003,0.012-0.005,0.018
		c-2.116-4.241-3.193-8.935-3.073-13.698c0.138-5.498,1.606-11.168,4.854-15.67c3.125-4.332,7.816-7.07,13.02-8.101
		c3.401-0.674,6.977-0.615,10.268,0.363c1.115,0.169,2.22,0.438,3.31,0.755c-3.413-1.897-7.589-2.371-11.443-1.949
		c-5.217,0.571-10.3,2.766-13.923,6.621c-3.871,4.12-5.898,9.675-6.524,15.227c-0.636,5.632,0.251,11.324,2.734,16.43
		c0.149,0.306,0.323,0.598,0.482,0.899c-0.232,0.668-0.475,1.332-0.744,1.99c-1.683,4.121-3.883,8.17-6.506,11.77
		c-1.358,1.864-2.908,3.588-4.598,5.156c-1.501,1.394-3.123,2.776-4.859,3.871c-0.614,0.387-1.49,0.969-2.279,1.08
		c-0.001-0.015,0.004-0.03-0.001-0.045c-0.316-1.043-0.268-2.221-0.315-3.303c-0.056-1.312-0.041-2.624,0.005-3.935
		c0.044-1.283,0.03-2.574,0.129-3.854c0.048-0.621,0.15-1.238,0.177-1.861c0.002-0.048-0.001-0.096-0.001-0.145
		c0.055-0.389,0.11-0.779,0.164-1.168c0.344-2.47,0.701-4.947,1.451-7.333c0.735-2.339,1.674-4.612,2.55-6.9
		c0.019-0.05-0.059-0.046-0.075-0.008c-0.98,2.38-2.191,4.66-3.034,7.097c-0.826,2.389-1.216,4.859-1.588,7.351
		c-0.213,1.424-0.434,2.846-0.612,4.273c-0.061,0.127-0.116,0.257-0.178,0.384c-1.027,2.122-2.063,4.242-2.866,6.462
		c-0.425,1.175-0.775,2.345-0.929,3.588c-0.139,1.125-0.181,2.31-0.508,3.407c-0.803-0.72-1.137-2.169-1.539-3.081
		c-0.726-1.645-1.422-3.307-2.068-4.986c-1.279-3.327-2.034-6.837-2.331-10.386c-0.317-3.781-0.105-7.539,0.636-11.189
		c0.003-0.005,0.006-0.01,0.009-0.015c0.308-2.387,0.941-4.738,1.836-6.975c0.503-1.256,1.125-2.442,1.79-3.606
		c0.172-0.543,0.363-1.078,0.569-1.607c-0.325,0.534-0.641,1.071-0.941,1.61c-1.72,3.088-3.053,6.327-3.826,9.783
		c-0.114,0.509-0.195,1.027-0.288,1.541c-2.086,4.24-3.226,8.887-2.941,13.766c0.078,1.329,0.254,2.653,0.538,3.955
		c0.18,0.825,0.398,1.639,0.557,2.464c-0.893-1.437-1.521-3.033-2.175-4.59c-0.941-2.238-1.758-4.533-2.35-6.89
		c-1.141-4.546-1.276-9.313-0.497-13.931c1.017-6.033,3.717-11.65,7.757-16.131c0.12-0.163,0.23-0.332,0.356-0.49
		c1.668-2.092,3.756-3.676,6.032-4.991c0.905-0.806,1.884-1.516,2.942-2.108c-3.468,1.516-6.642,3.872-9.252,6.593
		c-1.145-0.022-2.292-0.162-3.42-0.468c-3.868-1.046-7.384-3.809-8.986-7.527C4.341,35.33,4.047,33.4,3.584,31.518
		c1.522,1.778,4.301,2.003,6.597,1.9c4.223-0.19,8.313-1.351,12.17-3.041c4.299-1.884,8.332-4.315,12.496-6.47
		c4.214-2.181,8.499-4.229,12.872-6.075c8.694-3.67,17.752-6.559,27.08-8.076c4.992-0.812,10.021-1.167,15.077-0.95
		c5.125,0.22,10.22,0.953,15.228,2.049c1.938,0.424,3.874,0.897,5.793,1.426c0.012,0.011,0.013,0.024,0.03,0.034
		c0.151,0.088,0.335,0.129,0.494,0.212c0.166,0.086,0.35,0.169,0.538,0.187c0.252,0.024,0.521-0.074,0.76-0.144
		c0.3-0.087,0.593-0.193,0.889-0.294c0.56-0.19,1.129-0.365,1.705-0.499c0.491-0.114,1.018-0.187,1.487-0.385
		c0.746-0.125,1.5-0.212,2.272-0.23c4.378-0.1,8.673,1.059,12.718,2.647c6.239,2.449,12.108,5.837,16.809,10.669
		c4.541,4.667,7.709,10.43,9.774,16.575c2.652,7.889,4.543,16.016,5.742,24.251c0.689,4.732,1.102,9.488,2.072,14.178
		c0.452,2.187,0.876,4.475,1.816,6.514c0.735,1.597,1.744,3.045,2.57,4.593C168.438,90.202,166.695,88.513,165.391,86.86z"/>
	<path style="fill:#963920;" d="M10.983,77.496c-0.608-4.771-0.413-9.637,0.391-14.373c0.382-2.253,0.864-4.533,1.639-6.688
		c0.755-2.099,1.804-4.085,3.077-5.915c2.578-3.705,5.997-6.768,9.747-9.252c3.077-2.039,6.405-3.702,9.864-4.999
		c-1.215,0.13-2.421,0.346-3.607,0.653c-2.581,0.669-5.063,1.698-7.397,2.988c-0.296,0.231-0.587,0.469-0.868,0.719
		c-2.275,1.315-4.364,2.899-6.031,4.991c-0.126,0.158-0.236,0.328-0.356,0.49c-4.04,4.481-6.74,10.097-7.757,16.131
		c-0.779,4.619-0.644,9.385,0.497,13.931c0.345,1.376,0.774,2.728,1.253,4.062C11.256,79.327,11.099,78.413,10.983,77.496z"/>
	<path style="fill:#963920;" d="M17.572,76.875c0.166-5.143,1.261-10.195,3.233-14.944c1.735-4.178,4.039-8.143,6.964-11.603
		c1.973-2.333,4.259-4.416,6.831-6.054c-0.961,0.409-1.904,0.86-2.817,1.369c-3.795,2.116-7.157,5.021-9.824,8.45
		c-0.128,0.164-0.247,0.336-0.371,0.503c-0.197,0.509-0.382,1.023-0.547,1.545c-0.665,1.165-1.287,2.351-1.79,3.606
		c-0.895,2.237-1.528,4.587-1.836,6.975c-0.003,0.005-0.006,0.01-0.009,0.015c-0.741,3.65-0.953,7.408-0.636,11.189
		c0.231,2.754,0.741,5.484,1.554,8.123C17.761,83.026,17.472,79.959,17.572,76.875z"/>
	<path style="fill:#963920;" d="M30.339,79.675c0.361-1.384,0.756-2.759,1.177-4.126c0.598-1.94,1.236-3.866,1.857-5.799
		c0.635-1.975,1.276-3.942,1.654-5.985c0.421-2.281,0.63-4.596,0.936-6.894c-0.261,0.384-0.502,0.78-0.726,1.174
		c-1.681,2.959-2.606,6.238-3.49,9.5c-0.659,2.432-1.073,4.863-1.246,7.379C30.391,76.506,30.354,78.09,30.339,79.675z"/>
	<path style="fill:#963920;" d="M93.936,62.024c-4.397-3.75-8.16-8.441-10.574-13.71c-1.036-2.262-1.952-4.66-2.273-7.14
		c-0.071-0.55-0.106-1.136-0.077-1.717c-0.184-0.538-0.338-1.087-0.466-1.641c-0.142,0.353-0.252,0.723-0.325,1.101
		c-0.168,0.866-0.211,1.769-0.173,2.678c0.006,0.001,0.011,0.004,0.017,0.006c-0.091,0.774-0.022,1.571,0.264,2.278
		c0.235,1.196,0.593,2.363,1.045,3.429c1.651,3.901,4.233,7.361,7.22,10.341c2.241,2.236,4.733,4.193,7.348,5.97
		C95.258,63.108,94.587,62.579,93.936,62.024z"/>
	<path style="fill:#963920;" d="M107.408,55.007c-2.492-1.942-5.304-3.533-8.341-4.408c3.455,3.108,6.945,6.183,10.196,9.507
		c3.188,3.261,6.131,6.779,8.534,10.664c2.527,4.084,4.628,8.509,6.118,13.076c0.314,0.962,0.597,1.937,0.855,2.921
		c-0.08-0.473-0.164-0.945-0.255-1.416c-1.485-7.694-4.332-15.172-8.874-21.586C113.323,60.491,110.575,57.475,107.408,55.007z"/>
	<path style="fill:#963920;" d="M70.898,20.937c-2.578,0.367-5.262,0.925-7.869,0.547c-0.259-0.038-0.282-0.377-0.142-0.537
		c1.601-1.826,4.14-2.294,5.934-3.831c-1.937-0.288-3.952,0.088-5.821,0.59c-3.449,0.928-6.753,2.396-10.019,3.823
		c-1.586,0.693-3.166,1.427-4.633,2.35c-1.082,0.681-2.225,1.507-2.888,2.631c3.427-0.236,6.49-2.357,9.981-2.249
		c0.386,0.012,0.406,0.499,0.085,0.631c-1.348,0.553-2.673,1.165-3.95,1.866c-2.191,1.203-4.257,2.678-5.905,4.573
		c-1.44,1.656-2.456,3.599-3.017,5.702c1.645-1.688,3.389-3.278,5.236-4.742c3.968-3.143,8.403-5.8,13.233-7.374
		c0.505-0.164,1.014-0.313,1.526-0.45c0.027-0.007,0.054-0.014,0.08-0.022c0.112-0.03,0.224-0.059,0.336-0.087
		c1.5-0.406,3.023-0.729,4.555-0.965c2.53-0.39,5.045-0.51,7.603-0.458c2.462,0.05,4.943,0.164,7.392-0.147
		c-0.91-0.911-2.017-1.561-3.274-1.909C76.61,20.127,73.653,20.545,70.898,20.937z"/>
	<path style="fill:#963920;" d="M48.06,42.457c-1.509,2.827-2.229,6.072-2.493,9.247c-0.288,3.462-0.04,6.999,0.86,10.36
		c0.733,2.739,1.933,5.425,3.822,7.561c-0.766-4.206-1.905-8.382-1.777-12.689c0.062-2.076,0.466-4.149,0.894-6.177
		c0.429-2.028,0.974-4.036,1.7-5.979c0.655-1.756,1.439-3.485,2.452-5.066c0.844-1.316,1.828-2.544,2.901-3.68
		c1.557-1.649,3.447-3.254,5.531-4.528c-1.957,0.447-3.859,1.399-5.549,2.412C52.982,35.969,49.948,38.922,48.06,42.457z"/>
	<path style="fill:#963920;" d="M12.087,33.915c3.395,0.124,6.812-0.548,10.031-1.586c6.543-2.111,12.512-5.745,18.358-9.288
		c2.997-1.817,5.992-3.644,9.083-5.297c2.318-1.24,4.699-2.34,7.125-3.342c-3.027,1.042-6.02,2.187-8.967,3.431
		c-4.372,1.846-8.657,3.893-12.872,6.075c-4.164,2.155-8.196,4.586-12.496,6.47c-3.857,1.69-7.947,2.851-12.17,3.041
		c-0.361,0.016-0.736,0.019-1.115,0.014C10.048,33.716,11.061,33.877,12.087,33.915z"/>
	<path style="opacity:0.44;fill:#963920;" d="M17.519,45.115c2.61-2.722,5.783-5.077,9.252-6.593c-1.04,0.583-2.004,1.28-2.896,2.07
		c1.181-0.885,2.406-1.702,3.707-2.376c1.931-1.585,3.715-3.356,5.332-5.248c-1.702,1.167-3.516,2.168-5.415,2.977
		c-4.759,2.028-10.17,3.05-15.298,2.008c-2.425-0.493-4.745-1.489-6.707-3.006c-0.5-0.387-0.969-0.806-1.413-1.25
		c0.264,1.165,0.558,2.321,1.033,3.424c1.602,3.718,5.118,6.481,8.986,7.527C15.227,44.953,16.374,45.094,17.519,45.115z"/>
	<path style="opacity:0.44;fill:#963920;" d="M26.203,45.991c-0.122,0.067-0.246,0.129-0.366,0.198
		c-3.034,1.735-5.735,4.017-7.929,6.739c-2.089,2.59-3.696,5.566-4.776,8.711c-1.088,3.167-1.654,6.5-1.722,9.846
		c-0.068,3.382,0.368,6.765,1.279,10.022c0.451,1.614,1.022,3.191,1.701,4.719c-0.082-0.345-0.165-0.689-0.241-1.036
		c-0.284-1.301-0.46-2.625-0.538-3.955c-0.285-4.879,0.855-9.526,2.941-13.766c0.094-0.514,0.175-1.032,0.288-1.541
		c0.739-3.302,1.992-6.403,3.602-9.366c0.66-1.67,1.416-3.291,2.356-4.84C23.951,49.825,25.246,47.997,26.203,45.991z"/>
	<path style="opacity:0.44;fill:#963920;" d="M31.457,66.02c1.365-5.206,3.464-10.203,6.306-14.799
		c-2.641,1.792-4.98,4.019-7.047,6.444c-4.671,5.479-8.145,12.142-9.824,19.15c-1.535,6.405-1.482,13.42,1.615,19.347
		c0.065,0.075,0.129,0.152,0.201,0.216c0.327-1.097,0.369-2.281,0.508-3.407c0.154-1.243,0.503-2.412,0.928-3.588
		c0.803-2.22,1.839-4.34,2.866-6.462c0.062-0.127,0.117-0.257,0.178-0.384c0.178-1.427,0.399-2.849,0.612-4.273
		c0.372-2.492,0.762-4.961,1.588-7.351C29.969,69.236,30.723,67.633,31.457,66.02z"/>
	<path style="opacity:0.44;fill:#963920;" d="M44.108,51.172c0.257-2.277,0.754-4.553,1.513-6.731
		c-1.002,1.679-1.839,3.458-2.514,5.299c-0.523,1.427-0.962,2.883-1.342,4.354c-0.388,1.503-0.756,3-0.835,4.555
		c-0.151,2.989,0.267,6.036-0.912,8.872c-2.217,5.331-7.212,8.859-9.877,13.921c-0.151,0.287-0.599,0.147-0.598-0.162
		c0.003-2.424,0.133-4.847,0.41-7.255c0.257-2.227,0.645-4.433,1.156-6.606c-0.414,1.094-0.812,2.193-1.163,3.308
		c-0.75,2.386-1.107,4.863-1.451,7.333c-0.054,0.39-0.109,0.779-0.164,1.168c0,0.048,0.003,0.097,0.001,0.144
		c-0.027,0.622-0.129,1.24-0.177,1.861c-0.099,1.28-0.085,2.571-0.129,3.854c-0.045,1.312-0.061,2.624-0.005,3.935
		c0.046,1.082-0.001,2.26,0.315,3.303c0.005,0.015,0,0.029,0.001,0.044c0.789-0.11,1.665-0.693,2.279-1.08
		c1.736-1.095,3.358-2.477,4.859-3.871c1.69-1.568,3.24-3.292,4.598-5.156c2.623-3.601,4.823-7.649,6.506-11.77
		c0.269-0.658,0.512-1.323,0.744-1.99c-0.159-0.301-0.333-0.593-0.482-0.899C44.359,62.496,43.472,56.804,44.108,51.172z"/>
	<path style="opacity:0.44;fill:#963920;" d="M80.303,36.909c0.772-1.287,2.171-2.122,3.686-2.113
		c1.824,0.011,3.249,1.277,4.899,1.88c1.951-0.47,4.023-0.53,5.991-0.397c2.376,0.16,4.749,0.597,7.04,1.274
		c-0.012-0.008-0.023-0.018-0.035-0.027c-3.689-2.681-7.827-4.713-12.366-5.406c-1.148-0.175-2.31-0.262-3.471-0.276
		c-0.599-0.008-1.199,0.005-1.798,0.036c-0.272,0.014-0.711,0.128-0.972,0.047c-0.158-0.049-0.29-0.216-0.413-0.321
		c-1.264-1.079-2.742-1.906-4.293-2.494c-3.334-1.263-6.991-1.513-10.517-1.166c-3.679,0.362-7.33,1.397-10.634,3.058
		c-1.373,0.69-2.709,1.505-3.939,2.451c3.227-2.324,7.111-3.697,11.074-4.131c3.854-0.422,8.03,0.052,11.443,1.949
		c-1.091-0.317-2.195-0.587-3.31-0.755c-3.291-0.978-6.867-1.037-10.268-0.363c-4.126,0.818-7.926,2.712-10.882,5.619
		c0.903-0.43,1.814-0.844,2.745-1.212c2.771-1.097,5.692-1.842,8.681-1.937c3.147-0.1,6.255,0.549,9.187,1.667
		c0.303,0.115,0.305,0.505,0,0.62c-2.993,1.122-5.834,2.674-8.35,4.65c-4.23,3.323-7.49,7.787-9.356,12.833
		c-1.987,5.375-2.383,11.225-1.465,16.863c0.049,0.299-0.293,0.558-0.537,0.312c-1.623-1.632-2.978-3.519-4.041-5.559
		c-1.898-3.643-2.901-7.736-3.032-11.835c-0.087-2.715,0.231-5.448,0.969-8.062c-1.143,3.139-1.711,6.505-1.794,9.811
		c-0.12,4.763,0.958,9.457,3.073,13.698c0.002-0.006,0.003-0.012,0.005-0.018c0.04,0.092,0.075,0.187,0.119,0.277
		c0.096,0.196,0.209,0.396,0.339,0.583c-0.001,0.003-0.002,0.006-0.003,0.009c0.177,0.328,0.344,0.66,0.534,0.981
		c1.461,2.479,3.25,4.747,5.248,6.813c1.162,1.202,2.38,2.35,3.582,3.511c0.953,0.921,1.825,2.041,2.906,2.832
		c-0.051-1.052-0.542-2.07-0.817-3.072c-0.356-1.301-0.642-2.629-0.891-3.954c-0.492-2.62-0.771-5.281-0.773-7.947
		c-0.004-4.349,0.666-8.761,2.375-12.781c1.574-3.702,4.08-7.01,7.205-9.545c2.955-2.396,6.611-4.168,10.491-4.035
		c0.484,0.017,0.957,0.069,1.417,0.155C79.286,39.825,79.512,38.229,80.303,36.909z"/>
	<path style="opacity:0.44;fill:#963920;" d="M168.002,85.996c-0.939-2.039-1.363-4.327-1.816-6.514
		c-0.97-4.689-1.384-9.446-2.073-14.178c-1.199-8.235-3.09-16.361-5.742-24.251c-2.066-6.145-5.233-11.908-9.774-16.575
		c-4.701-4.832-10.57-8.221-16.809-10.669c-4.045-1.588-8.341-2.746-12.718-2.647c-0.772,0.018-1.526,0.105-2.272,0.23
		c-0.469,0.198-0.996,0.272-1.487,0.385c-0.576,0.133-1.145,0.309-1.705,0.498c-0.296,0.1-0.589,0.206-0.889,0.294
		c-0.239,0.069-0.507,0.168-0.76,0.144c-0.188-0.018-0.372-0.101-0.538-0.187c-0.158-0.082-0.342-0.124-0.494-0.212
		c-0.017-0.01-0.018-0.023-0.03-0.034c-1.919-0.529-3.855-1.002-5.793-1.426c-2.295-0.502-4.609-0.924-6.935-1.259
		c3.174,1.574,6.064,3.683,8.44,6.449c0.222,0.259-0.08,0.735-0.389,0.504c-2.236-1.664-4.763-2.871-7.439-3.64
		c-4.826-1.386-9.988-1.41-14.921-0.638c-3.949,0.618-7.834,1.744-11.506,3.339c2.943-0.623,5.888-1.248,8.881-1.557
		c3.328-0.344,6.708-0.215,9.932,0.734c3.355,0.988,6.456,2.773,9.081,5.075c4.478,3.928,7.064,9.28,9.61,14.551
		c0.294-2.239-0.011-4.427-0.772-6.585c-0.806-2.285-1.898-4.453-2.587-6.781c-0.069-0.233,0.162-0.463,0.395-0.395
		c4.053,1.188,6.744,4.255,9.016,7.623c0.005-0.667-0.045-1.333-0.174-1.991c-0.324-1.656-1.047-3.094-2.067-4.416
		c-0.736-0.953-1.735-2.047-1.883-3.294c-0.215-1.816,1.855-2.95,3.327-3.301c2.141-0.511,4.435-0.304,6.589,0.007
		c2.271,0.328,4.517,0.859,6.714,1.52c4.931,1.482,9.314,4.421,12.9,8.09c4.25,4.348,7.344,9.715,9.467,15.387
		c2.153,5.752,3.33,11.86,3.664,17.986c0.02,0.364-0.552,0.435-0.631,0.085c-0.48-2.125-1.234-4.174-2.218-6.117
		c-2.39-4.721-5.975-8.837-10.168-12.129c1.553,1.664,2.889,3.538,3.99,5.559c2.035,3.734,3.334,7.831,4.259,11.968
		c1.079,4.825,1.672,9.74,1.677,14.688c0.011,10.681-2.675,21.136-6.97,30.867c-0.132,0.298-0.607,0.14-0.598-0.162
		c0.132-4.443-0.014-8.894-0.513-13.311c-0.845-7.482-2.732-14.856-5.734-21.768c-2.788-6.419-6.508-12.388-10.891-17.833
		c1.661,4.14,2.309,8.652,2.861,13.054c0.04,0.323-0.456,0.427-0.599,0.162c-1.12-2.088-2.514-4.01-4.179-5.697
		c-5.48-5.555-13.122-8.094-20.566-9.845c0.224,0.194,0.451,0.385,0.674,0.58c4.074,3.586,7.854,7.534,10.957,11.998
		c3.024,4.351,5.331,9.166,6.851,14.242c1.394,4.656,2.205,9.523,2.553,14.368c0.354,4.919,0.213,9.951-0.921,14.767
		c-0.274,1.166-0.619,2.323-1.035,3.452c0.96-0.656,1.786-1.567,2.484-2.432c0.007-0.025,0.012-0.051,0.019-0.076
		c0.49-0.525,0.932-1.097,1.3-1.721c1.943-2.845,3.375-6.045,4.165-9.392c0.906-3.834,1.087-7.813,0.807-11.744
		c0.596,1.211,0.842,2.647,0.951,3.983c-0.008,0.529-0.014,1.058-0.044,1.587c-0.198,3.527-0.911,6.961-2.216,10.192
		c0.165,2.307,0.542,4.598,0.543,6.915c0.001,2.277-0.308,4.533-0.612,6.785c-0.308,2.282-0.669,4.566-1.396,6.758
		c-0.764,2.302-1.966,4.463-2.901,6.699c-0.033,0.078-0.131,0.119-0.21,0.114c-0.211,0.434-0.421,0.868-0.636,1.3
		c-1.259,2.52-2.482,5.069-3.872,7.52c-2.52,4.44-5.59,8.533-9.284,12.056c2.479,0.002,4.96-1.23,7.069-2.387
		c4.456-2.445,8.394-5.714,11.662-9.605c0.729-0.868,1.424-1.779,2.089-2.715c0.128-0.252,0.256-0.504,0.384-0.756
		c0.051-0.101,0.162-0.17,0.279-0.207c1.777-2.677,3.195-5.601,3.921-8.71c-0.158,1.693-0.522,3.339-1.024,4.953
		c-0.245,0.521-0.5,1.036-0.773,1.539c-0.711,1.313-1.517,2.586-2.396,3.815c-0.894,1.813-1.817,3.612-2.84,5.356
		c-0.608,1.037-1.246,2.057-1.931,3.046c-0.581,0.839-1.567,1.683-1.47,2.755c1.553-0.087,2.988-1.201,4.157-2.117
		c1.308-1.025,2.614-2.043,3.933-3.055c5.342-4.099,10.27-8.879,13.981-14.529c1.342-2.043,2.464-4.202,3.402-6.434
		c0.758-1.07,1.441-2.183,1.94-3.415c-0.056,3.621-0.977,7.183-0.969,10.813c0.882-0.645,1.516-1.618,2.022-2.565
		c0.637-1.192,1.135-2.452,1.627-3.708c1.067-2.724,2.327-5.356,3.272-8.131c1.179-3.461,2.056-7.034,2.574-10.654
		c0.622-4.346,0.668-8.717,0.487-13.086c-0.032-0.047-0.055-0.099-0.087-0.146c0.009-0.168,0.027-0.334,0.038-0.501
		c0.021-0.117,0.053-0.232,0.076-0.348c0.235,0.247,0.479,0.483,0.743,0.697c0.286,0.416,0.572,0.832,0.884,1.227
		c1.303,1.653,3.046,3.342,5.181,3.729C169.745,89.04,168.737,87.592,168.002,85.996z"/>
	<path style="opacity:0.44;fill:#963920;" d="M163.74,78.665c-1.346-3.813-2.279-7.77-2.932-11.765
		c-0.01,0.749-0.018,1.497-0.034,2.246c-0.154,7.613-0.606,15.22-1.426,22.791c-0.044,0.403-0.67,0.418-0.642,0
		c0.371-5.65,0.082-11.376-1.291-16.875c-0.033,3.932-0.156,7.864-0.509,11.781c-0.372,4.126-0.99,8.237-1.999,12.257
		c-0.98,3.907-2.479,7.655-4.283,11.252c-0.896,1.786-1.872,3.533-2.913,5.239c-0.783,1.282-1.53,2.587-2.323,3.863
		c-0.793,1.274-1.65,2.533-2.686,3.624c-0.859,0.906-1.927,1.793-3.198,1.993c-0.193,0.03-0.418-0.081-0.407-0.31
		c0.096-1.925,0.272-3.845,0.481-5.76c0.547-5.004,1.257-10.007,1.285-15.029c-0.049,0.444-0.1,0.888-0.158,1.331
		c-0.564,4.248-1.539,8.477-3.222,12.428c-1.554,3.647-3.789,7.12-7.067,9.439c-0.27,0.191-0.596-0.177-0.439-0.439
		c1.45-2.425,2.635-5.002,3.604-7.654c1.835-5.018,2.958-10.301,3.485-15.613c0.413-4.166,0.467-8.391,0.058-12.564
		c-0.049,0.354-0.103,0.708-0.163,1.06c-0.831,4.88-2.589,9.644-4.937,13.994c-0.144,0.266-0.635,0.161-0.598-0.162
		c0.438-3.892,1.242-7.732,1.671-11.624c0.186-1.686,0.289-3.392,0.371-5.086c0.079-1.64,0.096-3.285-0.016-4.925
		c-0.187-2.729-0.836-5.356-1.651-7.957c-0.678-2.163-1.475-4.312-2.597-6.288c-0.92-1.62-2.155-3.311-3.898-4.107
		c0.362,3.296,1.296,6.493,2.187,9.677c0.831,2.971,1.624,5.969,1.909,9.049c0.247,2.667,0.07,5.383-0.3,8.03
		c-0.718,5.127-2.367,10.439-5.789,14.43c-0.024,0.066-0.042,0.133-0.066,0.199c0.96-0.656,1.786-1.567,2.484-2.432
		c0.007-0.025,0.012-0.051,0.019-0.076c0.49-0.525,0.932-1.097,1.3-1.721c1.943-2.845,3.375-6.045,4.165-9.392
		c0.906-3.834,1.087-7.813,0.807-11.744c0.596,1.211,0.842,2.647,0.951,3.983c-0.008,0.529-0.014,1.058-0.044,1.587
		c-0.198,3.527-0.911,6.961-2.216,10.192c0.165,2.307,0.542,4.598,0.543,6.915c0.001,2.277-0.308,4.533-0.612,6.785
		c-0.308,2.282-0.669,4.566-1.396,6.758c-0.764,2.302-1.966,4.463-2.901,6.699c-0.033,0.078-0.131,0.119-0.21,0.114
		c-0.211,0.434-0.421,0.868-0.636,1.3c-1.259,2.52-2.482,5.069-3.872,7.52c-2.52,4.44-5.59,8.533-9.284,12.056
		c2.479,0.002,4.96-1.23,7.069-2.387c4.456-2.445,8.394-5.714,11.662-9.605c0.729-0.868,1.424-1.779,2.089-2.715
		c0.128-0.252,0.256-0.504,0.384-0.756c0.051-0.101,0.162-0.17,0.279-0.207c1.777-2.677,3.195-5.601,3.921-8.71
		c-0.158,1.693-0.522,3.339-1.024,4.953c-0.245,0.521-0.5,1.036-0.773,1.539c-0.711,1.313-1.517,2.586-2.396,3.815
		c-0.894,1.813-1.817,3.612-2.84,5.356c-0.608,1.037-1.246,2.057-1.931,3.046c-0.581,0.839-1.567,1.683-1.47,2.755
		c1.553-0.087,2.988-1.201,4.157-2.117c1.308-1.025,2.614-2.043,3.933-3.055c5.342-4.099,10.27-8.879,13.981-14.529
		c1.342-2.043,2.464-4.202,3.402-6.434c0.758-1.07,1.441-2.183,1.94-3.415c-0.056,3.621-0.977,7.183-0.969,10.813
		c0.882-0.645,1.516-1.618,2.022-2.565c0.637-1.192,1.135-2.452,1.627-3.708c1.067-2.724,2.327-5.356,3.272-8.131
		c1.179-3.461,2.056-7.034,2.574-10.654c0.622-4.346,0.668-8.717,0.487-13.086c-0.032-0.047-0.055-0.099-0.087-0.146
		c0.009-0.168,0.027-0.334,0.038-0.501c0.021-0.117,0.053-0.232,0.076-0.348c0.235,0.247,0.479,0.483,0.743,0.697
		c0.286,0.416,0.572,0.832,0.884,1.227c1.303,1.653,3.046,3.342,5.181,3.729c-0.043-0.081-0.091-0.158-0.135-0.238
		C167.262,87.162,165.211,82.832,163.74,78.665z"/>
	<path style="opacity:0.44;fill:#963920;" d="M106.079,66.778c-3.055-2.835-5.254-6.357-6.968-10.133
		c-0.25-0.551-0.491-1.107-0.728-1.665c-0.02-0.072-0.035-0.146-0.055-0.218c0.342,0.182,0.684,0.366,1.032,0.531
		c0.167,0.08,0.342,0.146,0.511,0.222c1.084,0.908,2.178,1.806,3.268,2.701c0.017,0.014,0.033,0.028,0.05,0.042
		c-0.393-0.43-0.794-0.851-1.176-1.291c-1.359-1.565-2.638-3.198-3.981-4.777c-2.169-2.551-4.409-5.2-5.777-8.281
		c0.096,2.4,0.368,4.792,0.861,7.144c1.049,5.005,3.058,9.951,6.466,13.824c0.829,0.942,1.737,1.811,2.715,2.59
		c2.686,1.412,5.52,2.583,8.473,3.186C109.212,69.354,107.57,68.162,106.079,66.778z"/>
	<path style="opacity:0.44;fill:#963920;" d="M81.504,44.529c0.387-2.845,1.981-5.409,4.533-6.791
		c0.671-0.363,1.377-0.648,2.104-0.869c-1.614-0.63-3.169-1.751-4.896-1.445c-1.764,0.311-2.706,1.853-3.024,3.493
		c-0.168,0.866-0.211,1.769-0.173,2.678c0.006,0.001,0.011,0.004,0.017,0.006c-0.091,0.774-0.022,1.571,0.264,2.278
		c0.235,1.196,0.593,2.363,1.045,3.429c0.026,0.06,0.056,0.118,0.082,0.178C81.371,46.501,81.37,45.511,81.504,44.529z"/>
	<path style="fill:#213A07;" d="M182.648,87.602c-0.027-2.952-1.128-5.844-2.116-8.585c-2.287-6.349-3.513-13.001-5.106-19.547
		c-1.697-6.973-3.749-13.847-6.951-20.293c-2.684-5.402-5.924-10.547-9.93-15.071c-4.007-4.525-8.765-8.333-14.098-11.184
		c-13.132-7.02-28.172-10.176-42.976-10.492c-7.675-0.164-15.309,0.481-22.925,1.373c-3.862,0.453-7.719,0.943-11.585,1.355
		c-2.135,0.227-4.279,0.466-6.425,0.667c-2.355-0.763-4.75-1.399-7.187-1.875c-5.944-1.161-12.515-1.644-18.278,0.592
		c-3.202,1.242-5.94,3.475-8.054,6.166c-0.822,1.047-1.567,2.271-2.075,3.567c-0.001-0.003,0.006,0.005,0.022,0.029
		c0.015,0.02,0.031,0.039,0.048,0.058c0.01,0.011,0.02,0.021,0.031,0.032c0.005,0.004,0.003,0.002,0.011,0.009
		c0.032,0.021,0.088,0.083,0.127,0.086c-0.07-0.037-0.078-0.043-0.024-0.017c0.023,0.01,0.046,0.019,0.069,0.027
		c0.014,0.005,0.029,0.009,0.044,0.014c0.048,0.006,0.096,0.014,0.144,0.016c0.026,0.002,0.051,0.002,0.077,0.002
		c0.062-0.001,0.052,0-0.03,0.002c0.033,0.015,0.124-0.012,0.159-0.017c0.059-0.009,0.117-0.024,0.175-0.037
		c0.649-0.675,1.373-1.294,2.198-1.823c5.868-3.764,13.667-3.765,20.298-2.569c7.291,1.315,14.224,4.258,20.745,7.702
		c6.08,3.21,11.936,6.881,17.592,10.785c11.254,7.768,21.727,16.729,30.904,26.878c9.168,10.139,17.027,21.523,22.718,33.974
		c1.479,3.236,2.759,6.545,3.995,9.879c1.459,3.934,2.897,7.878,4.232,11.856c1.302,3.881,2.588,7.789,3.4,11.807
		c0.231,1.142,0.434,2.289,0.627,3.438c0.258,0.744,0.411,1.533,0.526,2.297c0.236,1.565,0.51,3.137,0.688,4.709
		c0.395,3.491,0.43,7.021,0.588,10.532c0.117,0.5,0.34,1.007,0.899,0.921c0.777-0.12,1.389-1.186,1.784-1.764
		c1.257-1.841,1.999-3.968,2.441-6.141c0.025-0.121,0.039-0.244,0.062-0.365c1.013-1.413,1.996-2.845,2.905-4.335
		c3.13-5.134,5.6-10.69,7.019-16.544c1.553-6.402,2.158-13.019,2.732-19.566c0.07-0.801,0.118-1.6,0.158-2.399
		c0.584,0.037,1.169,0.063,1.762,0.058c2.031-0.019,4.24-0.215,6.039-1.246C181.975,91.493,182.667,89.688,182.648,87.602z"/>
	<path style="fill:#005D5B;" d="M181.568,89.55c-0.455,1.989-2.336,2.854-4.179,3.202c-1.66,0.314-3.362,0.323-5.05,0.236
		c0.093-2.573,0.031-5.139-0.21-7.721c-0.165-1.767-0.481-3.465-0.889-5.191c-0.089-0.377-0.177-0.755-0.263-1.134
		c0.033,1.125,0.1,2.25,0.192,3.374c0.18,2.201,0.416,4.398,0.518,6.605c0.102,2.184,0.021,4.346-0.188,6.522
		c-0.178,1.845-0.431,3.68-0.712,5.512c-0.05,0.46-0.097,0.922-0.148,1.382c-0.35,3.156-0.771,6.306-1.342,9.43
		c-1.063,5.805-2.906,11.328-5.649,16.56c-1.156,2.204-2.45,4.332-3.848,6.39c0.152-1.127,0.253-2.26,0.339-3.394
		c-0.073,0.284-0.158,0.564-0.235,0.847c-0.213,0.953-0.427,1.907-0.682,2.85c-0.262,0.967-0.523,1.915-0.739,2.893
		c-0.19,0.861-0.398,1.717-0.807,2.503c-0.06,0.115-0.148,0.186-0.244,0.236c-0.061,0.143-0.11,0.289-0.176,0.43
		c-0.44,0.942-0.99,1.827-1.652,2.63c-0.148,0.179-0.407,0.303-0.203,0.421c-0.118-0.068-0.167-0.361-0.198-0.468
		c-0.104-0.363-0.158-0.743-0.201-1.124c-0.405-0.912-0.288-1.896-0.226-2.862c-0.11-1.631-0.209-3.264-0.359-4.893
		c-0.114-1.231-0.236-2.476-0.398-3.716c-0.063-0.935-0.165-1.867-0.318-2.803c-0.688-4.211-1.532-8.321-2.798-12.399
		c-1.246-4.015-2.628-7.986-4.064-11.937c-1.354-3.723-2.692-7.462-4.215-11.12c-5.379-12.914-13.134-24.745-22.264-35.311
		c-9.246-10.701-19.935-20.13-31.477-28.284c-5.632-3.979-11.472-7.695-17.513-11.024c-6.57-3.62-13.52-6.747-20.87-8.378
		c-6.763-1.5-14.455-1.791-20.862,1.235c-1.246,0.589-2.45,1.332-3.518,2.227c0.434-0.817,0.946-1.594,1.521-2.322
		c1.887-2.391,4.318-4.457,7.146-5.629c5.65-2.341,12.161-1.868,18.034-0.749c1.954,0.372,3.87,0.858,5.758,1.42
		C58.558,6,58.537,6.001,58.515,6.002c0.491,0.117,0.977,0.254,1.454,0.427c0.008,0,0.016-0.001,0.024-0.002
		c9.781,3.154,18.749,8.554,27.497,13.895c1.786,1.09,3.576,2.188,5.376,3.271c1.12,0.405,2.239,0.808,3.369,1.185
		c0.131,0.044,0.265,0.08,0.397,0.123c-2.562-1.506-5.11-3.038-7.65-4.588c-5.59-3.412-11.184-6.843-17.052-9.764
		c-3.276-1.631-6.646-3.085-10.103-4.281c3.296-0.281,6.588-0.606,9.876-0.981C79.216,4.43,86.732,3.46,94.3,3.214
		c14.666-0.478,29.461,1.609,43.046,7.307c5.964,2.501,11.556,5.625,16.375,9.975c4.367,3.941,7.988,8.636,10.987,13.684
		c3.417,5.749,6.017,11.879,7.902,18.292c2.013,6.848,3.371,13.864,5.116,20.781c0.702,2.782,1.716,5.423,2.626,8.138
		C181.195,83.909,182.18,86.875,181.568,89.55z"/>
	<path style="fill:#005D5B;" d="M42.305,6.22c4.405-0.636,8.917-0.262,13.264,0.607c4.363,0.873,8.605,2.279,12.632,4.167
		c10.32,4.84,19.317,11.988,29.364,17.317c-1.322-1.343-2.699-2.631-4.123-3.867c-0.721-0.626-1.455-1.233-2.195-1.834
		c-1.255-0.762-2.51-1.525-3.759-2.287C78.741,14.982,69.773,9.581,59.992,6.428c-0.008,0-0.016,0.001-0.024,0.002
		c-0.477-0.173-0.963-0.31-1.454-0.427C58.537,6.001,58.558,6,58.58,5.998c-1.888-0.562-3.804-1.047-5.758-1.42
		C46.949,3.46,40.438,2.986,34.788,5.328c-2.828,1.172-5.259,3.238-7.146,5.628c-0.575,0.728-1.086,1.505-1.521,2.322
		c1.068-0.895,2.272-1.639,3.518-2.227c1.131-0.534,2.304-0.96,3.504-1.299C35.81,7.829,39.001,6.697,42.305,6.22z"/>
	<path style="fill:#005D5B;" d="M85.251,18.044c-4.281-3.09-8.685-6.02-12.921-9.167c-0.203-0.151-0.22-0.522,0.077-0.587
		c8.682-1.908,17.555-2.929,26.44-3.144c7.952-0.193,15.925,0.263,23.795,1.425c2.559,0.378,5.124,0.819,7.663,1.358
		c-11.581-3.732-23.836-5.11-36.005-4.713C86.732,3.46,79.216,4.43,71.7,5.287c-3.288,0.375-6.579,0.7-9.875,0.981
		c3.457,1.196,6.827,2.65,10.103,4.281C76.493,12.821,80.891,15.403,85.251,18.044z"/>
	<path style="fill:#005D5B;" d="M128.727,43.403c-2.54-4.165-5.377-8.171-8.708-11.743c-3.407-3.652-7.357-6.829-11.732-9.245
		c-2.264-1.251-4.621-2.325-7.013-3.307c-2.31-0.948-4.635-1.818-7.029-2.529c-1.058-0.314-2.13-0.614-3.204-0.923
		c1.938,1.337,3.87,2.683,5.785,4.054c7.525,5.389,14.871,11.156,21.362,17.775c5.969,6.086,11.2,12.878,17.417,18.72
		c-0.001-0.002-0.002-0.004-0.003-0.007C133.481,51.844,131.249,47.539,128.727,43.403z"/>
	<path style="fill:#005D5B;" d="M130.669,18.678c4.773,3.315,8.604,7.817,13.388,11.107c-0.684-1.183-1.455-2.314-2.322-3.372
		C138.805,22.84,134.95,20.242,130.669,18.678z"/>
	<path style="opacity:0.64;fill:#005D5B;" d="M180.352,81.392c-0.91-2.716-1.924-5.357-2.626-8.138
		c-1.746-6.917-3.104-13.933-5.116-20.781c-1.885-6.413-4.485-12.543-7.902-18.292c-3-5.048-6.62-9.742-10.987-13.684
		c-3.106-2.803-6.535-5.092-10.175-7.038c0.729,0.709,1.442,1.432,2.127,2.181c3.703,4.054,6.791,8.651,9.37,13.491
		c2.611,4.902,4.717,10.072,6.376,15.37c1.571,5.019,2.744,10.168,3.46,15.379c0.057,0.411-0.461,0.556-0.619,0.171
		c-1.876-4.555-4.135-8.953-6.784-13.107c-4.663-7.312-10.533-13.767-17.233-19.262c-3.427-2.811-7.094-5.379-11.065-7.363
		c-3.588-1.793-7.495-3.098-11.52-3.271c0.753,0.434,1.501,0.875,2.238,1.335c4.333,2.704,8.339,5.906,11.865,9.605
		c1.58,1.657,2.98,3.451,4.473,5.181c1.003,1.162,2.019,2.312,2.995,3.497c1.207,1.466,2.375,2.973,3.406,4.57
		c0.885,1.371,1.747,2.863,2.125,4.466c0.312,1.32,0.178,2.626-0.859,3.589c-1.306,1.212-3.235,1.649-4.946,1.89
		c-1.604,0.225-3.302,0.336-4.914,0.121c-2.566-0.342-5.019-1.239-7.279-2.488c-2.305-1.274-4.329-2.906-6.326-4.606
		c-2.125-1.81-4.243-3.613-6.292-5.511c-8.285-7.678-15.987-16.141-25.5-22.36c-6.939-4.537-14.498-7.775-22.27-10.487
		c-1.515,0.149-3.031,0.29-4.549,0.42c3.457,1.196,6.827,2.65,10.103,4.281c5.868,2.921,11.462,6.353,17.052,9.764
		c2.541,1.55,5.088,3.083,7.651,4.588c-0.132-0.043-0.265-0.079-0.397-0.123c-1.13-0.376-2.249-0.78-3.369-1.185
		c-1.8-1.083-3.59-2.181-5.376-3.271C78.741,14.982,69.773,9.581,59.992,6.428c-0.008,0-0.016,0.001-0.024,0.002
		c-0.477-0.173-0.963-0.31-1.454-0.427C58.537,6.001,58.558,6,58.58,5.998c-1.888-0.562-3.804-1.047-5.758-1.42
		c-3.378-0.643-6.966-1.07-10.481-0.874c6.474,0.831,12.815,2.551,18.876,4.98c7.2,2.885,13.995,6.693,20.448,10.981
		c6.859,4.559,13.334,9.658,19.627,14.963c6.52,5.496,12.753,11.302,18.393,17.703c5.343,6.063,10.543,12.604,13.828,20.047
		c0.149,0.337-0.216,0.628-0.504,0.389c-0.546-0.452-1.083-0.913-1.61-1.386c-0.37-0.332-0.731-0.674-1.092-1.015
		c4.842,7.05,9.027,14.545,12.318,22.447c1.523,3.658,2.861,7.397,4.215,11.12c1.436,3.95,2.818,7.922,4.064,11.936
		c1.266,4.078,2.11,8.188,2.798,12.399c0.153,0.936,0.255,1.868,0.318,2.803c0.161,1.24,0.284,2.485,0.398,3.716
		c0.151,1.629,0.249,3.262,0.359,4.893c-0.062,0.966-0.18,1.951,0.225,2.862c0.043,0.381,0.097,0.76,0.201,1.124
		c0.023,0.083,0.059,0.272,0.127,0.387c-0.02-0.096,0.159-0.201,0.274-0.34c0.662-0.803,1.212-1.688,1.652-2.63
		c0.066-0.141,0.114-0.287,0.176-0.43c0.096-0.051,0.184-0.121,0.244-0.236c0.41-0.786,0.618-1.643,0.807-2.503
		c0.216-0.979,0.477-1.927,0.739-2.893c0.256-0.943,0.469-1.896,0.682-2.85c0.077-0.283,0.162-0.563,0.235-0.847
		c-0.087,1.134-0.188,2.268-0.339,3.394c1.398-2.058,2.692-4.186,3.848-6.39c2.744-5.232,4.587-10.754,5.649-16.56
		c0.572-3.124,0.992-6.274,1.342-9.431c0.051-0.46,0.097-0.922,0.148-1.382c0.281-1.831,0.534-3.667,0.712-5.512
		c0.209-2.176,0.29-4.338,0.188-6.522c-0.102-2.207-0.339-4.404-0.518-6.605c-0.092-1.124-0.159-2.249-0.192-3.374
		c0.086,0.379,0.174,0.757,0.263,1.134c0.408,1.726,0.724,3.424,0.889,5.191c0.241,2.582,0.303,5.148,0.21,7.721
		c1.688,0.087,3.39,0.078,5.05-0.236c1.843-0.349,3.723-1.213,4.179-3.202C182.18,86.875,181.195,83.909,180.352,81.392z"/>
	<path style="opacity:0.64;fill:#005D5B;" d="M149.601,79.046c-1.726-2.824-3.535-5.598-5.436-8.308
		c-4.45-6.342-9.414-12.331-14.952-17.755c-2.572-2.519-5.273-4.903-8.083-7.148c4.535,5.627,9.165,11.177,13.875,16.659
		C139.8,68.073,144.675,73.582,149.601,79.046z"/>
	<path style="opacity:0.64;fill:#005D5B;" d="M180.352,81.392c-0.91-2.716-1.924-5.357-2.626-8.138
		c-1.746-6.917-3.104-13.933-5.116-20.781c-1.238-4.211-2.79-8.297-4.674-12.236c1.078,2.748,2.041,5.541,2.849,8.381
		c0.662,2.327,1.197,4.685,1.769,7.034c0.583,2.393,1.13,4.796,1.594,7.216c0.933,4.872,1.52,9.822,1.398,14.789
		c-0.009,0.375-0.514,0.421-0.631,0.085c-0.537-1.542-1.274-3.003-2.147-4.382c-2.912-4.599-7.252-8.448-12.108-10.955
		c2.484,3.118,4.339,6.699,5.638,10.469c1.309,3.801,2.066,7.789,2.35,11.796c0.262,3.698,0.046,7.397-0.388,11.074
		c-0.448,3.794-1.146,7.579-2.318,11.22c-1.099,3.413-2.628,6.761-4.983,9.499c-0.169,0.196-0.464,0.069-0.537-0.142
		c-1.364-3.927-2.341-7.97-3.561-11.942c-1.069-3.479-2.363-6.9-4.245-10.029c-2.075-3.448-4.854-6.483-7.664-9.344
		c-1.439-1.465-2.926-2.883-4.447-4.261c-1.486-1.347-2.974-2.733-4.645-3.849c-0.685-0.458-1.395-0.871-2.115-1.265
		c3.402,5.485,6.397,11.218,8.882,17.184c1.523,3.658,2.861,7.397,4.215,11.12c1.436,3.95,2.818,7.922,4.064,11.936
		c1.266,4.078,2.11,8.188,2.798,12.399c0.153,0.936,0.255,1.868,0.318,2.803c0.161,1.24,0.284,2.485,0.398,3.716
		c0.151,1.629,0.249,3.262,0.359,4.893c-0.062,0.966-0.18,1.951,0.225,2.862c0.043,0.381,0.097,0.76,0.201,1.124
		c0.023,0.083,0.059,0.272,0.127,0.387c-0.02-0.096,0.159-0.201,0.274-0.34c0.662-0.803,1.212-1.688,1.652-2.63
		c0.066-0.141,0.114-0.287,0.176-0.43c0.096-0.051,0.184-0.121,0.244-0.236c0.41-0.786,0.618-1.643,0.807-2.503
		c0.216-0.979,0.477-1.927,0.739-2.893c0.256-0.943,0.469-1.896,0.682-2.85c0.077-0.283,0.162-0.563,0.235-0.847
		c-0.087,1.134-0.188,2.268-0.339,3.394c1.398-2.058,2.692-4.186,3.848-6.39c2.744-5.232,4.587-10.754,5.649-16.56
		c0.572-3.124,0.992-6.274,1.342-9.431c0.051-0.46,0.097-0.922,0.148-1.382c0.281-1.831,0.534-3.667,0.712-5.512
		c0.209-2.176,0.29-4.338,0.188-6.522c-0.102-2.207-0.339-4.404-0.518-6.605c-0.092-1.124-0.159-2.249-0.192-3.374
		c0.086,0.379,0.174,0.757,0.263,1.134c0.408,1.726,0.724,3.424,0.889,5.191c0.241,2.582,0.303,5.148,0.21,7.721
		c1.688,0.087,3.39,0.078,5.05-0.236c1.843-0.349,3.723-1.213,4.179-3.202C182.18,86.875,181.195,83.909,180.352,81.392z"/>
	<g>
		<path style="fill:#B07150;" d="M171.577,73.763c-0.534-0.594-1.776-0.364-2.457-0.318c-1.458,0.099-2.902,0.355-4.343,0.591
			c-2.851,0.468-5.695,0.988-8.507,1.649c-5.092,1.196-10.064,2.91-14.692,5.365c-4.147,2.2-8.053,5.173-10.427,9.303
			c-0.761,1.324-1.388,2.718-1.943,4.141c-0.424,0.89-0.775,1.818-1.116,2.773c-0.727,2.034-1.428,4.086-1.932,6.188
			c-0.412,1.717-0.69,3.479-0.76,5.248c0.286-0.491,0.583-0.974,0.899-1.44c0.965-1.424,2.123-2.89,3.664-3.72
			c0.396-0.213,0.971,0.205,0.776,0.656c-0.918,2.112-2.136,4.078-3.042,6.194c0.337,0.003,0.679,0.288,0.537,0.7
			c-0.511,1.481-1.183,2.97-1.638,4.501c1.298,1.147,3.146,1.544,4.825,1.692c1.928,0.169,3.913,0.018,5.83-0.216
			c2.746-0.336,5.419-1.198,7.973-2.235c2.464-1,4.938-2.115,7.268-3.4c4.354-2.402,7.8-6.193,10.547-10.284
			c2.889-4.303,4.938-9.111,6.334-14.091c0.698-2.49,1.249-5.02,1.69-7.568c0.224-1.295,0.409-2.596,0.597-3.897
			C171.737,75.053,171.995,74.227,171.577,73.763z"/>
		<path style="fill:#FBC19F;" d="M170.903,76.46c-0.344,2.435-0.767,4.86-1.311,7.259c-1.087,4.794-2.691,9.503-5.052,13.825
			c-2.266,4.148-5.22,8.095-8.895,11.098c-1.929,1.576-4.076,2.696-6.316,3.757c-2.371,1.124-4.778,2.192-7.285,2.98
			c-2.228,0.7-4.498,1.063-6.826,1.187c-1.881,0.1-3.863,0.101-5.687-0.422c-1.615-0.463-2.86-1.405-3.364-2.925
			c-0.175-0.927-0.214-1.88-0.201-2.83c0.033,0.031,0.112-0.003,0.105-0.056c-0.03-0.245-0.04-0.489-0.053-0.733
			c0.017-0.146,0.032-0.293,0.05-0.439c0.146-1.187,0.224-2.382,0.327-3.574c0.001-0.01,0.002-0.021,0.003-0.031
			c0.276-1.278,0.652-2.541,1.017-3.793c0.746-2.556,1.488-5.119,2.495-7.587c0.928-2.274,2.075-4.452,3.658-6.341
			c1.476-1.76,3.259-3.247,5.169-4.515c3.952-2.624,8.471-4.501,12.997-5.877c5.121-1.558,10.481-2.584,15.785-3.278
			c0.698-0.091,1.398-0.162,2.101-0.185c0.357-0.012,1.118-0.115,1.4,0.198C171.411,74.61,170.972,75.971,170.903,76.46z"/>
		<path style="fill:#FBC19F;" d="M132.961,89.817c1.444-1.753,3.114-3.303,5.01-4.557c4.04-2.673,8.572-4.51,13.094-6.194
			c4.614-1.718,9.341-3.143,14.141-4.238c1.315-0.3,2.636-0.573,3.963-0.82c-0.552,0.033-1.102,0.085-1.65,0.157
			c-5.305,0.695-10.664,1.721-15.785,3.278c-4.525,1.376-9.044,3.253-12.997,5.877c-1.909,1.268-3.693,2.755-5.169,4.515
			c-1.584,1.889-2.73,4.067-3.658,6.341c-0.054,0.132-0.1,0.268-0.152,0.4C130.721,92.918,131.736,91.304,132.961,89.817z"/>
		<path style="opacity:0.67;fill:#FBC19F;" d="M162.977,99.971c-2.406,1.822-5.227,3.516-8.27,3.927
			c-0.247,0.033-0.447-0.134-0.395-0.395c0.32-1.606,1.108-3.076,1.899-4.492c0.735-1.317,1.533-2.621,2.07-4.036
			c0.609-1.602,1.156-3.23,1.708-4.852c1.045-3.072,2.027-6.165,2.973-9.269c-2.887,0.605-5.605,1.847-8.193,3.234
			c-2.447,1.311-4.802,2.781-7.204,4.17c-2.333,1.35-4.736,2.578-6.949,4.127c-1.113,0.779-2.173,1.637-3.12,2.611
			c-0.957,0.985-1.726,2.135-2.375,3.342c-1.277,2.377-2.081,4.97-3.241,7.401c-0.108,0.227-0.437,0.191-0.555,0
			c-1.136-1.838-1.233-4.232-1.143-6.331c0.181-4.198,1.395-8.249,3.78-11.728c0.298-0.435,0.613-0.86,0.94-1.275
			c-0.465,0.457-0.915,0.93-1.334,1.43c-1.584,1.889-2.73,4.067-3.658,6.341c-1.007,2.468-1.749,5.031-2.495,7.587
			c-0.365,1.251-0.741,2.515-1.017,3.792c-0.001,0.01-0.002,0.021-0.003,0.031c-0.102,1.191-0.181,2.386-0.327,3.574
			c-0.018,0.146-0.033,0.292-0.05,0.439c0.014,0.244,0.023,0.488,0.053,0.733c0.007,0.053-0.072,0.087-0.105,0.056
			c-0.013,0.95,0.026,1.903,0.201,2.83c0.504,1.52,1.748,2.461,3.364,2.925c1.824,0.523,3.806,0.522,5.687,0.422
			c2.328-0.124,4.598-0.487,6.826-1.187c2.506-0.787,4.914-1.856,7.285-2.98c2.24-1.062,4.387-2.181,6.316-3.757
			c3.009-2.459,5.527-5.554,7.587-8.87C163.146,99.837,163.063,99.906,162.977,99.971z"/>
		<path style="opacity:0.67;fill:#FBC19F;" d="M152.206,89.222c0.814-0.996,1.586-2.026,2.399-3.023
			c0.763-0.936,1.56-1.859,2.42-2.714c-2.1,1.106-4.232,2.15-6.332,3.256c-2.442,1.286-4.852,2.654-7.081,4.287
			c-0.504,0.369-1.005,0.755-1.494,1.156c-0.02,0.064-0.054,0.125-0.122,0.172c-0.114,0.077-0.226,0.147-0.338,0.219
			c-1.38,1.186-2.644,2.52-3.572,4.07c-1.377,2.301-2.182,4.921-2.746,7.528c-0.282,1.302-0.533,2.63-0.658,3.958
			c-0.061,0.65-0.07,1.301-0.057,1.952c0.006-0.017,0.009-0.035,0.015-0.052c0.169-0.483,0.499-0.881,0.988-1.066
			c0.635-0.24,1.32-0.006,1.938,0.176c1.548,0.456,3.115,0.263,4.645-0.183c1.476-0.43,2.926-1.034,4.326-1.668
			c2.102-0.951,4.002-2.367,5.235-4.344c0.632-1.014,1.073-2.13,1.349-3.291c0.222-0.935,0.569-2.242,0.089-3.155
			c-0.336-0.638-1.127-0.776-1.776-0.869c-0.911-0.13-1.827-0.183-2.724-0.402c-0.128-0.031-0.248-0.175-0.236-0.31
			c0.11-1.224,0.823-2.274,1.568-3.211C150.728,90.849,151.511,90.074,152.206,89.222z"/>
		<path style="fill:#B07150;" d="M166.798,79.102c-1.763,0.276-3.357,0.986-4.942,1.781c-1.675,0.84-3.371,1.634-5.04,2.485
			c-3.204,1.632-6.356,3.388-9.418,5.275c-5.123,3.157-9.853,7.123-11.841,13.001c-0.686,2.028-1.255,4.149-1.469,6.282
			c-0.153,1.527-0.428,3.362,0.299,4.785c0.082,0.16,0.384-0.023,0.347-0.175c-0.347-1.435-0.187-2.953-0.024-4.407
			c1.7,0.997,3.936,0.941,5.839,0.899c2.252-0.049,4.486-0.465,6.543-1.405c1.821-0.832,3.453-2.041,4.835-3.486
			c1.421-1.486,2.484-3.178,3.565-4.914c0.096-0.154-0.13-0.181-0.209-0.072c-2.163,3-4.708,6.147-8.127,7.749
			c-1.909,0.894-3.981,1.319-6.082,1.379c-1.026,0.029-2.053-0.007-3.077-0.071c-1.138-0.072-2.206-0.202-3.18-0.835
			c0.245-1.685,0.693-3.321,1.212-4.944c0.917-2.869,2.453-5.457,4.526-7.643c1.962-2.068,4.284-3.744,6.69-5.255
			c2.727-1.713,5.549-3.298,8.391-4.812c1.82-0.97,3.688-1.849,5.507-2.821c1.788-0.956,3.61-2.136,5.626-2.534
			C166.927,79.332,167.012,79.069,166.798,79.102z"/>
	</g>
	<g>
		<defs>
			<path id="SVGID_1_" d="M54.558,113.035c-2.06,0.16-4.1,0.099-6.146-0.192c-1.561-0.222-3.175-0.504-4.61-1.187
				c-1.045-0.498-1.852-1.224-2.475-2.132c-0.886-1.803-1.223-3.861-1.374-5.849c-0.173-2.282-0.35-5.219,1.146-7.13
				c1.918-2.449,5.511-2.12,7.937-0.716c2.634,1.525,4.527,4.074,5.962,6.702c0.57,1.043,1.054,2.114,1.486,3.203
				c0.134,0.442,0.259,0.885,0.375,1.324c0.465,1.767,1.213,3.572,1.39,5.404C57.113,112.933,55.738,112.944,54.558,113.035z"/>
		</defs>
		<use xlink:href="#SVGID_1_"  style="overflow:visible;fill:#FFFFFF;"/>
		<clipPath id="SVGID_00000031201242202509758040000016531746688598062998_">
			<use xlink:href="#SVGID_1_"  style="overflow:visible;"/>
		</clipPath>
		<g style="clip-path:url(#SVGID_00000031201242202509758040000016531746688598062998_);">
			<g>
				<path style="fill:#914520;" d="M64.162,104.473c-0.402,5.425-5.126,9.498-10.552,9.096c-5.426-0.402-9.498-5.126-9.096-10.551
					c0.402-5.425,5.126-9.498,10.552-9.096C60.492,94.323,64.564,99.047,64.162,104.473z"/>
			</g>
			<g>
				<path d="M61.717,104.291c-0.302,4.075-3.85,7.134-7.926,6.832c-4.075-0.302-7.134-3.85-6.832-7.926
					c0.302-4.075,3.85-7.134,7.926-6.832C58.96,96.668,62.019,100.216,61.717,104.291z"/>
				<path style="fill:#4A1A00;" d="M53.788,111.17c-4.094-0.303-7.179-3.881-6.875-7.976c0.303-4.095,3.881-7.179,7.976-6.876
					c4.094,0.303,7.179,3.881,6.875,7.976C61.46,108.389,57.882,111.474,53.788,111.17z"/>
			</g>
			<g>
				<path style="fill:#FFFFFF;" d="M52.84,99.105c-0.089,1.205-1.139,2.11-2.344,2.02c-1.205-0.089-2.11-1.139-2.02-2.344
					c0.089-1.205,1.139-2.11,2.344-2.02C52.024,96.85,52.929,97.9,52.84,99.105z"/>
				<path d="M50.493,101.172c-1.229-0.091-2.154-1.165-2.063-2.394c0.091-1.229,1.165-2.154,2.394-2.063
					c1.229,0.091,2.155,1.165,2.064,2.394C52.795,100.337,51.722,101.263,50.493,101.172z M50.816,96.808
					c-1.177-0.087-2.206,0.8-2.293,1.977c-0.087,1.177,0.8,2.206,1.977,2.294c1.177,0.087,2.206-0.8,2.293-1.977
					C52.88,97.924,51.993,96.895,50.816,96.808z"/>
			</g>
		</g>
	</g>
	<g>
		<defs>
			<path id="SVGID_00000109731406629479984060000013461807140214905730_" d="M79.728,94.358c0.749-3.16,2.253-6.084,4.848-8.156
				c2.742-2.19,6.489-2.762,9.844-1.854c3.219,0.87,5.97,2.992,8.052,5.549c2.327,2.857,3.92,6.303,4.73,9.891
				c0.128,1.232-1.731,2.131-2.606,2.638c-1.674,0.971-3.376,1.847-5.198,2.512c-4.567,1.667-9.453,2.247-14.284,2.437
				c-1.276,0.05-2.615,0.262-3.867-0.081c-0.417-0.114-0.722-0.294-0.964-0.52c-0.057-0.183-0.112-0.365-0.153-0.546
				c-0.151-0.657-0.266-1.323-0.358-1.991c-0.175-1.257-0.258-2.525-0.304-3.793c-0.049-1.358-0.136-2.739-0.024-4.095
				C79.498,95.683,79.607,95.02,79.728,94.358z"/>
		</defs>
		<clipPath id="SVGID_00000010285379598959610640000010278882974976201113_">
			<use xlink:href="#SVGID_00000109731406629479984060000013461807140214905730_"  style="overflow:visible;"/>
		</clipPath>
		<g style="clip-path:url(#SVGID_00000010285379598959610640000010278882974976201113_);">
			<g>
				<path style="fill:#914520;" d="M108.27,95.844c-0.445,6.003-5.671,10.508-11.674,10.063
					c-6.003-0.445-10.508-5.671-10.063-11.674c0.445-6.003,5.671-10.508,11.674-10.063C104.209,84.615,108.714,89.841,108.27,95.844
					z"/>
			</g>
			<g>
				<path d="M105.565,95.643c-0.334,4.509-4.26,7.893-8.769,7.559c-4.509-0.334-7.893-4.26-7.559-8.769
					c0.334-4.509,4.26-7.893,8.769-7.559C102.515,87.209,105.899,91.135,105.565,95.643z"/>
				<path style="fill:#4A1A00;" d="M96.792,103.254c-4.53-0.336-7.942-4.294-7.607-8.824c0.336-4.53,4.294-7.943,8.824-7.607
					c4.53,0.336,7.943,4.294,7.607,8.824C105.281,100.177,101.322,103.59,96.792,103.254z"/>
			</g>
			<g>
				<path style="fill:#FFFFFF;" d="M95.743,89.905c-0.099,1.333-1.26,2.334-2.593,2.235c-1.333-0.099-2.334-1.26-2.235-2.593
					c0.099-1.333,1.26-2.334,2.593-2.235C94.841,87.411,95.842,88.572,95.743,89.905z"/>
				<path d="M93.146,92.192c-1.36-0.101-2.384-1.289-2.283-2.648c0.101-1.36,1.289-2.384,2.648-2.283
					c1.36,0.101,2.384,1.289,2.283,2.648C95.694,91.268,94.506,92.292,93.146,92.192z M93.504,87.364
					c-1.303-0.097-2.441,0.885-2.537,2.187c-0.097,1.303,0.885,2.441,2.187,2.537c1.303,0.096,2.441-0.885,2.537-2.187
					C95.788,88.598,94.807,87.46,93.504,87.364z"/>
			</g>
		</g>
	</g>
</g>
</svg>
